<svg width="235" height="239" viewBox="0 0 235 239" fill="none" xmlns="http://www.w3.org/2000/svg">
    <g clip-path="url(#clip0)">
        <path d="M81.481 100.059C87.1544 104.474 95.3317 103.45 99.745 97.7697C104.158 92.095 103.135 83.9158 97.4558 79.5015C92.6023 75.7257 85.9163 75.9349 81.3269 79.6226L81.3214 79.6171L78.4654 77.399L74.2227 78.72L74.707 74.4763L71.1301 71.6967L66.8874 73.0177L67.3716 68.774L64.2955 66.3852L61.7092 67.1888L62.0063 64.6019L60.2179 63.2093L56.1568 63.6111L55.612 69.8528L76.8861 86.3927C75.5819 91.3079 77.2218 96.746 81.481 100.059ZM96.9826 95.6231C95.7169 97.2523 93.3727 97.5441 91.7438 96.2781C90.115 95.0122 89.8233 92.6674 91.089 91.0382C92.3547 89.409 94.6989 89.1172 96.3277 90.3832C97.9511 91.6491 98.2482 93.9939 96.9826 95.6231Z" fill="#DBDBDB"/>
        <path d="M98.6279 50.3132C101.066 47.33 100.62 42.9432 97.6429 40.5048C94.6603 38.0665 90.269 38.5124 87.8368 41.4901C85.7512 44.0385 85.7787 47.6217 87.6937 50.126L86.4666 51.6287L87.1214 53.9184L84.8597 53.6047L83.3244 55.4816L83.9793 57.7713L81.7176 57.4575L80.3969 59.0758L80.7931 60.4683L79.4119 60.2757L78.6415 61.2169L78.8011 63.3965L82.1303 63.7708L91.2596 52.5974C93.8679 53.357 96.7954 52.5534 98.6279 50.3132ZM96.4543 41.9579C97.3072 42.657 97.4338 43.9174 96.7349 44.7705C96.036 45.6237 94.7759 45.7503 93.9229 45.0512C93.07 44.3522 92.9434 43.0918 93.6423 42.2386C94.3357 41.3855 95.5958 41.2589 96.4543 41.9579Z" fill="#DBDBDB"/>
        <path d="M69.1931 3.03278V43.4275H11.1873L9.10175 3.31349L69.1931 3.03278Z" fill="#E0E0E0"/>
        <path d="M9.10132 3.31485L9.10132 43.3408H67.1071V3.31485H9.10132Z" fill="white"/>
        <path d="M67.3771 43.6156H8.8266V3.03918H67.3826V43.6156H67.3771ZM9.37689 43.0652H66.8323V3.5896H9.37689V43.0652Z" fill="#E0E0E0"/>
        <path d="M60.8188 8.29025H15.3817V38.3703H60.8188V8.29025Z" fill="white"/>
        <path d="M60.8232 8.2892C60.8232 8.2892 60.7462 8.29471 60.5976 8.29471C60.4435 8.29471 60.2289 8.30021 59.9537 8.30021C59.3759 8.30572 58.5395 8.31122 57.4554 8.31672C55.2708 8.32223 52.1011 8.33874 48.0896 8.34975C40.0774 8.36626 28.736 8.38828 15.3805 8.4158L15.5126 8.2837C15.5181 17.4756 15.5181 27.6582 15.5236 38.3582V38.3637L15.3805 38.2206C32.5219 38.2316 48.3262 38.2426 60.8177 38.2481L60.7021 38.3637C60.7296 29.2104 60.7462 21.7028 60.7627 16.4793C60.7737 13.8649 60.7847 11.8284 60.7902 10.4248C60.7957 9.73128 60.8012 9.20289 60.8012 8.83411C60.8122 8.47634 60.8232 8.2892 60.8232 8.2892C60.8232 8.2892 60.8287 8.46534 60.8342 8.8176C60.8397 9.18087 60.8397 9.70376 60.8452 10.3863C60.8507 11.7788 60.8617 13.8098 60.8727 16.4133C60.8892 21.6587 60.9057 29.1884 60.9333 38.3692V38.4848H60.8177C48.3207 38.4903 32.5164 38.5013 15.3805 38.5123H15.2374V38.3692V38.3637C15.2429 27.6582 15.2429 17.4756 15.2484 8.2892V8.1571H15.3805C28.769 8.18463 40.1434 8.20664 48.1776 8.22315C52.1727 8.23967 55.3368 8.25067 57.5105 8.25618C58.5835 8.26168 59.409 8.26719 59.9813 8.27269C60.2509 8.2782 60.46 8.2782 60.6141 8.2782C60.7517 8.2837 60.8232 8.2892 60.8232 8.2892Z" fill="#E0E0E0"/>
        <path d="M9.10172 3.20341C9.12374 3.17039 9.50343 3.42358 10.0977 3.84739C10.6921 4.27672 11.501 4.88217 12.3704 5.58119C13.2454 6.28022 14.0103 6.94071 14.5496 7.43608C15.0888 7.93145 15.408 8.2562 15.3805 8.28372C15.3255 8.34426 13.9332 7.1939 12.1888 5.80136C10.4499 4.41432 9.0467 3.26946 9.10172 3.20341Z" fill="#E0E0E0"/>
        <path d="M67.102 3.31347C67.1515 3.37401 65.7868 4.54089 64.0479 5.91142C62.3145 7.28745 60.8672 8.34974 60.8177 8.28369C60.7682 8.22315 62.1329 7.05627 63.8718 5.68575C65.6107 4.31522 67.058 3.25292 67.102 3.31347Z" fill="#E0E0E0"/>
        <path d="M67.059 43.345C64.9019 41.5947 62.7503 39.8499 60.5931 38.0995L67.059 43.345Z" fill="white"/>
        <path d="M60.5921 38.1056C60.6416 38.045 62.1274 39.1679 63.9158 40.6155C65.7043 42.063 67.1075 43.285 67.058 43.351C67.0084 43.4116 65.5227 42.2887 63.7342 40.8411C61.9513 39.388 60.5426 38.1661 60.5921 38.1056Z" fill="#E0E0E0"/>
        <path d="M9.10172 43.3395C9.05219 43.2789 10.4059 42.123 12.1228 40.769C13.8397 39.4095 15.2704 38.3582 15.32 38.4243C15.3695 38.4848 14.0158 39.6352 12.2989 40.9947C10.582 42.3542 9.15125 43.4055 9.10172 43.3395Z" fill="#E0E0E0"/>
        <path d="M24.6063 17.6577V27.7303H53.1992V17.6577H24.6063Z" fill="#DBDBDB"/>
        <path d="M213.187 232.461C213.187 232.538 165.928 232.604 107.642 232.604C49.3332 232.604 2.08557 232.538 2.08557 232.461C2.08557 232.384 49.3387 232.318 107.642 232.318C165.928 232.318 213.187 232.384 213.187 232.461Z" fill="#263238"/>
        <path d="M169.054 212.536L182.679 232.346L187.543 232.461L178.618 212.09L169.054 212.536Z" fill="#263238"/>
        <path d="M25.3352 213.549L18.1595 232.257H21.7474L34.2829 213.632L25.3352 213.549Z" fill="#263238"/>
        <path d="M22.2591 145.551L22.7874 169.764C22.8644 173.187 25.6159 175.945 29.0386 176.022L164.514 179.038C168.102 179.121 171.057 176.231 171.057 172.642V143.476C171.057 134.868 164.712 127.575 156.182 126.397C131.381 122.984 80.2318 117.739 38.8943 125.191C29.0937 126.964 22.0445 135.6 22.2591 145.551Z" fill="#8FC1D4"/>
        <path d="M21.6538 154.011C21.6538 154.011 10.494 148.842 8.21029 154.011C5.92659 159.179 8.46342 165.52 11.0002 169.07C13.5371 172.62 13.493 216.262 13.493 216.262L182.75 214.452L184.753 172.472C184.753 172.472 192.87 162.471 192.364 158.161C191.858 153.846 185.006 147.571 177.143 154.011C169.279 160.445 167.249 173.892 167.249 173.892L32.3018 174.904C32.3073 174.91 32.7531 156.014 21.6538 154.011Z" fill="#8FC1D4"/>
        <path d="M165.526 182.28C165.526 182.357 135.541 182.423 98.5619 182.423C61.5716 182.423 31.592 182.357 31.592 182.28C31.592 182.203 61.5716 182.137 98.5619 182.137C135.547 182.137 165.526 182.203 165.526 182.28Z" fill="#263238"/>
        <path d="M31.5975 200.757C31.592 200.757 31.5865 200.713 31.581 200.625C31.5754 200.521 31.5699 200.394 31.5644 200.234C31.5534 199.893 31.5424 199.387 31.5369 198.737C31.5314 197.411 31.5314 195.534 31.5259 193.222C31.5204 188.566 31.5589 182.137 31.3443 175.042C31.2123 171.497 31.0857 168.107 30.5684 165.091C30.4694 164.727 30.3703 164.364 30.2768 164.012C30.1392 163.665 30.0071 163.324 29.8586 162.988C29.5669 162.322 29.2697 161.684 28.9451 161.084C28.3067 159.878 27.6079 158.816 26.887 157.913C26.1661 157.011 25.4122 156.273 24.7024 155.695C23.9815 155.128 23.3046 154.71 22.7268 154.424C21.5657 153.851 20.8449 153.714 20.8614 153.675C20.8614 153.67 20.9054 153.681 20.9934 153.697C21.0925 153.725 21.219 153.758 21.3731 153.796C21.7088 153.879 22.1876 154.049 22.7819 154.325C23.3762 154.6 24.0695 155.007 24.8124 155.574C25.5443 156.152 26.3147 156.884 27.0576 157.792C27.8005 158.695 28.5159 159.768 29.1707 160.979C29.5009 161.579 29.809 162.223 30.1062 162.895C30.2548 163.23 30.3923 163.577 30.5354 163.924C30.6345 164.293 30.739 164.667 30.8436 165.041C31.3828 168.096 31.5149 171.486 31.647 175.037C31.8616 182.142 31.7901 188.577 31.7405 193.228C31.7075 195.534 31.68 197.411 31.6635 198.743C31.6525 199.376 31.647 199.877 31.6415 200.24C31.636 200.4 31.6305 200.526 31.6305 200.631C31.6085 200.713 31.603 200.757 31.5975 200.757Z" fill="#263238"/>
        <path d="M20.3331 163.759C20.3276 163.748 20.4762 163.654 20.7843 163.621C21.087 163.588 21.5602 163.649 22.028 163.968C22.2536 164.127 22.4792 164.353 22.6333 164.656C22.7819 164.953 22.8589 165.327 22.7929 165.702C22.6828 166.439 22.0995 167.215 21.2136 167.391C20.3221 167.54 19.5022 167.034 19.1225 166.395C18.9244 166.076 18.8418 165.707 18.8528 165.371C18.8693 165.036 18.9684 164.738 19.1005 164.491C19.3701 163.995 19.7498 163.72 20.0305 163.599C20.3111 163.472 20.4872 163.472 20.4872 163.483C20.4927 163.505 20.3331 163.549 20.0855 163.698C19.8378 163.841 19.5077 164.127 19.2876 164.584C19.0674 165.03 18.9904 165.696 19.3536 166.252C19.6948 166.802 20.4267 167.237 21.1695 167.105C21.9069 166.962 22.4352 166.291 22.5398 165.658C22.6663 165.003 22.3141 164.425 21.9124 164.133C21.5107 163.825 21.0815 163.737 20.7953 163.737C20.4982 163.726 20.3386 163.781 20.3331 163.759Z" fill="#263238"/>
        <path d="M21.098 174.624C21.076 174.646 20.7238 174.349 20.3331 173.721C19.9424 173.099 19.5572 172.114 19.5462 170.975C19.5352 169.835 19.8984 168.839 20.2726 168.206C20.6468 167.568 20.9935 167.265 21.0155 167.287C21.054 167.314 20.7623 167.667 20.4487 168.305C20.135 168.938 19.8213 169.89 19.8324 170.975C19.8434 172.053 20.179 173 20.5092 173.628C20.8394 174.249 21.1365 174.591 21.098 174.624Z" fill="#263238"/>
        <path d="M19.3316 158.282C19.3756 158.299 19.2545 158.601 19.161 159.102C19.0674 159.603 19.0289 160.313 19.1885 161.073C19.3536 161.832 19.6727 162.465 19.9644 162.883C20.2505 163.302 20.4817 163.533 20.4541 163.566C20.4321 163.588 20.1515 163.417 19.8048 163.005C19.4581 162.597 19.0839 161.937 18.9133 161.133C18.7428 160.33 18.8198 159.57 18.9684 159.058C19.1114 158.541 19.304 158.266 19.3316 158.282Z" fill="#263238"/>
        <path d="M16.0354 164.37C16.0959 164.315 16.6132 164.832 17.3891 165.228C18.165 165.641 18.8803 165.762 18.8693 165.845C18.8693 165.916 18.0879 165.916 17.257 165.481C16.4206 165.052 15.9748 164.408 16.0354 164.37Z" fill="#263238"/>
        <path d="M183.405 200.757C183.405 200.834 145.226 200.9 98.1437 200.9C51.0446 200.9 12.8712 200.834 12.8712 200.757C12.8712 200.68 51.0391 200.614 98.1437 200.614C145.226 200.614 183.405 200.68 183.405 200.757Z" fill="#263238"/>
        <path d="M164.938 174.035C165.015 174.035 165.081 180.012 165.081 187.388C165.081 194.763 165.015 200.741 164.938 200.741C164.86 200.741 164.794 194.763 164.794 187.388C164.794 180.012 164.86 174.035 164.938 174.035Z" fill="#263238"/>
        <path d="M108.418 127.85C108.418 127.85 108.329 127.861 108.153 127.872C107.966 127.877 107.713 127.888 107.383 127.899C106.695 127.921 105.699 127.949 104.422 127.982C101.842 128.042 98.1272 128.125 93.5433 128.235C84.3425 128.422 71.6529 128.675 57.6425 128.956C54.1372 129.039 50.7089 129.028 47.4182 129.248C44.133 129.468 40.9523 129.925 38.1074 130.949C35.2514 131.928 32.7861 133.569 31.0252 135.589C30.1502 136.601 29.4128 137.68 28.857 138.797C28.2627 139.898 27.872 141.032 27.5088 142.116C26.854 144.313 26.5623 146.377 26.3973 148.188C26.2267 150.004 26.2102 151.578 26.1992 152.86C26.1937 154.143 26.2212 155.145 26.2377 155.816C26.2432 156.146 26.2487 156.4 26.2542 156.587C26.2542 156.763 26.2487 156.851 26.2487 156.851C26.2487 156.851 26.2377 156.763 26.2212 156.592C26.2102 156.405 26.1937 156.152 26.1771 155.822C26.1441 155.145 26.1001 154.148 26.0836 152.86C26.0726 151.573 26.0781 149.998 26.2322 148.176C26.3863 146.355 26.6669 144.28 27.3107 142.061C27.6684 140.966 28.0591 139.816 28.6534 138.698C29.2092 137.565 29.9521 136.469 30.8381 135.434C32.6155 133.37 35.1193 131.697 38.0083 130.701C40.8863 129.661 44.089 129.193 47.3907 128.967C50.6979 128.747 54.1262 128.752 57.6315 128.67C71.6474 128.422 84.337 128.197 93.5378 128.031C98.1217 127.965 101.836 127.91 104.422 127.872C105.699 127.861 106.69 127.85 107.383 127.844C107.713 127.844 107.966 127.844 108.153 127.844C108.329 127.844 108.418 127.85 108.418 127.85Z" fill="#263238"/>
        <path d="M65.0934 146.707C65.1044 146.734 64.9118 146.8 64.6257 147.015C64.345 147.224 63.9763 147.615 63.7727 148.21C63.5636 148.787 63.5636 149.613 64.0809 150.257C64.5651 150.896 65.5006 151.347 66.4141 151.138C67.3221 150.912 67.9549 150.086 68.1035 149.299C68.2741 148.49 67.8999 147.758 67.4542 147.334C67.0029 146.9 66.5022 146.718 66.1555 146.657C65.8088 146.597 65.6052 146.619 65.5997 146.597C65.5942 146.586 65.7978 146.52 66.1665 146.547C66.5352 146.575 67.08 146.734 67.5862 147.191C67.8339 147.417 68.0705 147.714 68.2246 148.088C68.3731 148.463 68.4392 148.909 68.3566 149.354C68.208 150.235 67.5202 151.16 66.4746 151.424C65.4236 151.661 64.3946 151.149 63.8663 150.428C63.5911 150.07 63.4481 149.641 63.4151 149.239C63.382 148.837 63.4646 148.463 63.5801 148.149C63.8278 147.516 64.246 147.125 64.5596 146.933C64.8788 146.723 65.0879 146.696 65.0934 146.707Z" fill="#263238"/>
        <path d="M62.7712 160.968C62.7382 160.974 62.5401 160.363 62.353 159.339C62.1769 158.326 62.0173 156.845 62.4411 155.277C62.8703 153.708 63.9048 152.536 64.8128 152.007C65.2695 151.738 65.6767 151.595 65.9629 151.54C66.249 151.479 66.4141 151.479 66.4141 151.495C66.4306 151.556 65.7648 151.611 64.9174 152.178C64.0754 152.728 63.1234 153.857 62.7107 155.354C62.309 156.856 62.4246 158.299 62.5511 159.311C62.6832 160.33 62.8153 160.957 62.7712 160.968Z" fill="#263238"/>
        <path d="M64.7743 138.203C64.8128 138.242 64.3781 138.621 63.9653 139.419C63.5471 140.201 63.2059 141.461 63.5031 142.788C63.8113 144.114 64.6697 145.105 65.3851 145.623C66.106 146.162 66.6617 146.316 66.6397 146.366C66.6342 146.382 66.4912 146.36 66.249 146.283C66.0014 146.206 65.6547 146.052 65.2695 145.793C64.4991 145.292 63.5581 144.274 63.228 142.854C62.9088 141.434 63.3105 140.107 63.7948 139.32C64.0314 138.919 64.279 138.632 64.4661 138.451C64.6477 138.275 64.7633 138.192 64.7743 138.203Z" fill="#263238"/>
        <path d="M64.2735 149.222C64.279 149.31 62.8868 149.349 61.291 149.894C59.6896 150.422 58.556 151.237 58.5065 151.16C58.457 151.11 59.5411 150.169 61.1974 149.619C62.8483 149.063 64.279 149.156 64.2735 149.222Z" fill="#263238"/>
        <g opacity="0.3">
            <g opacity="0.3">
                <path opacity="0.3" d="M46.4938 182.781C51.76 186.854 58.5561 188.901 65.198 188.423C63.8058 194.895 62.4191 201.363 61.0269 207.836C60.6582 209.564 60.3115 211.485 61.2139 212.999C62.4796 215.129 65.4236 215.338 67.8944 215.305C70.6514 215.266 73.5239 215.2 75.9671 213.923C79.4284 212.112 81.2884 208.287 82.6311 204.621C83.9738 200.956 85.1349 197.026 87.8974 194.268C91.0285 197.857 95.3978 200.35 100.086 201.209C101.467 201.462 103.025 201.539 104.131 200.675C105.226 199.816 105.545 198.242 105.264 196.877C104.984 195.512 104.213 194.307 103.459 193.14C100.774 188.973 98.0887 184.806 95.4088 180.645C94.3192 178.956 93.1251 177.172 91.2871 176.369C89.8399 175.736 88.2 175.802 86.6262 175.89C73.4798 176.655 60.4105 178.631 47.6274 181.79" fill="black"/>
            </g>
        </g>
        <g opacity="0.3">
            <g opacity="0.3">
                <path opacity="0.3" d="M89.5317 120.843C86.274 129.451 74.1126 131.427 69.8424 139.579C65.6217 147.643 70.8549 158.315 66.5021 166.307C64.8898 169.268 62.1274 171.475 60.5535 174.453C59.4915 176.462 58.9467 178.845 57.2353 180.337C55.2433 182.076 52.1562 182.043 49.7624 180.921C47.3687 179.798 45.5252 177.783 43.8248 175.763C40.6332 171.976 37.6341 167.881 36.1428 163.153C33.573 155.018 35.9282 145.826 41.0789 139.029C46.2296 132.231 53.8841 127.652 61.9568 124.911C70.0295 122.169 78.5755 121.124 87.0609 120.331" fill="black"/>
            </g>
        </g>
        <path d="M50.4063 98.2045C51.672 96.3221 53.3173 94.6544 55.3424 93.6251C57.3674 92.6014 59.7832 92.2601 61.9403 92.9646C64.0975 93.6691 65.9189 95.4965 66.3536 97.7202C66.7003 99.4815 66.2326 101.457 67.1405 103.004C68.1861 104.787 70.7119 105.354 71.6034 107.22C72.1371 108.349 71.9225 109.714 71.3392 110.814C70.7504 111.915 69.8369 112.796 68.9235 113.644C69.4793 114.034 70.0406 114.442 70.4313 114.998C70.822 115.554 71.0146 116.297 70.7504 116.924C70.4753 117.585 69.7819 117.964 69.1216 118.245C66.073 119.539 62.6227 119.863 59.387 119.159C58.5175 118.972 57.5215 118.735 56.8062 119.263" fill="#263238"/>
        <path d="M72.4343 104.732L70.6569 110.126L82.6917 116.957L70.5963 117.348L71.4988 127.162L94.798 121.443C94.798 121.437 96.1957 111.932 72.4343 104.732L70.7614 104.342C70.1561 104.199 69.6609 103.769 69.4297 103.191C69.2481 102.734 68.9125 102.36 68.4777 102.129L66.4912 101.094L66.5022 102.668L67.5918 103.951L67.4157 106.995C67.3221 108.343 68.2191 109.554 69.5288 109.868L70.6404 110.132" fill="#B78876"/>
        <path d="M46.0811 124.217C45.6023 124.217 41.1615 125.296 38.6192 128.532C36.0824 131.769 32.4009 143.905 32.4009 143.905L41.7668 145.523L45.8059 155.673C45.8059 155.673 69.7159 152.541 68.4447 151.281C67.1736 150.02 64.5652 148.077 64.5652 148.077L70.0791 129.743L76.6935 126.176L74.4704 117.018L61.1644 118.817L46.0811 124.217Z" fill="#FAFAFA"/>
        <path d="M68.94 133.976C68.94 134.053 61.4836 134.119 52.2938 134.119C43.0985 134.119 35.6476 134.053 35.6476 133.976C35.6476 133.899 43.0985 133.833 52.2938 133.833C61.4891 133.833 68.94 133.899 68.94 133.976Z" fill="#E8505B"/>
        <path d="M67.4487 139.364C67.4487 139.441 59.9923 139.507 50.8026 139.507C41.6073 139.507 34.1564 139.441 34.1564 139.364C34.1564 139.287 41.6073 139.221 50.8026 139.221C59.9923 139.221 67.4487 139.287 67.4487 139.364Z" fill="#E8505B"/>
        <path d="M67.4487 145.188C67.4487 145.265 61.8028 145.331 54.8416 145.331C47.875 145.331 42.2291 145.265 42.2291 145.188C42.2291 145.111 47.875 145.045 54.8416 145.045C61.8028 145.045 67.4487 145.105 67.4487 145.188Z" fill="#E8505B"/>
        <path d="M69.3857 150.791C69.3857 150.868 63.7398 150.934 56.7787 150.934C49.812 150.934 44.1661 150.868 44.1661 150.791C44.1661 150.714 49.812 150.648 56.7787 150.648C63.7398 150.648 69.3857 150.714 69.3857 150.791Z" fill="#E8505B"/>
        <path d="M75.3508 126.732C75.3508 126.809 71.6198 126.876 67.0195 126.876C62.4191 126.876 58.6881 126.809 58.6881 126.732C58.6881 126.655 62.4191 126.589 67.0195 126.589C71.6254 126.589 75.3508 126.65 75.3508 126.732Z" fill="#E8505B"/>
        <path d="M75.9562 121.019C75.9562 121.096 72.2417 121.25 67.6578 121.355C63.0739 121.459 59.354 121.487 59.354 121.404C59.354 121.327 63.0684 121.173 67.6523 121.069C72.2362 120.959 75.9562 120.937 75.9562 121.019Z" fill="#E8505B"/>
        <path d="M43.7093 136.777C43.7864 136.794 43.3847 138.814 42.8179 141.28C42.2456 143.751 41.7228 145.738 41.6458 145.716C41.5687 145.7 41.9704 143.685 42.5427 141.214C43.104 138.742 43.6323 136.755 43.7093 136.777Z" fill="#263238"/>
        <path d="M69.7324 205.496L62.7657 227.48L71.1686 228.322L79.0542 209.228L69.7324 205.496Z" fill="#B78876"/>
        <path d="M75.8791 219.769L71.8785 229.693C71.8785 229.693 80.6226 237.096 80.0613 239L60.5426 231.933L66.1445 216.213L75.8791 219.769Z" fill="#455A64"/>
        <path d="M66.15 226.665C65.7373 226.632 65.3191 226.962 65.2696 227.375C65.2201 227.788 65.5502 228.212 65.9629 228.256C66.3757 228.294 66.8874 227.915 66.8929 227.496C66.8984 227.078 66.4802 226.605 66.0675 226.66" fill="#E0E0E0"/>
        <path d="M60.5426 231.933L61.1699 230.37L79.6486 237.734C79.6486 237.734 80.3804 238.428 80.0613 239.006L60.5426 231.933Z" fill="#E0E0E0"/>
        <path d="M72.2307 229.709C72.1922 229.803 71.7024 229.676 71.1191 229.808C70.5358 229.929 70.1451 230.254 70.0681 230.188C69.9856 230.138 70.3377 229.621 71.0421 229.467C71.7465 229.307 72.2857 229.632 72.2307 229.709Z" fill="#263238"/>
        <path d="M73.9696 231.3C73.9586 231.399 73.4853 231.41 73.0176 231.696C72.5388 231.966 72.3022 232.373 72.2087 232.334C72.1151 232.318 72.2472 231.735 72.8415 231.388C73.4248 231.047 74.0026 231.206 73.9696 231.3Z" fill="#263238"/>
        <path d="M74.2447 234.173C74.1512 234.162 74.1897 233.639 74.6244 233.204C75.0537 232.769 75.5764 232.725 75.5929 232.819C75.6205 232.918 75.2298 233.094 74.8776 233.452C74.5199 233.804 74.3438 234.195 74.2447 234.173Z" fill="#263238"/>
        <path d="M72.891 227.348C72.8195 227.419 72.4288 227.128 71.8785 226.973C71.3282 226.803 70.8439 226.83 70.8274 226.731C70.7999 226.643 71.3337 226.44 71.983 226.632C72.6269 226.825 72.9681 227.287 72.891 227.348Z" fill="#263238"/>
        <path d="M73.6614 225.328C73.6504 225.366 73.2487 225.289 72.6874 224.97C72.4068 224.81 72.0876 224.585 71.7795 224.287C71.6254 224.139 71.4713 223.968 71.3282 223.787C71.2567 223.699 71.1741 223.599 71.1136 223.451C71.0421 223.313 71.0751 223.038 71.2512 222.928C71.4053 222.812 71.6034 222.812 71.7464 222.862C71.8895 222.911 71.9996 222.983 72.0931 223.044C72.2912 223.176 72.4673 223.319 72.6269 223.473C72.9406 223.776 73.1662 224.1 73.3148 224.392C73.6174 224.975 73.6394 225.388 73.6009 225.394C73.5459 225.41 73.4358 225.031 73.1001 224.519C72.9351 224.265 72.7039 223.979 72.4068 223.71C72.2582 223.577 72.0931 223.451 71.906 223.335C71.7189 223.209 71.5428 223.143 71.4548 223.214C71.4218 223.242 71.4163 223.253 71.4383 223.33C71.4603 223.401 71.5263 223.489 71.5924 223.577C71.7244 223.754 71.862 223.913 71.9996 224.062C72.2802 224.354 72.5609 224.585 72.814 224.766C73.3258 225.119 73.6835 225.278 73.6614 225.328Z" fill="#263238"/>
        <path d="M73.4908 225.421C73.4523 225.421 73.3863 225.014 73.5734 224.381C73.6669 224.067 73.832 223.71 74.0962 223.357C74.2282 223.181 74.3823 223.011 74.5584 222.856C74.74 222.702 74.9766 222.499 75.3618 222.587C75.5599 222.647 75.6645 222.856 75.67 223.005C75.6865 223.159 75.659 223.28 75.6425 223.401C75.5984 223.644 75.5104 223.864 75.4058 224.062C75.1967 224.453 74.8996 224.739 74.6244 224.92C74.0576 225.289 73.6229 225.256 73.6229 225.223C73.6064 225.163 74.0081 225.102 74.4759 224.722C74.707 224.535 74.9491 224.265 75.1197 223.913C75.2022 223.737 75.2683 223.544 75.3068 223.341C75.3508 223.121 75.3343 222.928 75.2463 222.922C75.1472 222.884 74.9271 222.983 74.7895 223.121C74.6244 223.258 74.4814 223.407 74.3548 223.561C74.1072 223.869 73.9311 224.188 73.81 224.469C73.5734 225.031 73.5459 225.427 73.4908 225.421Z" fill="#263238"/>
        <path d="M96.1737 184.806L106.574 202.887L115.082 197.427L104.637 179.071L96.1737 184.806Z" fill="#B78876"/>
        <path d="M112.148 192.264L117.519 201.517C117.519 201.517 128.729 199.161 129.89 200.779L112.325 211.843L103.36 197.769L112.148 192.264Z" fill="#455A64"/>
        <path d="M111.609 204.175C111.329 204.484 111.334 205.012 111.631 205.309C111.928 205.601 112.468 205.601 112.754 205.298C113.04 204.996 113.051 204.357 112.726 204.098C112.402 203.84 111.769 203.878 111.56 204.236" fill="#E0E0E0"/>
        <path d="M112.319 211.837L111.472 210.384L128.63 200.323C128.63 200.323 129.626 200.168 129.884 200.779L112.319 211.837Z" fill="#E0E0E0"/>
        <path d="M117.745 201.247C117.794 201.335 117.393 201.644 117.145 202.183C116.881 202.717 116.897 203.229 116.798 203.24C116.71 203.273 116.512 202.678 116.826 202.029C117.134 201.379 117.717 201.159 117.745 201.247Z" fill="#263238"/>
        <path d="M120.067 200.851C120.139 200.922 119.858 201.302 119.797 201.847C119.72 202.392 119.891 202.832 119.803 202.882C119.731 202.948 119.357 202.48 119.445 201.803C119.533 201.121 120.018 200.768 120.067 200.851Z" fill="#263238"/>
        <path d="M122.505 202.398C122.439 202.464 122.048 202.111 121.971 201.5C121.889 200.889 122.18 200.455 122.263 200.499C122.356 200.537 122.252 200.956 122.323 201.451C122.378 201.957 122.582 202.337 122.505 202.398Z" fill="#263238"/>
        <path d="M116.287 199.277C116.298 199.376 115.83 199.508 115.368 199.844C114.894 200.174 114.619 200.57 114.531 200.526C114.443 200.493 114.608 199.948 115.164 199.557C115.714 199.161 116.287 199.183 116.287 199.277Z" fill="#263238"/>
        <path d="M115.17 197.427C115.192 197.46 114.889 197.73 114.289 197.978C113.992 198.099 113.618 198.214 113.189 198.275C112.974 198.308 112.748 198.325 112.517 198.325C112.402 198.325 112.275 198.33 112.121 198.286C111.972 198.258 111.774 198.06 111.796 197.857C111.802 197.664 111.923 197.504 112.049 197.422C112.176 197.334 112.297 197.295 112.407 197.262C112.633 197.185 112.858 197.136 113.073 197.108C113.502 197.048 113.898 197.07 114.218 197.13C114.861 197.251 115.203 197.482 115.186 197.521C115.164 197.576 114.795 197.427 114.185 197.378C113.882 197.35 113.513 197.361 113.122 197.427C112.924 197.466 112.721 197.515 112.517 197.587C112.303 197.653 112.143 197.752 112.143 197.868C112.143 197.912 112.148 197.923 112.226 197.956C112.297 197.983 112.402 197.983 112.517 197.983C112.737 197.989 112.946 197.978 113.15 197.956C113.552 197.917 113.909 197.835 114.207 197.747C114.795 197.565 115.142 197.378 115.17 197.427Z" fill="#263238"/>
        <path d="M115.137 197.62C115.115 197.653 114.751 197.449 114.372 196.915C114.185 196.651 114.003 196.299 113.887 195.875C113.832 195.666 113.788 195.44 113.777 195.198C113.772 194.962 113.75 194.648 114.058 194.4C114.229 194.285 114.46 194.329 114.581 194.417C114.713 194.499 114.79 194.593 114.872 194.681C115.032 194.868 115.159 195.072 115.247 195.275C115.428 195.683 115.472 196.09 115.445 196.42C115.39 197.092 115.093 197.422 115.071 197.394C115.015 197.367 115.208 197.015 115.197 196.415C115.192 196.117 115.126 195.76 114.955 195.413C114.872 195.237 114.757 195.066 114.619 194.912C114.476 194.741 114.311 194.637 114.251 194.697C114.163 194.752 114.102 194.984 114.124 195.182C114.135 195.396 114.163 195.6 114.207 195.798C114.295 196.183 114.438 196.519 114.586 196.783C114.878 197.317 115.175 197.576 115.137 197.62Z" fill="#263238"/>
        <path d="M65.22 182.258L85.6412 168.366L98.5234 193.448L110.239 187.107C110.239 187.107 96.7515 154.209 91.9089 153.147C89.196 152.552 58.0828 158.497 58.0828 158.497L54.605 156.746L45.8059 155.673L45.2446 157.099C42.1355 164.97 42.4932 173.787 46.2241 181.383L46.6533 182.252H65.22V182.258Z" fill="#263238"/>
        <path d="M58.0498 164.887C58.2038 165.575 75.0866 181.388 75.0866 181.388L65.3466 214.132L79.8851 216.912L94.4842 177.469L67.8008 151.286L55.6175 156.416L58.0498 164.887Z" fill="#263238"/>
        <path d="M85.6411 168.366C85.6852 168.432 81.1508 171.597 75.5104 175.427C69.8699 179.264 65.264 182.319 65.22 182.253C65.176 182.186 69.7103 179.027 75.3508 175.191C80.9857 171.36 85.5971 168.3 85.6411 168.366Z" fill="#455A64"/>
        <path d="M96.1241 188.78C96.1076 188.791 95.9315 188.522 95.6288 188.021C95.3262 187.525 94.908 186.799 94.3962 185.891C93.3782 184.08 92.0245 181.548 90.5937 178.719C89.1575 175.89 87.9028 173.314 87.0169 171.431C86.5711 170.49 86.2189 169.731 85.9823 169.197C85.7457 168.668 85.6246 168.366 85.6411 168.36C85.6576 168.349 85.8117 168.635 86.0814 169.147C86.3675 169.709 86.7417 170.446 87.1929 171.338C88.1504 173.237 89.4326 175.774 90.8469 178.581C92.2776 181.405 93.6038 183.948 94.5723 185.786C95.04 186.667 95.4307 187.399 95.7279 187.955C95.9975 188.478 96.1406 188.769 96.1241 188.78Z" fill="#455A64"/>
        <path d="M78.1353 175.537C78.2068 175.576 77.5079 177.145 76.5725 179.044C75.637 180.943 74.8225 182.462 74.751 182.429C74.6795 182.396 75.3783 180.827 76.3138 178.923C77.2493 177.018 78.0637 175.504 78.1353 175.537Z" fill="#455A64"/>
        <path d="M32.4009 143.911L29.1212 156.108C28.6975 157.688 28.8901 159.366 29.666 160.803C31.0362 163.34 33.9307 164.656 36.7427 164.001L62.9088 157.556L60.1739 152.123L39.5602 153.912L41.7668 145.529L32.4009 143.911Z" fill="#B78876"/>
        <path d="M44.0065 162.427L44.3476 160.654L58.5285 158.106L62.6502 136.238L88.9869 133.101L84.5626 156.444L44.0065 162.427Z" fill="#455A64"/>
        <path d="M74.4758 148.011C73.788 147.879 73.3478 147.125 73.5018 146.327C73.6559 145.529 74.3383 144.995 75.0316 145.127C75.7195 145.259 76.1597 146.013 76.0056 146.811C75.8516 147.604 75.1637 148.143 74.4758 148.011Z" fill="#EBEBEB"/>
        <path d="M47.864 99.7127L47.9135 101.292L48.5078 124.966C48.5794 127.712 50.9951 129.842 53.9337 129.749C56.9052 129.65 59.2935 127.321 59.266 124.547C59.2384 121.63 59.266 118.564 59.266 118.564C59.266 118.564 63.0134 117.898 63.7343 112.989C64.092 110.55 63.9214 106.554 63.6793 103.29C63.4591 100.351 60.8453 98.188 57.9178 98.5348L47.864 99.7127Z" fill="#B78876"/>
        <path d="M61.7808 106.015C61.7973 106.345 61.5276 106.631 61.181 106.653C60.8343 106.675 60.5426 106.428 60.5261 106.092C60.5096 105.762 60.7792 105.475 61.1259 105.448C61.4726 105.437 61.7698 105.685 61.7808 106.015Z" fill="#263238"/>
        <path d="M62.8373 105.376C62.7603 105.459 62.2815 105.112 61.6047 105.123C60.9278 105.123 60.4381 105.475 60.361 105.393C60.3225 105.354 60.3996 105.206 60.6142 105.046C60.8233 104.887 61.1865 104.732 61.6047 104.727C62.0284 104.727 62.3806 104.876 62.5897 105.03C62.8043 105.189 62.8758 105.338 62.8373 105.376Z" fill="#263238"/>
        <path d="M55.1113 106.263C55.1278 106.593 54.8582 106.879 54.5115 106.901C54.1648 106.923 53.8732 106.675 53.8567 106.34C53.8402 106.009 54.1098 105.723 54.4565 105.696C54.8032 105.679 55.0948 105.927 55.1113 106.263Z" fill="#263238"/>
        <path d="M56.1954 105.58C56.1183 105.663 55.6396 105.316 54.9627 105.327C54.2859 105.327 53.7961 105.679 53.7191 105.597C53.6805 105.558 53.7576 105.409 53.9722 105.25C54.1813 105.09 54.5445 104.936 54.9627 104.931C55.3864 104.931 55.7386 105.079 55.9477 105.233C56.1623 105.393 56.2339 105.542 56.1954 105.58Z" fill="#263238"/>
        <path d="M58.7047 110.567C58.6992 110.528 59.1229 110.451 59.7997 110.358C59.9703 110.336 60.1354 110.303 60.1629 110.182C60.2014 110.055 60.1299 109.873 60.0419 109.67C59.8768 109.251 59.7007 108.816 59.5136 108.36C58.7817 106.494 58.2534 104.964 58.325 104.936C58.402 104.909 59.0513 106.395 59.7832 108.261C59.9593 108.717 60.1299 109.158 60.2895 109.576C60.3555 109.774 60.4711 109.994 60.3885 110.253C60.3445 110.385 60.218 110.479 60.1079 110.506C59.9978 110.539 59.8988 110.545 59.8162 110.55C59.1339 110.594 58.7102 110.605 58.7047 110.567Z" fill="#263238"/>
        <path d="M59.2659 118.559C59.2659 118.559 55.9752 118.812 52.6845 116.886C52.6845 116.886 54.3134 120.232 59.2109 119.715L59.2659 118.559Z" fill="#AA6550"/>
        <path d="M56.465 104.468C56.3879 104.65 55.7221 104.529 54.9242 104.589C54.1263 104.633 53.4769 104.837 53.3779 104.666C53.3339 104.584 53.4549 104.419 53.7191 104.254C53.9832 104.088 54.4014 103.94 54.8802 103.907C55.3589 103.879 55.7881 103.973 56.0743 104.105C56.3604 104.226 56.498 104.38 56.465 104.468Z" fill="#263238"/>
        <path d="M62.5567 103.032C62.4411 103.186 61.9734 103.032 61.4121 103.032C60.8508 103.01 60.3776 103.147 60.2675 102.988C60.218 102.911 60.2895 102.756 60.4986 102.608C60.7022 102.459 61.0434 102.338 61.4286 102.344C61.8138 102.349 62.1495 102.487 62.3476 102.641C62.5402 102.795 62.6062 102.955 62.5567 103.032Z" fill="#263238"/>
        <path d="M58.6331 113.011C58.4405 113.066 58.2369 113 58.0443 112.95C57.8517 112.895 57.6701 112.846 57.516 112.796C57.362 112.746 57.1859 112.675 56.9988 112.609C56.8172 112.532 56.6081 112.466 56.4925 112.306C56.3769 112.152 56.399 111.888 56.6631 111.651C56.9162 111.42 57.428 111.255 57.9673 111.436C58.5065 111.618 58.8202 112.053 58.8807 112.389C58.9578 112.735 58.8202 112.961 58.6331 113.011Z" fill="#AA6550"/>
        <path d="M58.7267 112.956C58.6606 113 58.3304 112.328 57.5435 112.124C56.7511 111.921 56.1403 112.356 56.1073 112.284C56.0853 112.257 56.1953 112.102 56.465 111.965C56.7291 111.827 57.1583 111.728 57.6151 111.844C58.0718 111.959 58.402 112.257 58.5671 112.504C58.7322 112.752 58.7597 112.939 58.7267 112.956Z" fill="#263238"/>
        <path d="M53.5264 96.5203C55.0948 98.854 54.6931 102.3 52.6405 104.215C51.4684 105.305 49.724 106.158 49.6084 107.754C49.4763 109.521 51.5234 110.842 51.5289 112.62C51.5344 114.442 49.4268 115.603 49.0196 117.381C48.6894 118.812 49.5424 120.243 50.5329 121.327C51.5234 122.412 52.712 123.369 53.3063 124.712C53.9612 126.193 53.7741 127.938 53.1412 129.429C52.5029 130.916 51.4574 132.187 50.3733 133.392C48.9095 132.87 47.3852 132.528 45.8389 132.385C45.938 131.802 46.0315 131.218 46.1306 130.629C46.1636 131.312 45.5913 131.901 44.9475 132.115C44.3036 132.33 43.5993 132.248 42.9224 132.143C40.8588 131.818 38.8283 131.295 36.8693 130.585C37.7057 129.743 38.5586 128.885 39.0814 127.822C39.6042 126.754 39.7418 125.428 39.1419 124.41C38.6577 123.59 37.7662 123.061 37.3205 122.214C36.6547 120.948 37.2049 119.34 38.1514 118.267C39.0979 117.194 40.3856 116.495 41.5082 115.614C42.6363 114.733 43.6708 113.545 43.7644 112.113C43.8799 110.259 42.3831 108.574 42.5702 106.725C42.7793 104.622 45.0025 103.334 45.8775 101.413C46.5103 100.021 46.4222 98.3036 47.3962 97.1202C48.1116 96.2451 49.3057 95.8488 50.4393 95.9093C51.5674 95.9699 52.646 96.4322 53.609 97.0267" fill="#263238"/>
        <path d="M59.6787 119.087C58.7927 119.577 58.8477 120.92 59.3815 121.773C59.9208 122.626 60.7847 123.237 61.3185 124.096C62.2705 125.632 61.8578 127.855 60.4215 128.945L62.5346 129.743L62.9969 129.484L64.2956 128.752L63.6847 130.25H65.0385C66.4637 130.266 67.8614 129.424 68.5163 128.163C69.1711 126.898 69.05 125.274 68.2191 124.118C67.6633 123.347 66.7994 122.736 66.6123 121.801C66.3867 120.678 67.2341 119.66 67.6523 118.592C68.3457 116.808 67.7128 114.596 66.1775 113.456" fill="#263238"/>
        <path d="M17.9779 74.5423C18.2255 74.6634 18.3961 74.9111 18.3961 75.2083V78.8741C18.3961 79.1053 18.2861 79.3199 18.1045 79.463C17.9229 79.6006 17.6808 79.6447 17.4607 79.5841C16.8773 79.419 16.2225 79.5181 15.6667 79.8593C15.1549 80.173 14.7973 80.6464 14.6872 81.1693C14.5771 81.6867 14.7147 82.2701 15.0614 82.771C15.4301 83.3049 15.9969 83.6792 16.5747 83.7727C17.7578 83.9599 19.073 83.1067 19.4582 81.9068C19.5793 81.5216 19.9975 81.3069 20.3827 81.428C20.7789 81.5546 20.9825 81.9674 20.8614 82.3527C20.2616 84.2351 18.2366 85.5231 16.3436 85.2258C15.3641 85.0717 14.4561 84.4773 13.8508 83.6076C13.2785 82.7765 13.0584 81.7803 13.2455 80.8721C13.4381 79.9529 14.0379 79.1273 14.9018 78.6044C15.5236 78.2246 16.228 78.0319 16.9214 78.0375V75.2138C16.9214 74.8065 17.2515 74.4763 17.6588 74.4763C17.7743 74.4708 17.8844 74.4983 17.9779 74.5423Z" fill="#FF2442"/>
        <path d="M16.9654 73.0012C16.9544 72.6709 17.2186 72.3902 17.5542 72.3847C17.8844 72.3737 18.165 72.6379 18.1705 72.9737C18.1816 73.3039 17.9174 73.5846 17.5817 73.5901C17.2516 73.6011 16.9709 73.3369 16.9654 73.0012Z" fill="#FF2442"/>
        <path d="M34.9212 92.6289C34.9267 92.6454 34.7396 92.6564 34.4369 92.783C34.1398 92.9041 33.7271 93.1683 33.4134 93.6582C33.2593 93.9003 33.1383 94.1976 33.0997 94.5333C33.0667 94.8636 33.1107 95.2323 33.2813 95.5681C33.606 96.2396 34.3764 96.8175 35.2514 96.7735C36.1263 96.713 36.8252 96.0469 37.0673 95.3424C37.1994 94.9902 37.2049 94.6159 37.1278 94.2911C37.0508 93.9664 36.8912 93.6857 36.7096 93.46C36.3464 93.0087 35.9007 92.794 35.5925 92.7114C35.2789 92.6234 35.0918 92.6344 35.0918 92.6179C35.0918 92.6124 35.1358 92.6069 35.2238 92.6069C35.2679 92.6014 35.3229 92.6069 35.3834 92.6179C35.4495 92.6234 35.521 92.6344 35.6035 92.6564C35.9282 92.728 36.396 92.9316 36.7922 93.394C36.9848 93.6251 37.1609 93.9168 37.2489 94.2636C37.337 94.6104 37.3314 95.0122 37.1994 95.392C37.0728 95.7717 36.8252 96.1405 36.4895 96.4212C36.1593 96.7074 35.7246 96.9001 35.2514 96.9331C34.7836 96.9551 34.3269 96.812 33.9637 96.5698C33.595 96.3332 33.3088 95.9974 33.1383 95.6341C32.9567 95.2709 32.9126 94.8746 32.9567 94.5223C33.0062 94.1645 33.1438 93.8563 33.3088 93.6031C33.6445 93.0967 34.0903 92.838 34.4039 92.728C34.481 92.6949 34.5525 92.6784 34.6185 92.6674C34.6791 92.6509 34.7341 92.6399 34.7781 92.6399C34.8717 92.6289 34.9157 92.6234 34.9212 92.6289Z" fill="#263238"/>
        <path d="M40.27 97.9569C40.27 97.9734 40.1544 97.9844 39.9673 98.0615C39.7857 98.1385 39.5271 98.3091 39.34 98.6119C39.1474 98.9091 39.0484 99.3714 39.263 99.7898C39.4611 100.203 39.9398 100.56 40.4791 100.533C41.0129 100.494 41.4476 100.087 41.5962 99.6522C41.7613 99.2063 41.6072 98.7605 41.3816 98.4908C41.156 98.2101 40.8808 98.0725 40.6937 98.0174C40.5011 97.9624 40.3801 97.9624 40.3801 97.9459C40.3801 97.9404 40.4956 97.9128 40.7047 97.9569C40.9083 97.9954 41.211 98.1275 41.4641 98.4192C41.5907 98.5623 41.7007 98.7495 41.7613 98.9751C41.8163 99.1953 41.8163 99.454 41.7338 99.7017C41.5742 100.186 41.1009 100.648 40.4846 100.692C39.8683 100.72 39.3455 100.318 39.1309 99.8558C39.0153 99.6246 38.9878 99.3659 39.0153 99.1403C39.0484 98.9146 39.1364 98.7164 39.241 98.5568C39.4611 98.2376 39.7417 98.0725 39.9398 98.0064C40.1544 97.9349 40.27 97.9459 40.27 97.9569Z" fill="#263238"/>
        <path d="M34.0298 81.7197C34.0298 81.7197 34.0243 81.6261 34.0298 81.4445C34.0353 81.2574 34.0353 80.9877 34.0463 80.6354C34.0518 80.4593 34.0518 80.2611 34.0573 80.0409C34.0518 79.8208 34.0243 79.5841 34.0077 79.3254C33.9857 79.0667 33.9637 78.786 33.9417 78.4888C33.9362 78.3402 33.9142 78.1861 33.8812 78.0319C33.8537 77.8778 33.8261 77.7127 33.7931 77.5476C33.6005 76.2156 33.1053 74.6139 32.2688 72.8966C31.4214 71.1848 30.1502 69.363 28.3453 67.7613C28.1197 67.5631 27.8886 67.365 27.6574 67.1613C27.4153 66.9742 27.1567 66.798 26.9035 66.6109C26.777 66.5173 26.6449 66.4293 26.5183 66.3357C26.3918 66.2421 26.2597 66.1485 26.1166 66.0715C25.836 65.9119 25.5553 65.7467 25.2747 65.5816C25.1316 65.4991 24.9885 65.4165 24.8455 65.3339C24.6969 65.2624 24.5428 65.1963 24.3887 65.1248C24.0861 64.9872 23.7779 64.8441 23.4642 64.7065C23.1506 64.5744 22.8149 64.4808 22.4902 64.3597C22.3252 64.3047 22.1601 64.2496 21.995 64.1891C21.9124 64.1616 21.8299 64.1285 21.7474 64.1065L21.4887 64.046C20.8009 63.8919 20.102 63.6937 19.3701 63.6332C19.0069 63.5946 18.6437 63.5286 18.275 63.5066C17.9063 63.4956 17.5322 63.4846 17.1525 63.479C16.9654 63.479 16.7728 63.4625 16.5857 63.4735C16.3986 63.4901 16.206 63.5011 16.0134 63.5176C15.6337 63.5506 15.2485 63.5671 14.8633 63.6111C14.1039 63.7543 13.317 63.8478 12.5576 64.0955C12.365 64.1505 12.1724 64.2056 11.9798 64.2551C11.8862 64.2826 11.7872 64.3047 11.6936 64.3377L11.413 64.4478C11.0388 64.5964 10.6591 64.7395 10.2794 64.8881C9.90518 65.0532 9.54749 65.2514 9.1788 65.433C8.99721 65.5321 8.80461 65.6091 8.63402 65.7192L8.10574 66.0495C7.38487 66.4678 6.73553 67.0072 6.06418 67.5301C5.75602 67.8218 5.44235 68.1135 5.13419 68.4107L4.89757 68.6309C4.82603 68.708 4.75449 68.7905 4.68296 68.8731L4.25373 69.3574L3.82451 69.8473L3.43931 70.3757L3.05411 70.9096L2.86151 71.1793C2.80098 71.2729 2.75145 71.3664 2.69642 71.4655C2.47631 71.8453 2.25069 72.2306 2.03057 72.6104C1.84348 73.0122 1.66188 73.4195 1.47478 73.8268C0.792428 75.478 0.357701 77.2559 0.187113 79.0832C0.0660494 80.9161 0.225633 82.7435 0.643851 84.4773C0.764914 84.9066 0.885977 85.3359 1.00154 85.7652C1.16112 86.178 1.3207 86.5908 1.48029 86.9982L1.60135 87.3064L1.74993 87.5981L2.04708 88.1815L2.34424 88.765L2.69092 89.3154L3.0376 89.8603L3.21369 90.13L3.41179 90.3832C3.67593 90.7244 3.93457 91.0602 4.1987 91.396C4.78201 92.0124 5.3378 92.6509 5.98714 93.1738L6.45488 93.5866C6.60896 93.7242 6.78505 93.8343 6.95014 93.9554C7.28581 94.192 7.61048 94.4452 7.95166 94.6654C8.30384 94.8691 8.65603 95.0727 9.00271 95.2764L9.26134 95.4305C9.34939 95.4745 9.44294 95.513 9.53098 95.5571C9.71258 95.6396 9.89417 95.7222 10.0758 95.8047C10.7856 96.168 11.545 96.3827 12.2769 96.6414C12.6511 96.7515 13.0253 96.823 13.3995 96.9166C13.5866 96.9606 13.7737 97.0047 13.9553 97.0487C14.1424 97.0872 14.3295 97.1037 14.5166 97.1312C14.8908 97.1808 15.2595 97.2303 15.6282 97.2743C15.9969 97.3074 16.3655 97.3019 16.7342 97.3184C17.4661 97.3734 18.1815 97.2799 18.8914 97.2358L19.1555 97.2193C19.2435 97.2083 19.3316 97.1918 19.4141 97.1753C19.5847 97.1478 19.7608 97.1147 19.9314 97.0872C20.2726 97.0212 20.6138 96.9771 20.9494 96.9001C21.2796 96.8065 21.6043 96.7184 21.9289 96.6249C22.0885 96.5808 22.2536 96.5368 22.4132 96.4928C22.5673 96.4322 22.7214 96.3772 22.8754 96.3166C23.1836 96.1955 23.4863 96.08 23.7834 95.9644C23.9375 95.9093 24.0806 95.8378 24.2181 95.7662C24.3612 95.6947 24.5043 95.6231 24.6419 95.5516C24.9225 95.4085 25.2032 95.2764 25.4728 95.1277C25.7314 94.9626 25.9901 94.803 26.2432 94.6379C28.2738 93.3334 29.8146 91.7372 30.9151 90.174C31.0527 89.9814 31.1958 89.7887 31.3278 89.6016C31.4434 89.4035 31.559 89.2053 31.669 89.0127C31.7791 88.82 31.8891 88.6329 31.9992 88.4457C32.0542 88.3522 32.1093 88.2641 32.1588 88.1705C32.2028 88.077 32.2468 87.9834 32.2908 87.8898C32.4614 87.5155 32.6265 87.1633 32.7806 86.822C32.9292 86.4808 33.0282 86.134 33.1438 85.8203C33.1988 85.6607 33.2539 85.5065 33.3034 85.3579C33.3584 85.2093 33.4079 85.0607 33.4354 84.9121C33.507 84.6204 33.5675 84.3507 33.628 84.0975C33.6831 83.8443 33.7491 83.6131 33.7876 83.3985C33.8151 83.1838 33.8427 82.9856 33.8702 82.8095C33.9197 82.4628 33.9582 82.1931 33.9802 82.0059C34.0132 81.8133 34.0298 81.7197 34.0298 81.7197C34.0298 81.7197 34.0243 81.8133 34.0022 81.9949C33.9802 82.1821 33.9472 82.4462 33.9087 82.7985C33.8867 82.9746 33.8647 83.1728 33.8372 83.393C33.7986 83.6076 33.7381 83.8443 33.6831 84.0975C33.6225 84.3507 33.562 84.6259 33.496 84.9176C33.4685 85.0662 33.4244 85.2148 33.3694 85.3634C33.3199 85.512 33.2649 85.6717 33.2098 85.8313C33.0943 86.1505 33.0007 86.4973 32.8521 86.844C32.6981 87.1853 32.533 87.5431 32.3624 87.9229C32.3184 88.0164 32.2743 88.11 32.2358 88.2091C32.1918 88.3026 32.1313 88.3907 32.0817 88.4898C31.9717 88.6769 31.8671 88.8641 31.7516 89.0567C31.6415 89.2493 31.526 89.4475 31.4104 89.6511C31.2783 89.8438 31.1408 90.0309 30.9977 90.2291C29.8971 91.8032 28.3563 93.416 26.3147 94.7369C26.0561 94.9021 25.7975 95.0617 25.5388 95.2323C25.2692 95.3809 24.983 95.5185 24.7024 95.6616C24.5593 95.7332 24.4162 95.8048 24.2732 95.8763C24.1301 95.9479 23.987 96.0249 23.8329 96.08C23.5303 96.1955 23.2276 96.3166 22.9195 96.4377C22.7654 96.4983 22.6113 96.5588 22.4517 96.6194C22.2921 96.6634 22.1271 96.7074 21.9675 96.757C21.6428 96.8505 21.3126 96.9386 20.9825 97.0322C20.6468 97.1147 20.3056 97.1588 19.9589 97.2248C19.7883 97.2578 19.6122 97.2854 19.4417 97.3184C19.3536 97.3349 19.2656 97.3514 19.1775 97.3624L18.9134 97.3844C18.2035 97.4285 17.4771 97.522 16.7397 97.4725C16.371 97.456 15.9969 97.467 15.6282 97.4285C15.2595 97.3789 14.8853 97.3349 14.5056 97.2854C14.3185 97.2578 14.1259 97.2468 13.9388 97.2028C13.7517 97.1588 13.5646 97.1147 13.3775 97.0707C13.0033 96.9771 12.6236 96.9056 12.2439 96.7955C11.5065 96.5313 10.7416 96.3221 10.0262 95.9534C9.84465 95.8708 9.66305 95.7882 9.47596 95.7002C9.38241 95.6561 9.28886 95.6176 9.20081 95.5736L8.93667 95.4195C8.58449 95.2158 8.23231 95.0122 7.87462 94.803C7.52794 94.5828 7.20327 94.3241 6.86209 94.0875C6.69701 93.9609 6.51541 93.8508 6.36133 93.7132L5.88808 93.3004C5.23324 92.772 4.67195 92.128 4.08314 91.506C3.81901 91.1648 3.55487 90.829 3.29073 90.4878L3.09263 90.2291L2.91654 89.9539L2.56435 89.4035L2.21217 88.8475L1.91501 88.2586L1.61786 87.6697L1.46928 87.3724L1.34822 87.0642C1.18863 86.6514 1.02355 86.2331 0.863965 85.8148C0.742902 85.3855 0.621839 84.9506 0.500776 84.5158C0.0770552 82.76 -0.0770252 80.9216 0.0440379 79.0722C0.214627 77.2283 0.654856 75.434 1.34272 73.7663C1.52981 73.3589 1.71691 72.9461 1.90401 72.5388C2.12963 72.1535 2.35524 71.7683 2.57536 71.383C2.63039 71.2894 2.68541 71.1903 2.74595 71.0967L2.93855 70.827L3.32375 70.2876L3.70895 69.7537L4.14368 69.2584L4.5729 68.7685C4.64444 68.6859 4.71597 68.6034 4.78751 68.5263L5.02413 68.3062C5.3378 68.0089 5.65146 67.7172 5.96513 67.42C6.64198 66.8971 7.29682 66.3522 8.0287 65.9284L8.56248 65.5926C8.73857 65.4825 8.93117 65.4 9.11277 65.3009C9.48696 65.1193 9.85015 64.9156 10.2243 64.7505C10.6095 64.6019 10.9892 64.4533 11.3689 64.3047L11.6551 64.1946C11.7486 64.1616 11.8477 64.1395 11.9467 64.112C12.1393 64.057 12.3374 64.0019 12.53 63.9469C13.2949 63.6992 14.0874 63.6056 14.8523 63.4625C15.2375 63.413 15.6282 63.402 16.0134 63.369C16.206 63.3524 16.3986 63.3414 16.5857 63.3249C16.7783 63.3139 16.9654 63.3304 17.158 63.3359C17.5377 63.3469 17.9174 63.358 18.2916 63.369C18.6657 63.391 19.0289 63.457 19.3976 63.5011C20.135 63.5671 20.8339 63.7653 21.5272 63.9249L21.7859 63.9854C21.8739 64.0074 21.9565 64.0405 22.039 64.068C22.2041 64.123 22.3747 64.1836 22.5398 64.2386C22.8699 64.3597 23.2056 64.4533 23.5193 64.5854C23.8329 64.7285 24.1411 64.8716 24.4493 65.0092C24.6033 65.0807 24.7574 65.1523 24.906 65.2183C25.0546 65.3009 25.1921 65.3835 25.3407 65.466C25.6269 65.6312 25.9075 65.7963 26.1882 65.9614C26.3312 66.0385 26.4633 66.132 26.5899 66.2311C26.7219 66.3247 26.8485 66.4182 26.9806 66.5118C27.2337 66.699 27.4979 66.8751 27.74 67.0677C27.9711 67.2714 28.2022 67.475 28.4333 67.6732C30.2438 69.2914 31.5149 71.1243 32.3624 72.8526C33.1988 74.5864 33.6831 76.1936 33.8647 77.5311C33.8922 77.6962 33.9197 77.8613 33.9472 78.0154C33.9802 78.1751 34.0022 78.3237 34.0077 78.4778C34.0298 78.775 34.0463 79.0557 34.0683 79.3144C34.0848 79.5731 34.1068 79.8153 34.1123 80.0354C34.1068 80.2556 34.0958 80.4538 34.0903 80.6299C34.0793 80.9822 34.0683 81.2519 34.0628 81.439C34.0353 81.6261 34.0298 81.7197 34.0298 81.7197Z" fill="#263238"/>
        <path d="M221.567 0.143097H107.961V172.637H221.567V0.143097Z" fill="white"/>
        <path d="M221.364 8.92767H107.724V83.1618H221.364V8.92767Z" fill="#F5F5F5"/>
        <path d="M135.486 93.6306V95.3204H137.913V95.9148H135.486V97.8743H134.793V93.0307H138.21V93.6306H135.486Z" fill="#263238"/>
        <path d="M138.639 96.0359C138.639 94.9406 139.448 94.17 140.549 94.17C141.649 94.17 142.453 94.9461 142.453 96.0359C142.453 97.1313 141.649 97.9128 140.549 97.9128C139.448 97.9128 138.639 97.1313 138.639 96.0359ZM141.776 96.0359C141.776 95.2544 141.248 94.748 140.543 94.748C139.839 94.748 139.305 95.2544 139.305 96.0359C139.305 96.8175 139.839 97.3294 140.543 97.3294C141.253 97.3294 141.776 96.8175 141.776 96.0359Z" fill="#263238"/>
        <path d="M145.342 94.17V94.814C145.287 94.8085 145.237 94.8085 145.188 94.8085C144.478 94.8085 144.032 95.2433 144.032 96.047V97.8743H143.366V94.2086H144.005V94.825C144.241 94.3902 144.698 94.17 145.342 94.17Z" fill="#263238"/>
        <path d="M149.634 94.2031V97.3734C149.634 98.6669 148.979 99.2559 147.73 99.2559C147.059 99.2559 146.382 99.0687 145.98 98.7109L146.299 98.1991C146.64 98.4908 147.169 98.6779 147.713 98.6779C148.577 98.6779 148.974 98.2761 148.974 97.445V97.1533C148.654 97.5331 148.176 97.7202 147.653 97.7202C146.596 97.7202 145.793 96.9992 145.793 95.9424C145.793 94.8856 146.596 94.17 147.653 94.17C148.198 94.17 148.698 94.3682 149.007 94.77V94.2031H149.634ZM148.979 95.9369C148.979 95.2213 148.451 94.748 147.719 94.748C146.976 94.748 146.453 95.2268 146.453 95.9369C146.453 96.6414 146.982 97.1368 147.719 97.1368C148.456 97.1368 148.979 96.6469 148.979 95.9369Z" fill="#263238"/>
        <path d="M150.558 96.0359C150.558 94.9406 151.367 94.17 152.468 94.17C153.569 94.17 154.372 94.9461 154.372 96.0359C154.372 97.1313 153.569 97.9128 152.468 97.9128C151.367 97.9128 150.558 97.1313 150.558 96.0359ZM153.701 96.0359C153.701 95.2544 153.172 94.748 152.468 94.748C151.764 94.748 151.23 95.2544 151.23 96.0359C151.23 96.8175 151.764 97.3294 152.468 97.3294C153.172 97.3294 153.701 96.8175 153.701 96.0359Z" fill="#263238"/>
        <path d="M157.355 97.6541C157.156 97.8248 156.848 97.9128 156.551 97.9128C155.808 97.9128 155.39 97.5055 155.39 96.7625V94.748H154.768V94.2031H155.39V93.3995H156.056V94.2031H157.107V94.748H156.056V96.735C156.056 97.1313 156.265 97.3514 156.628 97.3514C156.821 97.3514 157.008 97.2909 157.145 97.1808L157.355 97.6541Z" fill="#263238"/>
        <path d="M163.815 96.0359C163.815 97.1643 163.034 97.9128 161.96 97.9128C161.443 97.9128 160.986 97.7147 160.678 97.3184V99.2118H160.012V94.2031H160.651V94.7865C160.948 94.3792 161.421 94.17 161.96 94.17C163.034 94.17 163.815 94.9131 163.815 96.0359ZM163.144 96.0359C163.144 95.2599 162.61 94.748 161.905 94.748C161.207 94.748 160.673 95.2599 160.673 96.0359C160.673 96.8175 161.207 97.3294 161.905 97.3294C162.615 97.3294 163.144 96.8175 163.144 96.0359Z" fill="#263238"/>
        <path d="M167.606 95.6562V97.8688H166.979V97.3844C166.759 97.7147 166.352 97.9128 165.774 97.9128C164.943 97.9128 164.42 97.4725 164.42 96.834C164.42 96.2451 164.8 95.7607 165.895 95.7607H166.946V95.6286C166.946 95.0672 166.621 94.7425 165.961 94.7425C165.526 94.7425 165.081 94.8966 164.8 95.1388L164.525 94.6379C164.905 94.3352 165.449 94.17 166.038 94.17C167.04 94.17 167.606 94.6544 167.606 95.6562ZM166.946 96.7515V96.2396H165.923C165.262 96.2396 165.081 96.4983 165.081 96.8065C165.081 97.1753 165.383 97.401 165.89 97.401C166.385 97.401 166.781 97.1698 166.946 96.7515Z" fill="#263238"/>
        <path d="M168.377 97.4835L168.652 96.9551C168.966 97.1753 169.461 97.3349 169.94 97.3349C170.556 97.3349 170.809 97.1478 170.809 96.834C170.809 96.0084 168.492 96.724 168.492 95.2654C168.492 94.6104 169.081 94.1645 170.022 94.1645C170.501 94.1645 171.04 94.2911 171.359 94.4948L171.073 95.0232C170.743 94.8085 170.374 94.7315 170.017 94.7315C169.433 94.7315 169.153 94.9461 169.153 95.2378C169.153 96.102 171.475 95.3975 171.475 96.823C171.475 97.489 170.864 97.9073 169.89 97.9073C169.285 97.9128 168.685 97.7257 168.377 97.4835Z" fill="#263238"/>
        <path d="M171.844 97.4835L172.119 96.9551C172.432 97.1753 172.928 97.3349 173.406 97.3349C174.023 97.3349 174.276 97.1478 174.276 96.834C174.276 96.0084 171.959 96.724 171.959 95.2654C171.959 94.6104 172.548 94.1645 173.489 94.1645C173.968 94.1645 174.507 94.2911 174.826 94.4948L174.54 95.0232C174.21 94.8085 173.841 94.7315 173.483 94.7315C172.9 94.7315 172.62 94.9461 172.62 95.2378C172.62 96.102 174.942 95.3975 174.942 96.823C174.942 97.489 174.331 97.9073 173.357 97.9073C172.752 97.9128 172.146 97.7257 171.844 97.4835Z" fill="#263238"/>
        <path d="M181.253 94.2031L179.883 97.8688H179.245L178.188 95.0892L177.115 97.8688H176.477L175.112 94.2031H175.74L176.807 97.1258L177.913 94.2031H178.475L179.559 97.1368L180.654 94.2031H181.253Z" fill="#263238"/>
        <path d="M181.485 96.0359C181.485 94.9406 182.294 94.17 183.394 94.17C184.495 94.17 185.298 94.9461 185.298 96.0359C185.298 97.1313 184.495 97.9128 183.394 97.9128C182.294 97.9128 181.485 97.1313 181.485 96.0359ZM184.627 96.0359C184.627 95.2544 184.104 94.748 183.394 94.748C182.69 94.748 182.156 95.2544 182.156 96.0359C182.156 96.8175 182.69 97.3294 183.394 97.3294C184.098 97.3294 184.627 96.8175 184.627 96.0359Z" fill="#263238"/>
        <path d="M188.187 94.17V94.814C188.132 94.8085 188.083 94.8085 188.033 94.8085C187.318 94.8085 186.877 95.2433 186.877 96.047V97.8743H186.212V94.2086H186.85V94.825C187.086 94.3902 187.543 94.17 188.187 94.17Z" fill="#263238"/>
        <path d="M192.43 92.7335V97.8688H191.791V97.2854C191.494 97.6982 191.021 97.9073 190.482 97.9073C189.409 97.9073 188.627 97.1533 188.627 96.0304C188.627 94.9076 189.409 94.1645 190.482 94.1645C190.999 94.1645 191.456 94.3572 191.764 94.7535V92.7335H192.43ZM191.775 96.0359C191.775 95.2543 191.241 94.748 190.542 94.748C189.838 94.748 189.304 95.2543 189.304 96.0359C189.304 96.8175 189.838 97.3294 190.542 97.3294C191.241 97.3294 191.775 96.8175 191.775 96.0359Z" fill="#263238"/>
        <path d="M195.853 94.3076C195.853 93.8673 195.484 93.5591 194.862 93.5591C194.301 93.5591 193.899 93.7517 193.624 94.104L193.118 93.7462C193.497 93.2564 194.103 92.9701 194.912 92.9701C195.908 92.9701 196.551 93.4325 196.551 94.2031C196.551 95.3589 195.324 95.436 195.324 96.3387H194.631C194.636 95.2543 195.853 95.1002 195.853 94.3076ZM194.543 97.467C194.543 97.2193 194.73 97.0267 194.994 97.0267C195.253 97.0267 195.434 97.2193 195.434 97.467C195.434 97.7092 195.247 97.9073 194.994 97.9073C194.73 97.9128 194.543 97.7092 194.543 97.467Z" fill="#263238"/>
        <path d="M209.676 107.815C209.676 107.892 190.207 107.958 166.198 107.958C142.178 107.958 122.714 107.892 122.714 107.815C122.714 107.738 142.178 107.672 166.198 107.672C190.212 107.672 209.676 107.732 209.676 107.815Z" fill="black"/>
        <path d="M191.12 112.46C191.12 112.537 179.96 112.603 166.203 112.603C152.435 112.603 141.281 112.537 141.281 112.46C141.281 112.383 152.435 112.317 166.203 112.317C179.96 112.317 191.12 112.383 191.12 112.46Z" fill="black"/>
        <path d="M183.258 53.5176C188.607 48.5253 188.898 40.137 183.907 34.787C178.916 29.437 170.53 29.1453 165.181 34.1376C160.602 38.4088 159.733 45.1568 162.699 50.3747L160.003 52.8901L160.646 57.365L156.464 56.1926L153.091 59.3409L153.735 63.8158L149.553 62.6434L146.653 65.3514L147.043 68.0815L144.496 67.3659L142.806 68.9401L142.553 73.0847L148.733 74.6424L168.791 55.9284C173.512 58.0365 179.241 57.2659 183.258 53.5176ZM181.299 37.2254C182.729 38.761 182.647 41.1663 181.112 42.5974C179.576 44.0285 177.172 43.9459 175.741 42.4103C174.31 40.8746 174.393 38.4693 175.928 37.0382C177.463 35.6017 179.868 35.6897 181.299 37.2254Z" fill="#263238"/>
        <path d="M181.297 37.2244C181.275 37.2519 181.05 36.9932 180.544 36.6795C180.048 36.3767 179.201 36.0355 178.15 36.1566C177.121 36.2557 175.894 36.9161 175.272 38.1601C174.633 39.371 174.755 41.1323 175.861 42.2992C176.945 43.4826 178.7 43.7303 179.949 43.1743C181.231 42.6404 181.98 41.4626 182.145 40.4388C182.338 39.3985 182.057 38.5344 181.787 38.017C181.512 37.4831 181.275 37.2464 181.297 37.2244C181.308 37.2189 181.369 37.2739 181.479 37.3895C181.595 37.5051 181.743 37.6922 181.897 37.9564C182.211 38.4738 182.547 39.371 182.376 40.4828C182.227 41.5726 181.452 42.8606 180.065 43.455C179.388 43.7523 178.579 43.8679 177.781 43.7137C176.983 43.5761 176.207 43.1523 175.619 42.5304C175.035 41.8974 174.672 41.0938 174.589 40.2902C174.49 39.4866 174.661 38.683 175.002 38.028C175.69 36.685 177.027 36.0025 178.128 35.9309C179.25 35.8373 180.12 36.2336 180.615 36.5804C180.868 36.7565 181.044 36.9161 181.149 37.0372C181.253 37.1473 181.308 37.2134 181.297 37.2244Z" fill="#263238"/>
        <path d="M183.257 53.5166C183.257 53.5166 183.196 53.5826 183.064 53.6982C182.926 53.8248 182.734 53.9954 182.481 54.2211C181.936 54.6394 181.121 55.2724 179.916 55.8503C178.717 56.4228 177.132 56.9566 175.206 57.1163C173.291 57.2594 171.024 57.0172 168.745 56.0099L168.856 55.9934C163.688 60.8371 156.81 67.2769 148.836 74.746L148.776 74.801L148.698 74.779C146.756 74.2946 144.659 73.7662 142.519 73.2268L142.392 73.1938L142.398 73.0672C142.475 71.7738 142.563 70.3592 142.645 68.9226L142.651 68.8621L142.695 68.818C143.218 68.3282 143.795 67.7888 144.379 67.2439L144.445 67.1833L144.533 67.2053C145.325 67.4255 146.2 67.6732 147.081 67.9209L146.877 68.097C146.756 67.2439 146.618 66.3082 146.481 65.367L146.47 65.2844L146.53 65.2238C147.444 64.3707 148.429 63.4515 149.43 62.5158L149.496 62.4553L149.584 62.4828C150.905 62.8516 152.33 63.2534 153.767 63.6552L153.558 63.8368C153.354 62.4167 153.134 60.8976 152.914 59.362L152.903 59.2739L152.963 59.2133C153.244 58.9491 153.552 58.6629 153.855 58.3767C154.686 57.6006 155.511 56.8301 156.331 56.065L156.397 55.9989L156.485 56.0265C157.894 56.4228 159.286 56.8135 160.667 57.1988L160.458 57.3805C160.244 55.8723 160.029 54.3807 159.814 52.9056L159.803 52.8231L159.864 52.7625C160.772 51.9149 161.669 51.0782 162.56 50.2471L162.533 50.4453C161.487 48.5684 160.887 46.4878 160.81 44.4128C160.766 43.378 160.827 42.3432 161.03 41.347C161.201 40.3452 161.526 39.382 161.911 38.4628C163.501 34.7805 166.709 32.1331 170.149 31.0653C173.61 29.9699 177.236 30.4048 180.065 31.8138C182.937 33.2009 184.979 35.5346 186.162 37.9069C187.323 40.3177 187.659 42.778 187.466 44.8641C187.296 46.9557 186.668 48.684 185.98 49.9664C185.898 50.126 185.815 50.2857 185.733 50.4398C185.639 50.5829 185.546 50.726 185.463 50.8581C185.282 51.1278 185.133 51.392 184.962 51.6121C184.605 52.0415 184.33 52.4323 184.06 52.702C183.796 52.9662 183.592 53.1698 183.449 53.3129C183.334 53.456 183.257 53.5166 183.257 53.5166C183.257 53.5166 183.317 53.4395 183.449 53.2964C183.592 53.1478 183.785 52.9386 184.038 52.6689C184.302 52.3937 184.566 52.0029 184.913 51.5681C185.078 51.3479 185.227 51.0838 185.403 50.814C185.491 50.6764 185.579 50.5388 185.667 50.3957C185.744 50.2416 185.821 50.0875 185.903 49.9224C186.569 48.6399 187.175 46.9281 187.329 44.8586C187.505 42.8 187.153 40.3727 186.002 38.006C184.819 35.6777 182.811 33.3935 179.982 32.045C177.198 30.6745 173.643 30.2561 170.259 31.3405C166.896 32.3917 163.765 34.9952 162.219 38.5894C161.839 39.4866 161.526 40.4278 161.361 41.4075C161.168 42.3817 161.107 43.3945 161.151 44.4017C161.229 46.4273 161.817 48.4583 162.841 50.2912L162.901 50.4012L162.808 50.4893C161.916 51.3204 161.019 52.1571 160.111 53.0047L160.161 52.8616C160.376 54.3367 160.59 55.8283 160.805 57.3364L160.843 57.5841L160.601 57.5181C159.22 57.1328 157.822 56.742 156.419 56.3457L156.579 56.3072C155.759 57.0722 154.933 57.8428 154.102 58.6189C153.794 58.9051 153.491 59.1913 153.211 59.4555L153.26 59.3124C153.48 60.8481 153.701 62.3672 153.904 63.7873L153.943 64.0405L153.701 63.9744C152.264 63.5726 150.839 63.1708 149.518 62.802L149.672 62.7635C148.676 63.6937 147.686 64.6184 146.772 65.466L146.822 65.3229C146.96 66.2641 147.092 67.1998 147.213 68.053L147.246 68.3006L147.009 68.2346C146.129 67.9869 145.254 67.7392 144.461 67.5191L144.615 67.4805C144.032 68.0254 143.449 68.5648 142.926 69.0547L142.976 68.9501C142.887 70.3867 142.799 71.8013 142.722 73.0947L142.607 72.9351C144.753 73.4745 146.85 74.0084 148.787 74.4983L148.649 74.5313C156.65 67.0897 163.551 60.6774 168.74 55.8503L168.789 55.8063L168.85 55.8338C171.084 56.8356 173.318 57.0943 175.217 56.9677C177.121 56.8246 178.695 56.3127 179.889 55.7623C181.088 55.2008 181.908 54.5899 182.464 54.1881C182.723 53.9734 182.921 53.8083 183.064 53.6927C183.185 53.5716 183.257 53.5166 183.257 53.5166Z" fill="#263238"/>
        <path d="M182.818 52.0149C188.166 47.0227 188.458 38.6344 183.467 33.2844C178.476 27.9344 170.089 27.6427 164.741 32.6349C160.162 36.9061 159.293 43.6542 162.259 48.8721L162.253 48.8776L159.562 51.3875L160.206 55.8623L156.024 54.6899L152.651 57.8383L153.295 62.3131L149.113 61.1408L146.212 63.8488L146.603 66.5788L144.055 65.8633L142.366 67.4375L142.113 71.5821L148.293 73.1398L168.351 54.4257C173.066 56.5338 178.795 55.7632 182.818 52.0149ZM180.859 35.7172C182.289 37.2529 182.207 39.6582 180.671 41.0893C179.136 42.5203 176.731 42.4378 175.301 40.9021C173.87 39.3665 173.952 36.9612 175.488 35.5301C177.018 34.099 179.428 34.1816 180.859 35.7172Z" fill="#8FC1D4"/>
        <path d="M180.857 35.7162C180.835 35.7437 180.61 35.4851 180.103 35.1713C179.608 34.8686 178.761 34.5273 177.71 34.6484C176.681 34.7475 175.453 35.408 174.832 36.6519C174.193 37.8573 174.314 39.6242 175.42 40.791C176.504 41.9744 178.26 42.2221 179.509 41.6662C180.791 41.1323 181.54 39.9544 181.705 38.9306C181.897 37.8904 181.617 37.0262 181.347 36.5088C181.072 35.9804 180.83 35.7382 180.857 35.7162C180.868 35.7107 180.929 35.7658 181.039 35.8814C181.154 35.9969 181.303 36.1841 181.457 36.4483C181.771 36.9657 182.106 37.8628 181.936 38.9747C181.787 40.0645 181.011 41.3525 179.625 41.9469C178.948 42.2441 178.139 42.3597 177.341 42.2056C176.543 42.068 175.767 41.6442 175.178 41.0222C174.595 40.3892 174.232 39.5856 174.149 38.782C174.05 37.9784 174.221 37.1748 174.562 36.5198C175.25 35.1768 176.587 34.4943 177.688 34.4228C178.81 34.3292 179.68 34.7255 180.175 35.0722C180.428 35.2484 180.604 35.408 180.709 35.5291C180.813 35.6447 180.863 35.7107 180.857 35.7162Z" fill="#263238"/>
        <path d="M182.816 52.0139C182.816 52.0139 182.756 52.08 182.624 52.1956C182.486 52.3222 182.293 52.4928 182.04 52.7185C181.496 53.1368 180.681 53.7698 179.476 54.3477C178.276 54.9201 176.692 55.454 174.766 55.6136C172.851 55.7568 170.583 55.5146 168.305 54.5073L168.415 54.4908C163.248 59.3344 156.369 65.7743 148.396 73.2433L148.335 73.2984L148.258 73.2764C146.316 72.792 144.219 72.2636 142.079 71.7242L141.952 71.6912L141.957 71.5646C142.035 70.2711 142.123 68.8566 142.205 67.42L142.211 67.3594L142.255 67.3154C142.777 66.8255 143.355 66.2861 143.939 65.7412L144.005 65.6807L144.093 65.7027C144.885 65.9229 145.76 66.1705 146.64 66.4182L146.437 66.5944C146.316 65.7412 146.178 64.8055 146.041 63.8643L146.03 63.7818L146.09 63.7212C147.004 62.8681 147.989 61.9489 148.99 61.0132L149.056 60.9526L149.144 60.9802C150.465 61.3489 151.89 61.7507 153.326 62.1525L153.117 62.3342C152.914 60.9141 152.694 59.395 152.473 57.8593L152.462 57.7713L152.523 57.7107C152.804 57.4465 153.112 57.1603 153.414 56.8741C154.245 56.098 155.071 55.3274 155.891 54.5624L155.957 54.4963L156.045 54.5238C157.454 54.9201 158.846 55.3109 160.227 55.6962L160.018 55.8778C159.803 54.3697 159.589 52.8781 159.374 51.403L159.363 51.3204L159.424 51.2599C160.332 50.4122 161.229 49.5756 162.12 48.7445L162.092 48.9426C161.047 47.0657 160.447 44.9852 160.37 42.9101C160.326 41.8754 160.387 40.8406 160.59 39.8443C160.761 38.8426 161.085 37.8794 161.471 36.9602C163.061 33.2779 166.269 30.6304 169.708 29.5626C173.17 28.4673 176.796 28.9021 179.625 30.3112C182.497 31.6982 184.539 34.032 185.722 36.4043C186.883 38.8151 187.219 41.2754 187.026 43.3615C186.855 45.4585 186.228 47.1813 185.54 48.4638C185.458 48.6234 185.375 48.783 185.293 48.9371C185.199 49.0803 185.111 49.2234 185.023 49.3555C184.841 49.6252 184.693 49.8894 184.522 50.1095C184.164 50.5388 183.889 50.9296 183.62 51.1993C183.356 51.4635 183.152 51.6672 183.009 51.8103C182.888 51.9479 182.816 52.0139 182.816 52.0139C182.816 52.0139 182.877 51.9369 183.009 51.7938C183.152 51.6452 183.345 51.436 183.598 51.1663C183.862 50.8911 184.126 50.5003 184.473 50.0655C184.638 49.8453 184.786 49.5811 184.962 49.3114C185.05 49.1738 185.138 49.0362 185.227 48.8931C185.304 48.739 185.381 48.5849 185.463 48.4198C186.129 47.1373 186.734 45.4255 186.888 43.356C187.064 41.2974 186.712 38.8701 185.562 36.5088C184.379 34.1806 182.371 31.8964 179.542 30.5479C176.758 29.1773 173.203 28.759 169.818 29.8433C166.456 30.8946 163.325 33.4981 161.779 37.0923C161.399 37.9894 161.085 38.9306 160.92 39.9104C160.728 40.8846 160.667 41.8974 160.711 42.9046C160.788 44.9301 161.377 46.9612 162.401 48.794L162.461 48.9041L162.368 48.9867C161.476 49.8178 160.579 50.6544 159.671 51.5021L159.721 51.359C159.935 52.8341 160.15 54.3257 160.365 55.8338L160.403 56.0815L160.161 56.0154C158.78 55.6302 157.382 55.2394 155.979 54.8431L156.138 54.8045C155.318 55.5696 154.493 56.3402 153.662 57.1163C153.354 57.4025 153.051 57.6887 152.771 57.9529L152.82 57.8098C153.04 59.3454 153.26 60.8646 153.464 62.2846L153.502 62.5378L153.26 62.4718C151.824 62.07 150.399 61.6682 149.078 61.2994L149.232 61.2609C148.236 62.1911 147.246 63.1158 146.332 63.9634L146.382 63.8203C146.519 64.7615 146.651 65.6972 146.772 66.5503L146.805 66.798L146.569 66.732C145.688 66.4843 144.813 66.2366 144.021 66.0164L144.175 65.9779C143.592 66.5228 143.009 67.0622 142.486 67.5521L142.535 67.4475C142.447 68.8841 142.359 70.2986 142.282 71.5921L142.167 71.4325C144.313 71.9719 146.409 72.5058 148.346 72.9957L148.209 73.0287C156.21 65.5871 163.11 59.1748 168.3 54.3477L168.349 54.3037L168.41 54.3312C170.644 55.3329 172.878 55.5916 174.777 55.465C176.681 55.3219 178.254 54.81 179.449 54.2596C180.648 53.6982 181.468 53.0872 182.024 52.6854C182.282 52.4708 182.481 52.3057 182.624 52.1901C182.739 52.0635 182.816 52.0139 182.816 52.0139Z" fill="#263238"/>
        <path d="M181.6 50.9792C181.556 50.9406 182.376 50.2856 183.378 48.7335C183.889 47.9684 184.374 46.9336 184.742 45.6842C185.1 44.4293 185.293 42.9321 185.122 41.2974C184.946 39.6737 184.429 37.9014 183.378 36.2832C182.327 34.6815 180.824 33.1623 178.876 32.2101C177.919 31.7037 176.857 31.3515 175.745 31.1533C175.189 31.0322 174.617 31.0047 174.045 30.9552C173.467 30.9662 172.884 30.9552 172.3 31.0432C169.956 31.2909 167.645 32.3587 165.807 34.043C163.996 35.7603 162.769 37.9949 162.362 40.3177C162.236 40.8956 162.203 41.479 162.153 42.0515C162.164 42.6294 162.148 43.2018 162.23 43.7633C162.351 44.8861 162.632 45.9759 163.066 46.9612C163.886 48.9702 165.295 50.5719 166.819 51.7332C168.36 52.8946 170.094 53.5331 171.7 53.8248C173.318 54.111 174.826 54.0229 176.103 53.7532C177.379 53.4725 178.442 53.0652 179.239 52.6029C180.852 51.7057 181.562 50.9351 181.6 50.9792C181.606 50.9847 181.562 51.0287 181.468 51.1113C181.364 51.2048 181.226 51.3314 181.055 51.48C180.874 51.6452 180.643 51.8433 180.346 52.0415C180.054 52.2506 179.718 52.4983 179.305 52.7075C178.508 53.1863 177.434 53.6211 176.147 53.9239C174.854 54.2156 173.318 54.3257 171.667 54.045C170.022 53.7642 168.25 53.1258 166.66 51.9424C165.092 50.7645 163.639 49.1298 162.791 47.0657C162.34 46.053 162.048 44.9356 161.922 43.7853C161.834 43.2073 161.85 42.6184 161.839 42.024C161.889 41.435 161.916 40.8351 162.048 40.2406C162.467 37.8573 163.727 35.5511 165.587 33.7843C167.48 32.0505 169.863 30.9552 172.267 30.702C172.867 30.6139 173.467 30.6249 174.061 30.6194C174.65 30.669 175.239 30.6965 175.811 30.8231C176.956 31.0322 178.045 31.401 179.025 31.9184C181.022 32.9091 182.552 34.4723 183.62 36.118C184.687 37.7803 185.205 39.6021 185.37 41.2589C185.529 42.9266 185.315 44.4513 184.935 45.7227C184.544 46.9887 184.038 48.029 183.504 48.794C183.262 49.1958 182.992 49.5096 182.767 49.7848C182.547 50.071 182.338 50.2856 182.161 50.4563C181.996 50.6159 181.864 50.7425 181.765 50.8471C181.65 50.9406 181.6 50.9847 181.6 50.9792Z" fill="#263238"/>
        <path d="M181.061 41.5781C181.033 41.5506 181.336 41.2919 181.705 40.6975C182.068 40.114 182.47 39.1233 182.332 37.8849C182.26 37.2739 182.062 36.6134 181.666 36.008C181.27 35.408 180.703 34.8466 179.977 34.4888C179.261 34.12 178.392 33.9439 177.517 34.0595C176.642 34.1531 175.778 34.5549 175.096 35.1823C174.419 35.8263 173.962 36.6574 173.808 37.5216C173.637 38.3857 173.753 39.2664 174.067 40.0039C174.369 40.758 174.898 41.358 175.464 41.7983C176.042 42.2386 176.686 42.4808 177.291 42.5964C178.519 42.8166 179.531 42.4863 180.142 42.1671C180.758 41.8313 181.033 41.5506 181.061 41.5781C181.066 41.5891 181 41.6552 180.863 41.7873C180.731 41.9194 180.511 42.0955 180.202 42.2771C179.597 42.6404 178.552 43.0257 177.253 42.8276C176.615 42.723 175.921 42.4808 175.305 42.024C174.694 41.5671 174.122 40.9341 173.792 40.1305C173.445 39.338 173.313 38.3967 173.494 37.4665C173.654 36.5363 174.149 35.6337 174.876 34.9457C175.613 34.2687 176.548 33.8393 177.484 33.7458C178.419 33.6302 179.355 33.8283 180.12 34.2246C180.896 34.6154 181.49 35.2264 181.903 35.8648C182.315 36.5143 182.514 37.2244 182.569 37.8683C182.679 39.1783 182.222 40.1966 181.82 40.7745C181.617 41.0717 181.43 41.2754 181.286 41.402C181.143 41.5231 181.066 41.5836 181.061 41.5781Z" fill="#263238"/>
        <path d="M146.673 72.3957C146.613 72.3297 151.125 68.0144 156.76 62.758C162.395 57.5016 167.012 53.2964 167.073 53.3625C167.133 53.4285 162.621 57.7437 156.986 63.0002C151.356 68.2566 146.739 72.4673 146.673 72.3957Z" fill="#263238"/>
        <path d="M149.166 46.13L149.348 45.7227L149.595 46.097C149.794 46.3997 150.069 46.6364 150.399 46.7795L150.806 46.9612L150.432 47.2088C150.129 47.407 149.893 47.6822 149.749 48.0124L149.568 48.4198L149.32 48.0455C149.122 47.7427 148.847 47.5061 148.517 47.363L148.11 47.1813L148.484 46.9336C148.781 46.741 149.018 46.4603 149.166 46.13Z" fill="#FFB319"/>
        <path d="M136.884 43.0697L136.988 42.8331L137.131 43.0532C137.247 43.2294 137.407 43.367 137.599 43.4495L137.836 43.5541L137.616 43.6972C137.44 43.8128 137.302 43.9724 137.22 44.1651L137.115 44.4017L136.972 44.1816C136.856 44.0054 136.697 43.8678 136.504 43.7853L136.268 43.6807L136.488 43.5376C136.658 43.422 136.796 43.2624 136.884 43.0697Z" fill="#FFB319"/>
        <path d="M175.552 64.0074L175.657 63.7708L175.8 63.9909C175.916 64.167 176.075 64.3047 176.268 64.3872L176.504 64.4918L176.284 64.6349C176.108 64.7505 175.971 64.9101 175.888 65.1027L175.784 65.3394L175.641 65.1193C175.525 64.9431 175.365 64.8055 175.173 64.723L174.936 64.6184L175.156 64.4753C175.332 64.3597 175.47 64.1946 175.552 64.0074Z" fill="#FFB319"/>
        <path d="M194.488 53.2689L194.669 52.8616L194.917 53.2359C195.115 53.5386 195.39 53.7753 195.72 53.9184L196.128 54.1L195.753 54.3477C195.451 54.5458 195.214 54.8211 195.071 55.1513L194.89 55.5586L194.642 55.1843C194.444 54.8816 194.169 54.6449 193.838 54.5018L193.431 54.3202L193.805 54.0725C194.103 53.8798 194.339 53.5991 194.488 53.2689Z" fill="#FFB319"/>
        <path d="M192.023 38.2316L192.331 37.5436L192.743 38.1711C193.074 38.6775 193.541 39.0738 194.092 39.3214L194.779 39.6297L194.152 40.0425C193.646 40.3727 193.25 40.8406 193.002 41.391L192.694 42.079L192.281 41.4515C191.951 40.9452 191.483 40.5489 190.933 40.3012L190.245 39.9929L190.872 39.5801C191.379 39.2554 191.775 38.782 192.023 38.2316Z" fill="#FFB319"/>
        <path d="M145.347 33.5971L145.655 32.9091L146.068 33.5366C146.398 34.043 146.866 34.4393 147.416 34.687L148.104 34.9952L147.477 35.408C146.971 35.7383 146.574 36.2061 146.327 36.7565L146.019 37.4445L145.606 36.8171C145.276 36.3107 144.808 35.9144 144.258 35.6667L143.57 35.3585L144.197 34.9457C144.703 34.6154 145.1 34.1476 145.347 33.5971Z" fill="#FFB319"/>
        <path d="M203.771 138.401C203.771 138.401 203.947 138.385 204.288 138.363C204.459 138.357 204.674 138.335 204.921 138.286C205.048 138.264 205.18 138.242 205.328 138.22C205.472 138.181 205.626 138.142 205.785 138.104C206.429 137.933 207.216 137.642 208.03 137.097C208.839 136.563 209.703 135.798 210.375 134.719C210.721 134.19 211.002 133.574 211.222 132.914C211.415 132.242 211.585 131.515 211.585 130.745C211.607 130.365 211.602 129.963 211.585 129.562C211.574 129.363 211.563 129.16 211.552 128.956C211.519 128.752 211.492 128.549 211.459 128.345C211.305 127.525 211.018 126.699 210.578 125.918C209.714 124.355 208.179 122.995 206.253 122.351C205.29 122.015 204.244 121.922 203.16 121.944C202.076 121.944 200.965 121.949 199.826 121.949C181.595 121.96 156.425 121.977 128.624 121.993C126.918 122.015 125.218 122.555 123.897 123.612C123.231 124.129 122.648 124.745 122.18 125.439C121.718 126.138 121.371 126.909 121.151 127.707C121.03 128.108 120.975 128.516 120.914 128.929C120.892 129.341 120.859 129.754 120.87 130.172C120.876 131.009 120.925 131.829 121.168 132.616C121.393 133.403 121.74 134.152 122.186 134.829C122.648 135.5 123.204 136.095 123.831 136.596C124.458 137.108 125.174 137.487 125.917 137.768C126.285 137.922 126.676 138.005 127.061 138.104C127.452 138.159 127.843 138.242 128.239 138.242C129.835 138.28 131.436 138.253 133.01 138.264C136.163 138.264 139.25 138.269 142.26 138.269C154.306 138.28 165.158 138.291 174.27 138.302C183.378 138.319 190.746 138.335 195.853 138.346C198.395 138.357 200.37 138.368 201.719 138.374C202.384 138.379 202.896 138.385 203.243 138.39C203.595 138.39 203.771 138.401 203.771 138.401C203.771 138.401 203.595 138.412 203.254 138.418C202.902 138.423 202.395 138.423 201.73 138.434C200.381 138.44 198.406 138.451 195.864 138.462C190.762 138.473 183.389 138.489 174.281 138.506C165.169 138.517 154.317 138.522 142.271 138.539C139.261 138.539 136.174 138.544 133.021 138.544C131.441 138.539 129.857 138.566 128.233 138.528C127.821 138.522 127.419 138.445 127.012 138.385C126.615 138.28 126.208 138.192 125.829 138.038C125.058 137.746 124.315 137.355 123.666 136.827C123.011 136.31 122.433 135.693 121.96 134.994C121.492 134.29 121.14 133.513 120.903 132.699C120.65 131.89 120.595 131.02 120.595 130.178C120.59 129.76 120.617 129.33 120.639 128.901C120.7 128.477 120.76 128.048 120.881 127.635C121.113 126.804 121.465 126.006 121.949 125.285C122.439 124.569 123.039 123.925 123.732 123.391C125.108 122.302 126.869 121.735 128.635 121.718C156.436 121.735 181.611 121.751 199.837 121.762C200.976 121.762 202.087 121.768 203.171 121.768C204.25 121.746 205.34 121.845 206.319 122.192C208.289 122.858 209.846 124.25 210.727 125.852C211.173 126.65 211.459 127.497 211.613 128.329C211.646 128.538 211.673 128.747 211.706 128.951C211.717 129.16 211.728 129.363 211.734 129.567C211.745 129.974 211.75 130.365 211.728 130.756C211.723 131.543 211.547 132.275 211.349 132.958C211.118 133.629 210.831 134.251 210.474 134.785C209.786 135.875 208.905 136.64 208.08 137.174C207.249 137.713 206.457 137.999 205.802 138.164C205.637 138.203 205.488 138.247 205.34 138.275C205.191 138.297 205.059 138.313 204.932 138.335C204.679 138.379 204.465 138.396 204.294 138.396C203.947 138.401 203.771 138.401 203.771 138.401Z" fill="#263238"/>
        <path d="M203.771 158.491H128.624C124.266 158.491 120.727 154.958 120.727 150.593V149.839C120.727 145.479 124.26 141.94 128.624 141.94H203.771C208.129 141.94 211.668 145.474 211.668 149.839V150.593C211.668 154.958 208.135 158.491 203.771 158.491Z" fill="#8FC1D4"/>
        <path d="M138.986 133.425C138.975 133.42 138.969 133.249 138.958 132.936C138.953 132.594 138.942 132.148 138.931 131.598C138.914 130.42 138.898 128.791 138.87 126.826L138.986 126.942C136.256 126.947 132.85 126.958 129.152 126.969C129.119 127.002 129.422 126.699 129.295 126.826V126.831V126.837V126.848V126.876V126.931V127.041V127.261V127.696C129.295 127.987 129.295 128.274 129.295 128.56C129.295 129.132 129.295 129.694 129.295 130.25C129.29 131.356 129.29 132.418 129.284 133.425L129.152 133.293C132.008 133.321 134.441 133.343 136.201 133.359C137.049 133.376 137.731 133.387 138.238 133.392C138.458 133.398 138.639 133.403 138.788 133.409C138.914 133.414 138.98 133.42 138.986 133.425C138.997 133.436 138.755 133.447 138.293 133.458C137.792 133.469 137.12 133.48 136.284 133.491C134.501 133.508 132.041 133.53 129.152 133.558H129.02V133.425C129.015 132.418 129.015 131.356 129.009 130.25C129.009 129.699 129.009 129.132 129.009 128.56C129.009 128.274 129.009 127.987 129.009 127.696V127.261V127.041V126.931V126.876V126.848V126.837V126.831V126.826C128.883 126.953 129.185 126.65 129.152 126.683C132.845 126.694 136.256 126.705 138.986 126.71H139.101V126.826C139.074 128.824 139.057 130.475 139.041 131.67C139.03 132.209 139.019 132.649 139.013 132.985C139.002 133.282 138.997 133.436 138.986 133.425Z" fill="#263238"/>
        <path d="M138.987 126.827C139.015 126.855 138.487 127.361 137.612 128.148C136.737 128.941 135.521 130.014 134.161 131.192C133.787 131.192 134.057 131.192 133.974 131.192L133.969 131.186L133.963 131.181L133.947 131.17L133.914 131.142L133.848 131.087L133.721 130.977L133.473 130.763C133.308 130.619 133.149 130.476 132.989 130.339C132.67 130.064 132.367 129.794 132.07 129.535C131.503 129.029 130.986 128.566 130.529 128.159C129.654 127.367 129.132 126.866 129.154 126.838C129.181 126.811 129.754 127.256 130.661 128.011C131.135 128.407 131.663 128.853 132.246 129.343C132.543 129.596 132.857 129.86 133.176 130.135C133.336 130.273 133.501 130.416 133.666 130.559L133.914 130.774L134.04 130.884L134.106 130.939L134.139 130.966L134.156 130.983L134.161 130.988L134.167 130.994C134.084 130.994 134.354 130.994 133.98 130.994C135.339 129.816 136.577 128.765 137.485 128.016C138.388 127.245 138.96 126.794 138.987 126.827Z" fill="#263238"/>
        <path d="M132.707 129.903C132.762 129.958 132.014 130.794 131.034 131.769C130.055 132.743 129.213 133.486 129.158 133.431C129.103 133.376 129.851 132.539 130.831 131.565C131.81 130.591 132.652 129.848 132.707 129.903Z" fill="#263238"/>
        <path d="M138.986 133.425C138.925 133.48 138.139 132.688 137.22 131.653C136.306 130.624 135.607 129.743 135.668 129.694C135.728 129.639 136.515 130.431 137.434 131.466C138.353 132.495 139.046 133.376 138.986 133.425Z" fill="#263238"/>
        <path d="M144.924 131.446V131.666H142.64V128.358H144.852V128.578H142.882V129.882H144.643V130.097H142.882V131.451H144.924V131.446Z" fill="#263238"/>
        <path d="M149.783 130.222V131.664H149.546V130.239C149.546 129.683 149.26 129.385 148.776 129.385C148.22 129.385 147.873 129.76 147.873 130.343V131.659H147.636V130.233C147.636 129.677 147.35 129.38 146.866 129.38C146.31 129.38 145.964 129.754 145.964 130.338V131.653H145.727V129.187H145.953V129.716C146.112 129.369 146.448 129.165 146.899 129.165C147.345 129.165 147.669 129.369 147.802 129.76C147.961 129.402 148.324 129.165 148.798 129.165C149.397 129.176 149.783 129.534 149.783 130.222Z" fill="#263238"/>
        <path d="M152.534 130.101V131.664H152.308V131.224C152.154 131.51 151.852 131.681 151.417 131.681C150.867 131.681 150.525 131.394 150.525 130.976C150.525 130.602 150.762 130.288 151.444 130.288H152.292V130.09C152.292 129.633 152.039 129.385 151.56 129.385C151.219 129.385 150.911 129.512 150.707 129.699L150.591 129.529C150.839 129.308 151.197 129.176 151.582 129.176C152.193 129.176 152.534 129.49 152.534 130.101ZM152.297 130.938V130.475H151.455C150.944 130.475 150.768 130.69 150.768 130.971C150.768 131.29 151.021 131.493 151.455 131.493C151.868 131.488 152.154 131.29 152.297 130.938Z" fill="#263238"/>
        <path d="M153.431 128.406C153.431 128.301 153.513 128.213 153.624 128.213C153.734 128.213 153.816 128.301 153.816 128.4C153.816 128.51 153.734 128.593 153.624 128.593C153.513 128.593 153.431 128.51 153.431 128.406ZM153.508 129.198H153.745V131.664H153.508V129.198Z" fill="#263238"/>
        <path d="M154.741 128.158H154.977V131.664H154.741V128.158Z" fill="#263238"/>
        <path d="M148.077 152.438L147.185 151.189C147.07 151.205 146.949 151.217 146.822 151.217H145.755V152.438H145.485V148.707H146.822C147.763 148.707 148.324 149.174 148.324 149.967C148.324 150.562 148.005 150.969 147.449 151.134L148.385 152.438H148.077ZM146.822 150.98C147.62 150.98 148.049 150.606 148.049 149.967C148.049 149.323 147.62 148.954 146.822 148.954H145.755V150.98H146.822Z" fill="white"/>
        <path d="M151.588 151.11H149.194C149.221 151.771 149.706 152.222 150.371 152.222C150.724 152.222 151.048 152.095 151.263 151.831L151.417 152.007C151.169 152.305 150.79 152.459 150.366 152.459C149.524 152.459 148.93 151.87 148.93 151.044C148.93 150.219 149.502 149.63 150.261 149.63C151.021 149.63 151.588 150.207 151.588 151.033C151.593 151.061 151.588 151.083 151.588 151.11ZM149.199 150.901H151.334C151.296 150.301 150.861 149.866 150.267 149.866C149.678 149.866 149.243 150.296 149.199 150.901Z" fill="white"/>
        <path d="M152.011 152.101L152.132 151.886C152.347 152.068 152.727 152.222 153.134 152.222C153.723 152.222 153.954 152.013 153.954 151.699C153.954 150.89 152.11 151.484 152.11 150.395C152.11 149.971 152.462 149.63 153.167 149.63C153.519 149.63 153.904 149.734 154.119 149.899L153.998 150.114C153.761 149.943 153.458 149.861 153.161 149.861C152.617 149.861 152.38 150.086 152.38 150.384C152.38 151.22 154.223 150.631 154.223 151.688C154.223 152.139 153.833 152.453 153.123 152.453C152.666 152.459 152.231 152.305 152.011 152.101Z" fill="white"/>
        <path d="M157.321 151.11H154.928C154.955 151.771 155.439 152.222 156.105 152.222C156.458 152.222 156.782 152.095 156.997 151.831L157.151 152.007C156.903 152.305 156.524 152.459 156.1 152.459C155.258 152.459 154.664 151.87 154.664 151.044C154.664 150.219 155.236 149.63 155.995 149.63C156.755 149.63 157.321 150.207 157.321 151.033C157.327 151.061 157.321 151.083 157.321 151.11ZM154.933 150.901H157.068C157.03 150.301 156.595 149.866 156.001 149.866C155.406 149.866 154.977 150.296 154.933 150.901Z" fill="white"/>
        <path d="M159.534 152.266C159.396 152.398 159.17 152.464 158.961 152.464C158.472 152.464 158.202 152.178 158.202 151.705V149.888H157.69V149.657H158.202V149.052H158.466V149.657H159.352V149.888H158.466V151.683C158.466 152.04 158.642 152.239 158.983 152.239C159.148 152.239 159.303 152.183 159.418 152.084L159.534 152.266Z" fill="white"/>
        <path d="M164.574 149.965C164.574 150.747 164.008 151.22 163.072 151.22H162.004V152.442H161.735V148.71H163.072C164.008 148.705 164.574 149.178 164.574 149.965ZM164.299 149.965C164.299 149.321 163.87 148.953 163.072 148.953H162.004V150.973H163.072C163.87 150.973 164.299 150.604 164.299 149.965Z" fill="white"/>
        <path d="M167.392 150.675V152.442H167.139V151.947C166.963 152.266 166.621 152.464 166.137 152.464C165.515 152.464 165.136 152.145 165.136 151.672C165.136 151.253 165.4 150.896 166.176 150.896H167.128V150.67C167.128 150.152 166.847 149.877 166.302 149.877C165.917 149.877 165.57 150.02 165.345 150.23L165.213 150.037C165.488 149.789 165.895 149.641 166.33 149.641C167.007 149.635 167.392 149.987 167.392 150.675ZM167.122 151.617V151.094H166.176C165.598 151.094 165.394 151.336 165.394 151.655C165.394 152.018 165.675 152.244 166.17 152.244C166.638 152.244 166.963 152.018 167.122 151.617Z" fill="white"/>
        <path d="M168.08 152.101L168.201 151.886C168.415 152.068 168.795 152.222 169.202 152.222C169.791 152.222 170.022 152.013 170.022 151.699C170.022 150.89 168.179 151.484 168.179 150.395C168.179 149.971 168.531 149.63 169.235 149.63C169.587 149.63 169.973 149.734 170.187 149.899L170.066 150.114C169.83 149.943 169.527 149.861 169.23 149.861C168.685 149.861 168.448 150.086 168.448 150.384C168.448 151.22 170.292 150.631 170.292 151.688C170.292 152.139 169.901 152.453 169.191 152.453C168.735 152.459 168.3 152.305 168.08 152.101Z" fill="white"/>
        <path d="M170.627 152.101L170.749 151.886C170.963 152.068 171.343 152.222 171.75 152.222C172.339 152.222 172.57 152.013 172.57 151.699C172.57 150.89 170.726 151.484 170.726 150.395C170.726 149.971 171.079 149.63 171.783 149.63C172.135 149.63 172.52 149.734 172.735 149.899L172.614 150.114C172.377 149.943 172.075 149.861 171.778 149.861C171.233 149.861 170.996 150.086 170.996 150.384C170.996 151.22 172.84 150.631 172.84 151.688C172.84 152.139 172.449 152.453 171.739 152.453C171.282 152.459 170.848 152.305 170.627 152.101Z" fill="white"/>
        <path d="M177.512 149.657L176.455 152.442H176.202L175.261 150.026L174.32 152.442H174.072L173.016 149.657H173.269L174.199 152.139L175.145 149.657H175.376L176.317 152.134L177.258 149.657H177.512Z" fill="white"/>
        <path d="M177.748 151.05C177.748 150.224 178.342 149.635 179.14 149.635C179.938 149.635 180.533 150.224 180.533 151.05C180.533 151.875 179.938 152.464 179.14 152.464C178.342 152.464 177.748 151.875 177.748 151.05ZM180.257 151.05C180.257 150.351 179.779 149.877 179.14 149.877C178.502 149.877 178.018 150.351 178.018 151.05C178.018 151.749 178.497 152.222 179.14 152.222C179.779 152.222 180.257 151.749 180.257 151.05Z" fill="white"/>
        <path d="M182.673 149.635V149.894C182.651 149.894 182.629 149.888 182.607 149.888C181.991 149.888 181.622 150.301 181.622 150.989V152.442H181.358V149.657H181.611V150.263C181.782 149.861 182.15 149.635 182.673 149.635Z" fill="white"/>
        <path d="M185.859 148.485V152.442H185.601V151.787C185.381 152.216 184.962 152.464 184.462 152.464C183.68 152.464 183.086 151.881 183.086 151.05C183.086 150.213 183.68 149.635 184.462 149.635C184.957 149.635 185.375 149.883 185.595 150.301V148.485H185.859ZM185.59 151.05C185.59 150.351 185.111 149.877 184.473 149.877C183.834 149.877 183.35 150.351 183.35 151.05C183.35 151.749 183.829 152.222 184.473 152.222C185.111 152.222 185.59 151.749 185.59 151.05Z" fill="white"/>
        <path d="M221.358 8.92768C221.358 9.00474 195.919 9.07079 164.541 9.07079C133.153 9.07079 107.719 9.00474 107.719 8.92768C107.719 8.85063 133.153 8.78458 164.541 8.78458C195.919 8.78458 221.358 8.85063 221.358 8.92768Z" fill="#263238"/>
        <path d="M114.168 4.41431C114.168 5.17938 113.546 5.79585 112.787 5.79585C112.022 5.79585 111.406 5.17388 111.406 4.41431C111.406 3.65474 112.027 3.03278 112.787 3.03278C113.546 3.03278 114.168 3.64924 114.168 4.41431Z" fill="#263238"/>
        <path d="M118.141 4.41431C118.141 5.17938 117.519 5.79585 116.76 5.79585C115.995 5.79585 115.379 5.17388 115.379 4.41431C115.379 3.65474 116 3.03278 116.76 3.03278C117.519 3.03278 118.141 3.64924 118.141 4.41431Z" fill="#263238"/>
        <path d="M122.109 4.41431C122.109 5.17938 121.487 5.79585 120.727 5.79585C119.968 5.79585 119.346 5.17388 119.346 4.41431C119.346 3.65474 119.968 3.03278 120.727 3.03278C121.487 3.03278 122.109 3.64924 122.109 4.41431Z" fill="#263238"/>
        <path d="M221.562 172.637C221.562 171.459 221.507 101.667 221.43 0.143107L221.562 0.275206C186.778 0.28071 148.253 0.28071 107.768 0.286214H107.757L107.9 0.143107C107.889 65.2349 107.878 125.246 107.873 172.637L107.757 172.521C177.165 172.593 220.632 172.637 221.562 172.637C220.632 172.637 177.165 172.681 107.757 172.752H107.642V172.637C107.636 125.246 107.625 65.2349 107.614 0.143107V0H107.757H107.768C148.253 0.00550412 186.778 0.00550412 221.562 0.0110082H221.694V0.143107C221.617 101.667 221.562 171.459 221.562 172.637Z" fill="#263238"/>
        <path d="M219.482 219.125C219.487 219.125 219.454 219.048 219.388 218.899C219.311 218.739 219.212 218.525 219.086 218.255C218.827 217.688 218.497 216.824 218.2 215.674C217.611 213.378 217.407 209.872 218.277 205.706C218.679 203.62 219.333 201.385 220.126 199.013C220.907 196.635 221.815 194.114 222.558 191.389C223.29 188.67 223.873 185.72 223.758 182.627C223.648 179.528 222.729 176.435 221.716 173.352C220.709 170.27 219.669 167.254 219.355 164.221C219.003 161.194 219.653 158.222 221.028 155.789C222.365 153.328 224.044 151.22 225.304 149.041C226.581 146.866 227.379 144.632 227.874 142.557C228.826 138.368 228.496 134.834 228.039 132.506C227.544 130.167 226.993 128.956 226.993 128.956C226.988 128.956 227.01 129.039 227.054 129.193C227.109 129.363 227.175 129.584 227.269 129.875C227.456 130.475 227.692 131.367 227.918 132.534C228.336 134.856 228.633 138.363 227.659 142.507C227.158 144.56 226.355 146.767 225.084 148.909C223.829 151.061 222.14 153.158 220.781 155.651C219.372 158.111 218.695 161.183 219.053 164.26C219.366 167.342 220.417 170.38 221.419 173.462C222.426 176.539 223.334 179.6 223.45 182.649C223.565 185.693 222.998 188.615 222.277 191.323C221.546 194.037 220.649 196.558 219.878 198.941C219.091 201.319 218.453 203.575 218.062 205.678C217.215 209.872 217.457 213.417 218.09 215.718C218.409 216.868 218.761 217.732 219.042 218.293C219.179 218.563 219.289 218.772 219.372 218.926C219.438 219.053 219.476 219.125 219.482 219.125Z" fill="#263238"/>
        <path d="M223.598 151.187C223.598 151.187 226.151 143.019 221.573 138.236C221.413 138.071 221.127 138.148 221.089 138.379C220.841 139.728 220.533 143.834 223.598 151.187Z" fill="#E8505B"/>
        <path d="M222.068 140.961C222.024 140.972 222.096 141.544 222.239 142.469C222.41 143.509 222.602 144.725 222.822 146.068C223.037 147.417 223.229 148.633 223.395 149.668C223.532 150.593 223.62 151.16 223.664 151.16C223.708 151.154 223.703 150.576 223.62 149.641C223.538 148.705 223.373 147.422 223.141 146.013C222.91 144.604 222.663 143.333 222.465 142.419C222.261 141.511 222.112 140.95 222.068 140.961Z" fill="#263238"/>
        <path d="M220.599 170.452C220.599 170.452 219.036 162.036 212.752 159.955C212.532 159.884 212.317 160.087 212.389 160.308C212.801 161.612 214.452 165.382 220.599 170.452Z" fill="#E8505B"/>
        <path d="M214.463 162.124C214.43 162.151 214.76 162.625 215.322 163.373C215.955 164.21 216.697 165.195 217.523 166.285C218.343 167.375 219.08 168.36 219.713 169.202C220.269 169.951 220.61 170.419 220.649 170.391C220.682 170.369 220.406 169.857 219.9 169.07C219.388 168.283 218.646 167.226 217.782 166.087C216.918 164.948 216.109 163.94 215.503 163.23C214.893 162.52 214.496 162.096 214.463 162.124Z" fill="#263238"/>
        <path d="M222.294 191.56C222.294 191.56 223.24 183.056 217.837 179.236C217.644 179.104 217.385 179.236 217.385 179.467C217.402 180.832 217.886 184.928 222.294 191.56Z" fill="#E8505B"/>
        <path d="M218.844 181.812C218.805 181.829 218.987 182.379 219.3 183.26C219.664 184.245 220.087 185.406 220.561 186.683C221.028 187.966 221.446 189.122 221.81 190.112C222.123 190.993 222.316 191.538 222.36 191.521C222.398 191.51 222.283 190.944 222.024 190.041C221.766 189.138 221.358 187.911 220.863 186.573C220.368 185.236 219.884 184.036 219.515 183.177C219.141 182.313 218.882 181.79 218.844 181.812Z" fill="#263238"/>
        <path d="M217.562 212.789C217.562 212.789 218.205 204.258 212.664 200.631C212.471 200.504 212.213 200.647 212.224 200.878C212.29 202.249 212.917 206.317 217.562 212.789Z" fill="#E8505B"/>
        <path d="M213.765 203.168C213.726 203.185 213.924 203.73 214.271 204.599C214.667 205.573 215.135 206.713 215.652 207.979C216.164 209.245 216.626 210.384 217.022 211.358C217.369 212.228 217.578 212.762 217.622 212.751C217.661 212.74 217.528 212.173 217.237 211.281C216.945 210.39 216.494 209.179 215.949 207.858C215.404 206.537 214.882 205.359 214.48 204.511C214.078 203.664 213.803 203.152 213.765 203.168Z" fill="#263238"/>
        <path d="M227.269 144.01C227.269 144.01 234.852 140.047 235 133.425C235.006 133.194 234.747 133.051 234.56 133.183C233.432 133.965 230.306 136.651 227.269 144.01Z" fill="#E8505B"/>
        <path d="M233.426 135.704C233.388 135.682 233.036 136.139 232.48 136.888C231.863 137.741 231.143 138.742 230.339 139.843C229.536 140.944 228.809 141.94 228.193 142.793C227.637 143.542 227.296 144.01 227.329 144.037C227.362 144.065 227.769 143.652 228.369 142.931C228.969 142.21 229.761 141.186 230.598 140.03C231.434 138.875 232.155 137.801 232.661 137.014C233.173 136.233 233.459 135.726 233.426 135.704Z" fill="#263238"/>
        <path d="M219.124 161.552C219.124 161.552 226.933 158.056 227.483 151.457C227.505 151.226 227.257 151.066 227.059 151.187C225.887 151.897 222.608 154.391 219.124 161.552Z" fill="#E8505B"/>
        <path d="M225.777 153.631C225.744 153.604 225.359 154.038 224.765 154.759C224.099 155.574 223.317 156.526 222.454 157.583C221.584 158.634 220.803 159.587 220.131 160.396C219.532 161.111 219.157 161.551 219.196 161.585C219.223 161.612 219.658 161.227 220.302 160.544C220.946 159.862 221.799 158.887 222.701 157.781C223.604 156.675 224.391 155.651 224.946 154.897C225.491 154.143 225.81 153.659 225.777 153.631Z" fill="#263238"/>
        <path d="M223.62 181.119C223.62 181.119 228.98 174.453 226.465 168.327C226.377 168.112 226.085 168.085 225.964 168.278C225.243 169.444 223.455 173.154 223.62 181.119Z" fill="#E8505B"/>
        <path d="M225.931 171.035C225.887 171.03 225.744 171.591 225.541 172.499C225.315 173.528 225.056 174.734 224.765 176.066C224.473 177.398 224.203 178.603 223.978 179.627C223.769 180.535 223.642 181.102 223.686 181.113C223.725 181.124 223.934 180.585 224.198 179.682C224.462 178.785 224.776 177.53 225.078 176.132C225.381 174.734 225.612 173.462 225.761 172.543C225.915 171.624 225.975 171.046 225.931 171.035Z" fill="#263238"/>
        <path d="M218.304 204.142C218.304 204.142 226.052 200.521 226.493 193.91C226.509 193.679 226.256 193.525 226.063 193.646C224.902 194.373 221.667 196.921 218.304 204.142Z" fill="#E8505B"/>
        <path d="M224.825 196.112C224.792 196.084 224.413 196.525 223.829 197.257C223.174 198.082 222.409 199.046 221.562 200.119C220.715 201.187 219.944 202.15 219.289 202.97C218.701 203.697 218.337 204.142 218.37 204.175C218.398 204.203 218.827 203.807 219.46 203.119C220.093 202.425 220.929 201.44 221.81 200.317C222.696 199.194 223.466 198.159 224.005 197.394C224.545 196.629 224.858 196.139 224.825 196.112Z" fill="#263238"/>
        <path d="M202.869 170.496C202.863 170.496 202.858 170.562 202.858 170.683C202.863 170.831 202.863 171.013 202.869 171.228C202.891 171.74 202.924 172.439 202.962 173.303C203.061 175.125 203.199 177.673 203.37 180.711V180.717V180.728C203.925 183.827 205.499 187.256 207.618 190.591C209.17 193.046 210.798 195.275 212.202 197.356C213.616 199.425 214.81 201.341 215.641 203.042C216.477 204.737 216.967 206.195 217.248 207.214C217.385 207.726 217.484 208.122 217.545 208.397C217.611 208.667 217.649 208.81 217.661 208.81C217.672 208.81 217.655 208.661 217.611 208.386C217.572 208.111 217.49 207.704 217.369 207.186C217.121 206.151 216.659 204.671 215.845 202.948C215.03 201.22 213.853 199.277 212.449 197.196C211.057 195.105 209.434 192.87 207.887 190.426C205.78 187.113 204.211 183.733 203.639 180.684V180.7C203.425 177.662 203.248 175.119 203.116 173.297C203.045 172.433 202.99 171.74 202.951 171.228C202.929 171.013 202.913 170.831 202.896 170.683C202.885 170.562 202.874 170.496 202.869 170.496Z" fill="#263238"/>
        <path d="M207.486 189.958C207.486 189.958 204.206 182.054 208.333 176.88C208.476 176.699 208.768 176.754 208.828 176.974C209.192 178.295 209.869 182.357 207.486 189.958Z" fill="#E8505B"/>
        <path d="M208.08 179.633C208.036 179.627 207.937 180.199 207.821 181.13C207.706 182.06 207.574 183.342 207.475 184.768C207.37 186.193 207.326 187.487 207.326 188.423C207.326 189.358 207.376 189.942 207.42 189.936C207.469 189.936 207.497 189.358 207.552 188.428C207.623 187.382 207.706 186.149 207.794 184.79C207.887 183.43 207.975 182.197 208.047 181.152C208.102 180.216 208.124 179.638 208.08 179.633Z" fill="#263238"/>
        <g opacity="0.3">
            <g opacity="0.3">
                <g opacity="0.3">
                    <g opacity="0.3">
                        <path opacity="0.3" d="M207.486 189.958C207.486 189.958 204.206 182.054 208.333 176.88C208.476 176.699 208.768 176.754 208.828 176.974C209.192 178.295 209.869 182.357 207.486 189.958Z" fill="black"/>
                    </g>
                </g>
            </g>
        </g>
        <path d="M217.65 209.003C217.65 209.003 215.019 200.862 219.554 196.035C219.713 195.864 219.999 195.941 220.038 196.172C220.296 197.515 220.643 201.621 217.65 209.003Z" fill="#E8505B"/>
        <path d="M219.08 198.759C219.036 198.754 218.888 199.31 218.701 200.229C218.508 201.143 218.277 202.414 218.057 203.829C217.837 205.238 217.688 206.526 217.611 207.461C217.54 208.397 217.54 208.975 217.578 208.981C217.622 208.986 217.705 208.414 217.837 207.489C217.991 206.449 218.172 205.232 218.376 203.884C218.58 202.535 218.767 201.313 218.926 200.279C219.058 199.343 219.124 198.77 219.08 198.759Z" fill="#263238"/>
        <g opacity="0.3">
            <g opacity="0.3">
                <g opacity="0.3">
                    <g opacity="0.3">
                        <path opacity="0.3" d="M217.65 209.003C217.65 209.003 215.019 200.862 219.554 196.035C219.713 195.864 219.999 195.941 220.038 196.172C220.296 197.515 220.643 201.621 217.65 209.003Z" fill="black"/>
                    </g>
                </g>
            </g>
        </g>
        <path d="M203.304 180.299C203.304 180.299 196.293 175.389 197.003 168.806C197.03 168.575 197.3 168.465 197.471 168.619C198.489 169.543 201.24 172.609 203.304 180.299Z" fill="#E8505B"/>
        <g opacity="0.3">
            <g opacity="0.3">
                <g opacity="0.3">
                    <g opacity="0.3">
                        <path opacity="0.3" d="M203.304 180.299C203.304 180.299 196.293 175.389 197.003 168.806C197.03 168.575 197.3 168.465 197.471 168.619C198.489 169.543 201.24 172.609 203.304 180.299Z" fill="black"/>
                    </g>
                </g>
            </g>
        </g>
        <path d="M198.268 171.266C198.23 171.288 198.45 171.822 198.852 172.67C199.253 173.517 199.831 174.673 200.508 175.928C201.185 177.183 201.84 178.301 202.341 179.093C202.847 179.886 203.199 180.348 203.232 180.321C203.27 180.293 202.99 179.792 202.539 178.978C202.038 178.053 201.444 176.974 200.794 175.774C200.145 174.574 199.556 173.49 199.055 172.565C198.604 171.745 198.307 171.25 198.268 171.266Z" fill="#263238"/>
        <path d="M214.821 200.928C214.821 200.928 206.369 199.607 204.102 193.387C204.024 193.167 204.217 192.953 204.443 193.013C205.763 193.393 209.582 194.934 214.821 200.928Z" fill="#E8505B"/>
        <g opacity="0.3">
            <g opacity="0.3">
                <g opacity="0.3">
                    <g opacity="0.3">
                        <path opacity="0.3" d="M214.821 200.928C214.821 200.928 206.369 199.607 204.102 193.387C204.024 193.167 204.217 192.953 204.443 193.013C205.763 193.393 209.582 194.934 214.821 200.928Z" fill="black"/>
                    </g>
                </g>
            </g>
        </g>
        <path d="M206.325 195.039C206.297 195.072 206.732 195.457 207.464 196.04C208.196 196.624 209.225 197.405 210.386 198.236C211.547 199.068 212.625 199.783 213.423 200.267C214.227 200.752 214.744 201.016 214.766 200.978C214.788 200.939 214.315 200.609 213.55 200.075C212.692 199.469 211.685 198.759 210.573 197.972C209.461 197.18 208.454 196.47 207.601 195.859C206.836 195.319 206.352 195 206.325 195.039Z" fill="#263238"/>
        <path d="M224.825 216.488L222.399 232.395L212.719 232.379L209.456 216.488H224.825Z" fill="#455A64"/>
        <path d="M215.988 221.596C216.235 221.222 216.406 220.765 216.439 220.264C216.477 219.774 216.285 219.185 215.784 218.893C215.283 218.602 214.639 218.706 214.161 219.026C213.665 219.35 213.374 219.912 213.231 220.484C213.093 221.068 213.077 221.668 213.11 222.278C213.148 222.889 213.264 223.517 213.5 224.117C213.737 224.717 214.111 225.284 214.623 225.719C215.129 226.153 215.784 226.462 216.488 226.495C217.193 226.528 217.864 226.285 218.425 225.933C218.992 225.575 219.471 225.13 219.873 224.623C220.269 224.122 220.566 223.517 220.605 222.873C220.638 222.24 220.412 221.585 219.917 221.189C219.416 220.781 218.701 220.809 218.2 221.084C217.683 221.343 217.297 221.838 217.209 222.383C217.022 223.473 217.661 224.458 218.436 224.898C219.229 225.35 220.093 225.366 220.775 225.234C221.469 225.097 222.019 224.827 222.443 224.585C222.866 224.337 223.169 224.111 223.373 223.952C223.576 223.792 223.675 223.704 223.67 223.699C223.664 223.693 223.554 223.765 223.339 223.908C223.125 224.051 222.811 224.26 222.387 224.491C221.964 224.717 221.419 224.97 220.748 225.086C220.087 225.196 219.262 225.163 218.53 224.733C217.82 224.32 217.248 223.385 217.424 222.422C217.506 221.948 217.842 221.519 218.304 221.293C218.756 221.057 219.35 221.04 219.763 221.381C220.175 221.712 220.379 222.295 220.351 222.862C220.318 223.429 220.043 223.99 219.669 224.464C219.289 224.937 218.822 225.372 218.288 225.708C217.754 226.038 217.138 226.258 216.499 226.23C215.867 226.203 215.267 225.922 214.794 225.515C214.32 225.108 213.963 224.585 213.742 224.018C213.511 223.451 213.401 222.851 213.363 222.262C213.324 221.673 213.341 221.084 213.467 220.539C213.594 220 213.858 219.493 214.287 219.213C214.705 218.926 215.267 218.844 215.668 219.075C216.081 219.306 216.257 219.796 216.23 220.242C216.208 220.693 216.054 221.128 215.828 221.48C215.349 222.185 214.661 222.614 214.023 222.834C213.379 223.06 212.779 223.088 212.301 223.038C211.338 222.928 210.881 222.576 210.87 222.614C210.87 222.62 210.898 222.636 210.953 222.675C211.008 222.708 211.09 222.763 211.206 222.818C211.437 222.933 211.8 223.071 212.29 223.143C212.779 223.209 213.396 223.198 214.073 222.977C214.739 222.768 215.47 222.339 215.988 221.596Z" fill="#263238"/>
    </g>
    <defs>
        <clipPath id="clip0">
            <rect width="235" height="239" fill="white"/>
        </clipPath>
    </defs>
</svg>
