<svg width="237" height="314" viewBox="0 0 237 314" fill="none" xmlns="http://www.w3.org/2000/svg">
    <g clip-path="url(#clip0)">
        <path opacity="0.1" d="M151.341 314C198.649 314 237 309.743 237 304.492C237 299.241 198.649 294.985 151.341 294.985C104.033 294.985 65.6816 299.241 65.6816 304.492C65.6816 309.743 104.033 314 151.341 314Z" fill="black"/>
        <path d="M152.514 213.372H76.4107C64.4703 213.372 54.7988 204.449 54.7988 193.434V19.9376C54.7988 8.92227 64.4703 0 76.4107 0H152.533C164.473 0 174.145 8.92227 174.145 19.9376V193.452C174.126 204.449 164.454 213.372 152.514 213.372Z" fill="white"/>
        <path opacity="0.05" d="M157.109 80.8148C157.109 103.697 138.016 122.251 114.462 122.251C90.9082 122.251 71.8152 103.697 71.8152 80.8148C71.8152 57.9327 90.9082 39.3786 114.462 39.3786C138.016 39.3786 157.109 57.9327 157.109 80.8148Z" fill="#BAEDB2"/>
        <path opacity="0.3" d="M153.225 80.8148C153.225 101.622 135.863 118.473 114.462 118.473C93.0426 118.473 75.6992 101.604 75.6992 80.8148C75.6992 60.008 93.0618 43.1568 114.462 43.1568C135.882 43.1568 153.225 60.0258 153.225 80.8148Z" fill="#BAEDB2"/>
        <path opacity="0.5" d="M149.533 80.8148C149.533 98.6771 133.824 113.169 114.462 113.169C95.1 113.169 79.391 98.6771 79.391 80.8148C79.391 62.9525 95.1 48.4605 114.462 48.4605C133.824 48.4605 149.533 62.9525 149.533 80.8148Z" fill="#BAEDB2"/>
        <path d="M144.284 80.8148C144.284 95.9986 130.94 108.327 114.462 108.327C98.0033 108.327 84.6401 96.0164 84.6401 80.8148C84.6401 65.631 97.9841 53.303 114.462 53.303C130.921 53.3207 144.284 65.631 144.284 80.8148Z" fill="#BAEDB2"/>
        <path d="M125.134 66.3583C125.153 66.5889 125.21 66.7485 125.153 66.8904C124.672 68.0611 124.172 69.2141 123.653 70.3671C123.576 70.5445 123.384 70.6864 123.211 70.8992C122.884 70.8815 122.557 70.8815 122.23 70.8105C121.403 70.6509 120.596 70.4558 119.769 70.2607C118.519 69.9591 117.289 70.1365 116.077 70.3848C114.481 70.7041 113.462 71.7684 112.674 73.0101C112.328 73.5599 112.501 74.163 112.943 74.6065C113.443 75.1032 113.943 75.5998 114.558 75.9723C115.674 76.6641 116.866 77.2849 118.039 77.9058C118.827 78.3137 119.634 78.6685 120.442 79.0588C120.884 79.2893 121.307 79.5377 121.73 79.786C125.691 82.1452 126.806 85.6219 126.114 89.6839C125.691 92.1672 124.268 94.1361 121.653 95.2004C120.327 95.7503 118.961 96.2647 117.462 96.8678C117.423 96.9742 117.327 97.2758 117.289 97.5596C117.25 97.8611 117.308 98.1804 117.289 98.4997C117.25 99.4576 116.77 99.8833 115.712 99.9542C115.327 99.972 114.924 99.972 114.52 99.9542C113.232 99.8656 111.943 99.7591 110.713 99.6704C109.886 98.8545 110.424 97.8966 110.078 96.9565C109.751 96.8323 109.348 96.6727 108.944 96.5131C107.002 95.7681 105.252 94.7392 103.579 93.5685C103.176 93.2847 102.753 93.0186 102.58 92.4865C102.522 91.8479 102.983 91.3513 103.349 90.8369C103.714 90.3047 104.079 89.7903 104.483 89.2936C104.887 88.797 105.118 88.1761 105.771 87.9278C106.31 87.8214 106.656 88.1229 107.002 88.3713C108.367 89.4001 109.944 90.0919 111.54 90.7659C113.616 91.6528 115.597 91.369 117.539 90.3757C117.923 90.1805 118.288 89.9145 118.596 89.6129C119.75 88.5309 119.942 87.2183 119.077 85.9057C118.423 84.9123 117.519 84.1141 116.366 83.6352C115.654 83.3336 114.924 83.0676 114.174 82.8015C111.828 81.9855 109.694 80.8503 107.733 79.4135C107.636 79.3426 107.559 79.2893 107.463 79.2184C104.425 76.8237 103.868 73.0633 106.04 69.9414C106.752 68.9303 107.598 68.0434 108.655 67.3161C108.925 67.1387 109.194 66.9436 109.54 66.713C109.559 65.3295 109.578 63.9281 109.598 62.5091C109.905 62.314 110.155 62.0302 110.444 62.0124C112.02 61.8528 113.578 61.7641 115.154 61.6577C115.308 61.6399 115.462 61.7464 115.674 61.8173C116.27 62.7574 115.597 63.8572 116.058 64.9037C116.827 65.0456 117.577 64.7086 118.346 64.7973C119.135 64.8683 119.923 64.9215 120.692 65.0279C121.423 65.1343 122.134 65.2408 122.845 65.4359C123.653 65.631 124.48 65.7197 125.134 66.3583ZM115.674 98.4642C115.77 98.3046 115.847 98.2159 115.866 98.1272C115.904 97.8611 115.904 97.6128 115.923 97.3467C115.943 96.992 115.923 96.6195 115.981 96.247C116.039 95.768 116.308 95.431 116.827 95.3955C118.519 95.2714 119.923 94.4554 121.384 93.8346C122.672 93.2847 123.538 92.3801 124.134 91.1916C124.691 90.0741 124.884 88.9389 124.884 87.715C124.884 84.8414 123.73 82.5532 121.057 80.9922C120.057 80.4068 119 79.9102 117.981 79.378C116.616 78.6508 115.212 77.9767 113.905 77.1608C113.116 76.6818 112.424 76.0433 111.809 75.3692C111.001 74.5001 110.886 73.4003 111.424 72.4247C112.289 70.8637 113.597 69.6221 115.52 69.1431C117.173 68.7352 118.846 68.6287 120.538 69.0367C121.173 69.1964 121.826 69.2673 122.557 69.3915C122.884 68.5933 123.192 67.8837 123.461 67.2274C123.307 67.0678 123.23 66.9614 123.153 66.9259C122.845 66.8017 122.519 66.6953 122.192 66.6243C120.134 66.1099 118.077 66.0745 115.981 66.376C114.674 66.5534 114.405 66.3228 114.481 65.0634C114.501 64.6554 114.539 64.2297 114.539 63.8217C114.539 63.6266 114.443 63.4315 114.405 63.2541C113.097 63.0767 112.405 63.1122 111.155 63.4137C110.732 64.7973 111.27 66.2873 110.751 67.6886C110.501 67.8483 110.271 67.9902 110.04 68.1321C108.752 68.8416 107.79 69.8704 107.06 71.0589C105.56 73.4535 106.04 76.3448 108.329 78.1186C109.405 78.9523 110.578 79.7151 111.809 80.3182C113.443 81.1164 115.193 81.7195 116.885 82.4113C118.385 83.0143 119.5 84.0254 120.346 85.2848C120.73 85.8702 120.98 86.5088 121.038 87.2005C121.153 88.6551 120.577 89.879 119.404 90.8014C117.058 92.6461 114.366 93.0896 111.482 92.185C109.886 91.6883 108.405 90.9078 106.983 90.0209C106.713 89.8613 106.406 89.7548 106.098 89.6129C105.348 90.4821 104.637 91.2803 104.214 92.3446C104.425 92.4865 104.598 92.6107 104.791 92.7348C106.502 93.8523 108.252 94.8989 110.251 95.5197C110.732 95.6616 111.251 95.768 111.501 96.247C111.866 96.9033 111.405 97.7015 111.982 98.4642C113.174 98.3933 114.443 98.819 115.674 98.4642Z" fill="#3C3372"/>
        <path d="M115.673 98.4642C114.443 98.819 113.174 98.3933 111.963 98.4642C111.386 97.7015 111.847 96.9033 111.482 96.247C111.232 95.768 110.713 95.6794 110.232 95.5197C108.232 94.8989 106.483 93.8523 104.771 92.7348C104.579 92.6107 104.406 92.4865 104.195 92.3446C104.637 91.2626 105.329 90.4821 106.079 89.6129C106.387 89.7548 106.694 89.8613 106.963 90.0209C108.367 90.8901 109.848 91.6705 111.463 92.185C114.347 93.0719 117.039 92.6284 119.384 90.8014C120.557 89.879 121.134 88.6551 121.019 87.2005C120.961 86.5088 120.73 85.8702 120.327 85.2848C119.481 84.0254 118.346 83.0143 116.866 82.4113C115.174 81.7195 113.424 81.1164 111.79 80.3182C110.559 79.7151 109.386 78.9523 108.309 78.1186C106.021 76.3448 105.541 73.4535 107.04 71.0589C107.79 69.8704 108.732 68.8416 110.021 68.1321C110.251 68.0079 110.482 67.8483 110.732 67.6886C111.232 66.2873 110.713 64.7796 111.136 63.4137C112.386 63.1122 113.078 63.0767 114.385 63.2541C114.424 63.4315 114.52 63.6266 114.52 63.8217C114.52 64.2297 114.481 64.6554 114.462 65.0634C114.385 66.3228 114.654 66.5534 115.962 66.376C118.058 66.0744 120.115 66.1277 122.172 66.6243C122.499 66.713 122.826 66.8195 123.134 66.9259C123.23 66.9614 123.288 67.0678 123.441 67.2274C123.172 67.8837 122.865 68.5933 122.538 69.3915C121.807 69.2673 121.153 69.1786 120.519 69.0367C118.827 68.6287 117.154 68.7352 115.5 69.1431C113.578 69.6043 112.27 70.8637 111.405 72.4247C110.867 73.3826 110.982 74.5001 111.79 75.3692C112.405 76.0433 113.116 76.6818 113.885 77.1608C115.193 77.9767 116.596 78.6508 117.962 79.378C118.981 79.9279 120.038 80.4068 121.038 80.9922C123.711 82.5532 124.845 84.8414 124.864 87.7149C124.864 88.9389 124.672 90.0741 124.114 91.1916C123.518 92.3801 122.653 93.2847 121.365 93.8346C119.884 94.4554 118.481 95.2891 116.808 95.3955C116.308 95.431 116.039 95.7503 115.962 96.247C115.923 96.6017 115.923 96.9742 115.904 97.3467C115.885 97.6128 115.885 97.8611 115.847 98.1272C115.847 98.2159 115.77 98.3046 115.673 98.4642Z" fill="#F5F5F5"/>
        <path d="M129.037 14.6694H99.9069C98.2917 14.6694 96.965 13.4455 96.965 11.9555V11.6007C96.965 10.1107 98.2917 8.88678 99.9069 8.88678H129.037C130.652 8.88678 131.979 10.1107 131.979 11.6007V11.9555C131.959 13.4632 130.652 14.6694 129.037 14.6694ZM99.9069 10.2526C99.0993 10.2526 98.4456 10.8557 98.4456 11.6007V11.9555C98.4456 12.7005 99.0993 13.3036 99.9069 13.3036H129.037C129.844 13.3036 130.498 12.7005 130.498 11.9555V11.6007C130.498 10.8557 129.844 10.2526 129.037 10.2526H99.9069Z" fill="#3C3372"/>
        <path d="M114.462 204.946C111.194 204.946 108.54 202.498 108.54 199.483C108.54 196.467 111.194 194.019 114.462 194.019C117.731 194.019 120.384 196.467 120.384 199.483C120.384 202.498 117.731 204.946 114.462 204.946ZM114.462 195.368C112.001 195.368 110.001 197.212 110.001 199.483C110.001 201.753 112.001 203.598 114.462 203.598C116.923 203.598 118.923 201.753 118.923 199.483C118.923 197.212 116.923 195.368 114.462 195.368Z" fill="#3C3372"/>
        <path d="M64.4703 191.252C62.0476 191.252 59.6249 191.288 57.2023 191.235C53.1452 191.146 49.0882 191.43 45.0312 191.501C43.7045 191.518 42.3585 191.536 41.0318 191.572C40.0127 191.607 38.9744 191.678 37.9554 191.731C37.6477 191.749 37.3593 191.784 37.0517 191.784C32.4563 191.802 27.8609 191.838 23.2655 191.802C19.9391 191.767 16.6127 191.678 13.2863 191.536C11.5366 191.465 9.78687 191.305 8.03716 191.128C7.26805 191.057 6.49895 190.827 5.74907 190.649C4.07626 190.259 3.01874 189.248 2.38423 187.829C1.71126 186.321 1.49976 184.707 1.42285 183.075C1.30748 180.627 1.2498 178.162 1.17289 175.714C1.09598 173.532 0.961383 171.35 0.98061 169.186C1.01907 165.993 0.692195 162.836 0.288415 159.661C0.115366 158.596 0 157.479 0 156.361C0 152.725 0.057683 149.107 0.134594 145.47C0.173049 143.838 0.57683 142.26 1.42285 140.805C2.86492 138.322 5.03764 136.814 8.17175 136.619C12.0365 136.388 15.9013 136.175 19.766 135.909C22.9001 135.697 26.0342 135.395 29.1683 135.218C32.014 135.04 34.8597 134.952 37.6862 134.863C42.1086 134.703 46.5117 134.526 50.934 134.419C53.6067 134.348 56.2601 134.402 58.9328 134.384C63.2974 134.348 67.6621 134.277 72.0076 134.224C73.6419 134.207 75.2763 134.189 76.9106 134.277C77.9874 134.331 79.1026 134.455 80.1216 134.739C82.2559 135.342 83.7556 136.654 84.6593 138.57C85.6784 140.699 86.1014 142.934 86.1783 145.257C86.2168 146.481 86.2552 147.723 86.236 148.947C86.2168 153.417 86.6206 157.869 86.8129 162.339C86.909 164.681 86.909 167.04 86.9282 169.381C86.9282 172.06 86.909 174.738 86.8513 177.417C86.8128 179.031 86.6783 180.645 86.6013 182.259C86.5629 182.933 86.5821 183.589 86.5437 184.263C86.486 184.991 86.4283 185.7 86.3322 186.428C86.0437 188.538 84.6401 189.815 82.6404 190.631C80.9676 191.323 79.1987 191.66 77.3528 191.607C73.0651 191.518 68.7581 191.447 64.4703 191.376C64.4703 191.341 64.4703 191.288 64.4703 191.252ZM84.8132 154.41C83.9095 154.393 83.2557 154.357 82.5828 154.357C64.6049 154.428 46.6078 154.499 28.63 154.552C23.1885 154.57 17.7279 154.552 12.2865 154.57C9.19082 154.57 6.11439 154.57 3.01874 154.57C2.55728 154.57 2.09581 154.659 1.55744 154.712C1.36516 155.812 1.48053 156.805 1.57667 157.798C1.73049 159.235 1.94199 160.672 2.11504 162.126C2.26886 163.563 2.51882 165.018 2.51882 166.454C2.49959 171.811 2.67264 177.186 2.96106 182.543C3.01874 183.536 3.11488 184.547 3.28793 185.541C3.8263 188.556 5.0761 189.354 7.86411 189.674C10.2676 189.94 12.6902 190.135 15.0937 190.259C17.5164 190.383 19.9391 190.401 22.3618 190.401C27.6301 190.383 32.8985 190.365 38.1669 190.294C41.0126 190.259 43.8583 190.117 46.704 190.046C54.5104 189.815 62.336 189.957 70.1425 190.028C71.5269 190.046 72.9305 190.099 74.3149 190.135C75.3339 190.17 76.3722 190.259 77.3913 190.259C79.1218 190.277 80.7561 189.886 82.3136 189.212C83.5057 188.698 84.4671 187.918 84.7555 186.676C84.9478 185.807 85.0054 184.902 85.0824 184.015C85.14 183.359 85.1208 182.685 85.1593 182.011C85.2362 180.556 85.4092 179.119 85.4285 177.665C85.4861 174.703 85.5054 171.74 85.4669 168.778C85.4285 165.479 85.3323 162.197 85.1977 158.898C85.1208 157.461 84.9478 156.024 84.8132 154.41ZM84.4671 144.548C83.6018 144.548 82.8327 144.53 82.0444 144.548C78.7757 144.637 75.507 144.743 72.2383 144.849C67.9505 144.974 63.6435 145.08 59.3558 145.186C54.8757 145.293 50.3957 145.417 45.9156 145.523C40.4165 145.648 34.8982 145.772 29.3991 145.896C25.9573 145.985 22.4964 146.109 19.0546 146.197C13.7285 146.339 8.40248 146.446 3.07642 146.57C2.65342 146.588 2.24964 146.641 1.86508 146.694C1.36516 148.308 1.30748 151.625 1.74972 153.062C2.19195 153.08 2.67264 153.133 3.13411 153.133C12.9979 153.098 22.8809 153.062 32.7447 153.044C46.3194 153.027 59.8749 153.027 73.4496 153.027C76.6606 153.027 79.8717 153.009 83.0827 152.991C83.6018 152.991 84.1787 153.115 84.6401 152.761C84.8709 151.182 84.7939 146.162 84.4671 144.548ZM84.4094 142.951C84.2171 141.124 83.6211 139.634 82.7174 138.215C81.8521 136.867 80.4677 136.175 78.8718 135.909C77.622 135.697 76.353 135.626 75.1032 135.59C73.4689 135.537 71.8345 135.59 70.2001 135.626C67.2391 135.697 64.278 135.821 61.2978 135.838C55.0103 135.874 48.7036 135.768 42.4162 136.105C38.4938 136.317 34.5521 136.371 30.6297 136.53C28.3992 136.619 26.1688 136.814 23.9384 136.974C19.593 137.275 15.2475 137.595 10.9021 137.896C9.82533 137.967 8.72935 138.056 7.65261 138.127C6.44126 138.198 5.46065 138.694 4.55695 139.404C2.88415 140.699 2.09581 142.402 1.82663 144.353C1.8074 144.548 1.90354 144.761 1.96122 145.062C2.98029 145.062 3.94167 145.098 4.90305 145.062C8.42171 144.974 11.9211 144.867 15.4398 144.761C19.7276 144.637 24.0346 144.53 28.3223 144.424C33.3407 144.3 38.3784 144.175 43.3968 144.069C46.5501 143.998 49.6842 143.945 52.8376 143.874C58.3367 143.732 63.855 143.555 69.3541 143.413C73.9495 143.288 78.5642 143.182 83.1596 143.058C83.5249 143.076 83.871 143.005 84.4094 142.951Z" fill="#3C3372"/>
        <path d="M84.8131 154.41C84.9477 156.024 85.14 157.461 85.1784 158.898C85.2938 162.197 85.4092 165.479 85.4476 168.778C85.4861 171.74 85.4669 174.703 85.4092 177.665C85.3899 179.119 85.2169 180.556 85.14 182.011C85.1015 182.685 85.1208 183.341 85.0631 184.015C84.9862 184.902 84.9285 185.807 84.7362 186.676C84.4478 187.918 83.4864 188.698 82.2943 189.212C80.7561 189.886 79.1025 190.277 77.372 190.259C76.353 190.241 75.3147 190.17 74.2956 190.135C72.9112 190.082 71.5076 190.028 70.1232 190.028C62.3168 189.957 54.4911 189.815 46.6847 190.046C43.839 190.135 40.9933 190.259 38.1476 190.294C32.8792 190.365 27.6109 190.401 22.3425 190.401C19.9198 190.401 17.4971 190.383 15.0744 190.259C12.6518 190.135 10.2483 189.957 7.84485 189.674C5.05684 189.354 3.80705 188.556 3.26867 185.541C3.09562 184.547 2.99949 183.554 2.9418 182.543C2.65339 177.186 2.48034 171.829 2.49957 166.454C2.49957 165.018 2.26884 163.563 2.09579 162.126C1.94197 160.69 1.71123 159.253 1.55741 157.798C1.46127 156.805 1.36514 155.812 1.53818 154.712C2.07656 154.659 2.53802 154.588 2.99949 154.57C6.09514 154.552 9.17156 154.57 12.2672 154.57C17.7086 154.57 23.1693 154.57 28.6107 154.552C46.5886 154.481 64.5856 154.41 82.5635 154.357C83.2365 154.357 83.8902 154.392 84.8131 154.41ZM77.795 178.108C77.0259 178.055 76.4299 178.002 75.853 178.002C68.6619 178.002 61.4515 178.002 54.2604 178.02C53.7797 178.02 53.299 178.055 52.8183 178.126C52.4338 178.197 52.1838 178.428 52.203 178.96C52.4145 179.084 52.6645 179.35 52.9721 179.421C53.3759 179.51 53.8182 179.474 54.2412 179.474C57.2599 179.474 60.2979 179.474 63.3166 179.456C67.489 179.439 71.6614 179.439 75.8338 179.421C76.4875 179.421 77.1797 179.563 77.8143 179.048C77.795 178.836 77.795 178.587 77.795 178.108ZM77.7181 183.625C76.0838 183.625 74.4686 183.589 72.8343 183.625C70.6039 183.678 68.3542 183.802 66.1238 183.873C62.0091 184.015 57.8944 184.122 53.7797 184.246C53.4721 184.263 53.1452 184.228 52.8952 184.334C52.6068 184.459 52.3761 184.725 52.1646 184.902C52.4145 185.718 53.0298 185.753 53.6451 185.736C55.6448 185.665 57.6252 185.576 59.6249 185.487C62.1053 185.399 64.5856 185.275 67.066 185.204C69.181 185.133 71.2961 185.133 73.4304 185.062C74.8724 185.008 76.3145 184.867 77.6989 184.778C78.1219 184.459 78.2565 184.139 77.7181 183.625ZM77.3913 172.521C76.6991 172.095 76.0261 172.237 75.3723 172.237C71.5076 172.29 67.6428 172.379 63.7781 172.432C60.6247 172.468 57.4906 172.468 54.3565 172.503C53.8182 172.503 53.2606 172.539 52.7222 172.592C52.3376 172.627 52.0684 172.964 52.0877 173.301C52.1069 173.603 52.4338 173.904 52.7991 173.958C52.9721 173.975 53.1644 173.975 53.3375 173.975C60.7209 173.887 68.0851 173.816 75.4685 173.727C75.8338 173.727 76.1991 173.763 76.5452 173.692C76.8721 173.621 77.1797 173.461 77.5643 173.319C77.4874 172.964 77.4297 172.698 77.3913 172.521ZM65.7585 167.838C65.5278 167.111 64.951 167.128 64.4126 167.128C60.7786 167.182 57.1445 167.235 53.5105 167.288C53.0298 167.288 52.5299 167.324 52.1069 167.785C52.1646 168.015 52.2607 168.299 52.3569 168.618C52.8568 168.654 53.2798 168.725 53.6836 168.725C56.4139 168.707 59.125 168.689 61.8553 168.654C62.8167 168.636 63.7973 168.565 64.7587 168.494C65.2009 168.477 65.5855 168.37 65.7585 167.838Z" fill="#5DB3C1"/>
        <path d="M84.4671 144.548C84.794 146.162 84.8709 151.182 84.6402 152.743C84.1787 153.115 83.6019 152.973 83.0827 152.973C79.8717 152.991 76.6607 153.009 73.4497 153.009C59.875 153.009 46.3195 153.009 32.7447 153.027C22.881 153.044 12.9979 153.08 3.13416 153.115C2.65347 153.115 2.19201 153.062 1.74977 153.044C1.30754 151.608 1.36522 148.291 1.86514 146.676C2.24969 146.641 2.6727 146.57 3.07648 146.552C8.40254 146.428 13.7286 146.304 19.0547 146.18C22.4964 146.091 25.9574 145.967 29.3991 145.878C34.8982 145.736 40.4166 145.63 45.9157 145.506C50.3957 145.399 54.8758 145.275 59.3558 145.169C63.6436 145.062 67.9506 144.956 72.2383 144.832C75.507 144.743 78.7757 144.637 82.0444 144.53C82.8135 144.53 83.6019 144.548 84.4671 144.548Z" fill="#F5F5F5"/>
        <path d="M84.4094 142.951C83.871 143.022 83.5249 143.076 83.1596 143.093C78.5642 143.217 73.9688 143.324 69.3541 143.448C63.855 143.59 58.3367 143.767 52.8376 143.909C49.6843 143.998 46.5502 144.033 43.3968 144.104C38.3784 144.211 33.3408 144.335 28.3224 144.459C24.0346 144.566 19.7276 144.672 15.4398 144.796C11.9212 144.885 8.42174 145.009 4.90308 145.098C3.9417 145.115 2.98032 145.098 1.96125 145.098C1.90357 144.796 1.7882 144.583 1.82666 144.388C2.07662 142.437 2.88418 140.734 4.55698 139.439C5.46068 138.747 6.44129 138.251 7.65263 138.162C8.74861 138.091 9.82536 138.002 10.9021 137.932C15.2476 137.63 19.593 137.311 23.9385 137.009C26.1689 136.849 28.3993 136.672 30.6297 136.566C34.5521 136.388 38.4938 136.335 42.4162 136.14C48.7037 135.803 55.0103 135.909 61.2978 135.874C64.2588 135.856 67.2199 135.714 70.2002 135.661C71.8345 135.626 73.4689 135.59 75.1032 135.626C76.3722 135.661 77.6413 135.732 78.8718 135.945C80.4677 136.211 81.8521 136.885 82.7174 138.251C83.6211 139.617 84.2171 141.124 84.4094 142.951Z" fill="#5DB3C1"/>
        <path d="M77.7951 178.108C77.7951 178.587 77.7951 178.853 77.7951 179.048C77.1605 179.563 76.4491 179.421 75.8146 179.421C71.6422 179.439 67.4698 179.456 63.2974 179.456C60.2787 179.456 57.2407 179.474 54.222 179.474C53.799 179.474 53.3567 179.51 52.9529 179.421C52.6453 179.35 52.3953 179.084 52.1838 178.96C52.1646 178.428 52.4338 178.179 52.7991 178.126C53.2798 178.037 53.7605 178.02 54.2412 178.02C61.4323 178.002 68.6427 178.002 75.8338 178.002C76.4299 177.984 77.0259 178.055 77.7951 178.108Z" fill="#F5F5F5"/>
        <path d="M77.7182 183.625C78.2373 184.139 78.1027 184.459 77.6797 184.813C76.2953 184.902 74.8532 185.044 73.4112 185.097C71.2961 185.168 69.1811 185.168 67.0468 185.239C64.5664 185.31 62.0861 185.416 59.6057 185.523C57.606 185.594 55.6256 185.683 53.6259 185.771C53.0106 185.789 52.3953 185.753 52.1454 184.938C52.3569 184.76 52.5876 184.494 52.876 184.37C53.126 184.263 53.4721 184.281 53.7605 184.281C57.8752 184.157 61.9899 184.033 66.1047 183.909C68.3351 183.838 70.5847 183.714 72.8151 183.66C74.4687 183.589 76.103 183.625 77.7182 183.625Z" fill="#F5F5F5"/>
        <path d="M77.3913 172.521C77.4297 172.716 77.4874 172.964 77.5451 173.284C77.1605 173.425 76.8529 173.603 76.526 173.656C76.1799 173.727 75.7954 173.692 75.4493 173.692C68.0659 173.78 60.7017 173.851 53.3183 173.94C53.1452 173.94 52.9529 173.94 52.7799 173.922C52.3953 173.869 52.0685 173.585 52.0685 173.266C52.0492 172.947 52.3184 172.61 52.703 172.556C53.2414 172.503 53.7797 172.468 54.3373 172.468C57.4714 172.432 60.6248 172.432 63.7589 172.397C67.6236 172.343 71.4884 172.273 75.3531 172.202C76.0261 172.219 76.6991 172.077 77.3913 172.521Z" fill="#F5F5F5"/>
        <path d="M65.7586 167.838C65.6047 168.37 65.201 168.477 64.7587 168.494C63.7973 168.547 62.836 168.636 61.8553 168.654C59.125 168.689 56.4139 168.707 53.6836 168.725C53.2606 168.725 52.8568 168.672 52.3569 168.618C52.2608 168.299 52.1838 167.998 52.1069 167.785C52.5492 167.324 53.0299 167.288 53.5106 167.288C57.1446 167.235 60.7786 167.182 64.4126 167.128C64.951 167.111 65.5278 167.111 65.7586 167.838Z" fill="#F5F5F5"/>
        <path d="M101.08 162.712H95.2153V161.364H101.08C105.444 161.364 109.002 158.082 109.002 154.055V128.779H110.463V154.073C110.463 158.845 106.252 162.712 101.08 162.712Z" fill="#3C3372"/>
        <path d="M109.713 129.453C108.136 129.453 106.848 128.264 106.848 126.81C106.848 125.355 108.136 124.167 109.713 124.167C111.29 124.167 112.578 125.355 112.578 126.81C112.578 128.264 111.309 129.453 109.713 129.453ZM109.713 125.515C108.944 125.515 108.309 126.1 108.309 126.81C108.309 127.519 108.944 128.105 109.713 128.105C110.482 128.105 111.117 127.519 111.117 126.81C111.117 126.1 110.482 125.515 109.713 125.515Z" fill="#3C3372"/>
        <path d="M93.081 164.681C91.5043 164.681 90.2161 163.492 90.2161 162.038C90.2161 160.583 91.5043 159.395 93.081 159.395C94.6577 159.395 95.9459 160.583 95.9459 162.038C95.9459 163.492 94.6769 164.681 93.081 164.681ZM93.081 160.76C92.3119 160.76 91.6774 161.328 91.6774 162.055C91.6774 162.765 92.3119 163.35 93.081 163.35C93.8501 163.35 94.4654 162.765 94.4654 162.055C94.4846 161.328 93.8501 160.76 93.081 160.76Z" fill="#3C3372"/>
        <path d="M189.392 223.181C189.065 224.937 188.7 226.693 188.335 228.431C188.239 228.928 188.104 229.442 187.912 229.886C187.489 230.915 186.7 231.5 185.431 231.5C182.816 231.482 180.201 231.5 177.606 231.536C169.742 231.642 161.858 231.748 153.994 231.855L154.09 246.365C154.302 248.812 154.494 251.225 154.706 253.673C155.013 257.114 155.34 260.573 155.667 264.014C155.821 265.451 155.955 266.923 156.052 268.36C156.09 269.087 156.071 269.797 156.071 270.684C152.206 271.038 148.476 271.393 144.746 271.712C144.515 271.748 144.284 271.659 144.034 271.641C143.938 271.411 143.804 271.198 143.784 270.985C142.323 261.708 140.843 252.431 139.362 243.048L137.708 232.103C135.863 232.139 134.055 232.156 132.209 232.103C126.768 231.961 121.326 232.493 115.885 232.493C115.75 232.493 115.635 232.493 115.52 232.511C114.328 232.618 113.885 233.061 113.981 234.125C114.097 235.225 114.231 236.343 114.347 237.46C114.827 241.735 115.289 246.028 115.77 250.285C116.193 254.01 116.616 257.717 117.039 261.442C117.346 264.049 117.616 266.657 117.885 269.264C117.942 269.832 117.904 270.364 117.904 270.914C117.519 271.322 117.019 271.304 116.539 271.304C115.077 271.358 113.635 271.393 112.174 271.446C108.482 271.624 104.791 271.801 101.099 271.978C100.868 271.978 100.637 271.925 100.33 271.925C100.234 271.659 100.08 271.411 100.041 271.145C99.8107 269.14 99.5223 267.154 99.3492 265.149C99.0416 261.371 98.7724 257.575 98.5609 253.779C98.3686 250.09 98.3302 246.418 98.1187 242.728C97.9648 239.606 97.638 236.502 97.2727 233.398C96.8881 230.276 96.8689 227.154 97.4457 224.05C97.6188 223.092 98.0225 222.241 98.5417 221.407C100.541 218.303 103.599 216.706 107.348 216.032C108.713 215.784 110.097 215.713 111.501 215.678C114.885 215.624 118.269 215.5 121.673 215.412C123.845 215.358 126.037 215.341 128.21 215.27C133.651 215.146 139.093 215.021 144.553 214.879C148.918 214.755 153.264 214.667 157.628 214.525C159.493 214.471 161.358 214.347 163.185 214.259C167.338 216.263 171.511 218.037 175.914 219.332C180.298 220.627 184.72 221.709 189.392 222.223C189.392 222.649 189.431 222.915 189.392 223.181Z" fill="#5DB3C1"/>
        <path d="M227.04 121.417C226.675 121.382 226.386 121.364 226.002 121.346C225.829 120.832 225.675 120.371 225.521 119.892C225.271 119.04 225.06 118.154 224.752 117.302C224.329 116.078 223.56 115.12 222.195 114.641C221.868 114.535 221.56 114.322 221.176 114.109C221.253 113.772 221.253 113.453 221.387 113.187C221.483 113.009 221.733 112.885 221.964 112.797C223.464 112.069 224.483 110.899 225.521 109.728C226.233 108.93 226.694 108.043 226.617 106.961C226.598 106.801 226.694 106.641 226.732 106.5C227.117 106.074 227.54 105.985 228.098 106.251C228.598 106.783 228.732 107.528 229.059 108.167C229.424 108.876 229.77 109.586 230.213 110.242C230.905 111.342 231.885 112.14 233.27 112.46C233.712 112.566 234.039 112.761 234.116 113.311C233.981 113.471 233.827 113.719 233.597 113.879C233.212 114.162 232.789 114.375 232.385 114.624C230.155 116.007 228.482 117.781 227.655 120.176C227.521 120.601 227.252 120.992 227.04 121.417ZM227.79 109.373C227.232 110.047 226.829 110.526 226.425 110.987C226.002 111.449 225.54 111.892 225.098 112.353C224.694 112.797 224.098 113.098 223.771 113.63C224.214 114.003 224.579 114.269 224.906 114.606C225.175 114.89 225.425 115.227 225.617 115.564C225.848 115.954 226.021 116.362 226.213 116.77C226.406 117.142 226.444 117.586 226.829 117.958C227.559 117.089 228.175 116.273 228.886 115.546C229.597 114.819 230.443 114.18 231.309 113.435C229.79 112.353 228.771 111.023 227.79 109.373Z" fill="#3C3372"/>
        <path d="M213.427 106.641C213.158 106.641 212.927 106.641 212.658 106.641C212.523 106.464 212.331 106.304 212.273 106.109C211.735 103.555 210.447 101.409 208.139 99.8301C207.928 99.6882 207.812 99.3689 207.735 99.1205C207.697 98.9964 207.812 98.8013 207.889 98.5884C209.158 98.1982 210.523 97.9853 211.523 96.9388C212.446 95.9632 212.773 94.8102 213.004 93.5153C213.427 93.4798 213.811 93.4266 214.273 93.3911C214.523 93.9055 214.734 94.3667 214.965 94.8102C215.273 95.4133 215.542 96.0341 215.907 96.6195C216.561 97.666 217.484 98.4465 218.676 98.9432C219.099 99.1205 219.503 99.3334 220.041 99.5995C219.849 99.972 219.753 100.309 219.541 100.504C219.253 100.77 218.83 100.93 218.484 101.125C216.388 102.278 214.773 103.803 213.946 105.95C213.888 106.109 213.792 106.251 213.715 106.393C213.658 106.446 213.6 106.482 213.427 106.641ZM213.888 96.4953C213.215 97.2048 212.754 97.7902 212.196 98.2869C211.658 98.7658 211.004 99.1383 210.466 99.5285C211.427 100.894 212.35 102.189 213.292 103.537C213.811 102.987 214.292 102.438 214.83 101.941C215.388 101.426 216.003 101.001 216.599 100.504C216.792 100.344 216.946 100.132 217.195 99.8655C215.715 99.0496 214.907 97.7902 213.888 96.4953Z" fill="#3C3372"/>
        <path d="M181.086 110.579C181.297 111.182 181.105 111.555 180.644 111.821C180.24 112.052 179.798 112.264 179.375 112.477C178.029 113.116 176.99 114.003 176.721 115.457C176.644 115.865 176.394 116.167 175.933 116.291C175.452 116.273 175.183 116.007 175.068 115.582C174.952 115.156 174.875 114.712 174.76 114.269C174.202 112.247 173.818 111.697 172.203 110.349C171.934 109.852 172.145 109.497 172.626 109.231C173.241 108.877 173.876 108.539 174.472 108.167C175.645 107.475 176.414 106.5 176.664 105.222C176.741 104.779 176.76 104.3 177.51 104.14C177.683 104.318 178.01 104.513 178.106 104.779C178.317 105.347 178.413 105.967 178.548 106.571C178.894 108.202 179.663 109.622 181.086 110.579ZM177.029 107.83C176.298 108.983 175.068 109.267 174.395 110.136C174.972 111.058 175.51 111.91 176.087 112.814C177.087 112.158 178.01 111.555 178.971 110.916C178.356 109.959 177.798 109.054 177.029 107.83Z" fill="#3C3372"/>
        <path d="M227.79 109.373C228.771 111.023 229.809 112.353 231.309 113.417C230.443 114.18 229.597 114.801 228.886 115.528C228.155 116.256 227.559 117.089 226.829 117.941C226.444 117.568 226.406 117.125 226.213 116.752C226.002 116.344 225.848 115.936 225.617 115.546C225.425 115.209 225.175 114.872 224.906 114.588C224.598 114.251 224.214 113.985 223.771 113.613C224.098 113.08 224.694 112.779 225.098 112.335C225.521 111.874 225.983 111.431 226.425 110.97C226.829 110.526 227.213 110.047 227.79 109.373Z" fill="#FFBD5C"/>
        <path d="M213.888 96.4953C214.907 97.7902 215.696 99.0496 217.196 99.8655C216.946 100.132 216.792 100.344 216.599 100.504C216.023 100.983 215.388 101.426 214.831 101.941C214.292 102.438 213.811 103.005 213.292 103.537C212.331 102.189 211.427 100.894 210.466 99.5285C211.004 99.1383 211.639 98.7658 212.196 98.2868C212.754 97.7902 213.235 97.2048 213.888 96.4953Z" fill="#FFBD5C"/>
        <path d="M177.029 107.83C177.779 109.036 178.356 109.959 178.971 110.934C178.01 111.573 177.087 112.176 176.087 112.832C175.51 111.927 174.972 111.076 174.395 110.154C175.068 109.267 176.298 108.983 177.029 107.83Z" fill="#FFBD5C"/>
        <path d="M234.904 183.66C234.75 183.714 234.597 183.82 234.443 183.838C227.04 184.388 219.657 185.026 212.35 185.558C212.35 185.594 212.35 185.629 212.35 185.629L209.447 185.931C209.447 190.702 209.466 195.474 209.466 200.246C209.466 200.512 209.408 200.778 209.37 201.115C208.966 201.168 208.62 201.274 208.274 201.274C206.697 201.257 205.14 201.221 203.563 201.186C202.659 201.168 201.736 201.115 200.833 201.15C199.391 201.186 198.141 201.682 197.045 202.569C195.661 203.704 194.622 205.035 193.949 206.649C193.026 208.902 192.353 211.225 191.757 213.567C191.219 215.678 190.681 217.806 190.161 219.935C190.085 220.201 189.95 220.449 189.873 220.68C189.219 220.928 188.623 220.804 188.027 220.715C178.836 219.332 170.242 216.494 162.204 212.148C161.935 212.006 161.685 211.864 161.435 211.704C161.339 211.633 161.301 211.527 161.166 211.35C164.935 197.975 169.415 184.689 173.587 171.35C173.683 171.315 173.779 171.279 173.876 171.244C173.914 171.19 173.953 171.155 173.991 171.102C173.972 170.658 174.087 170.197 174.222 169.736V169.683C172.049 169.488 169.895 169.31 167.723 169.097C163.82 168.707 159.897 168.459 156.071 167.98C155.532 166.117 155.782 159.998 156.551 156.06C157.667 150.171 158.417 147.794 159.686 146.144C160.801 146.233 161.935 146.322 163.07 146.41C165.358 146.588 167.646 146.747 169.953 146.942C172.491 147.138 175.01 147.35 177.548 147.528C179.182 147.652 180.798 147.794 182.432 147.936C186.354 148.255 190.258 148.645 194.18 148.876C197.449 149.071 200.698 149.444 203.909 149.993C205.351 150.242 206.716 150.685 207.985 151.342C210.216 152.495 212.312 153.843 214.234 155.368C217.234 157.745 220.003 160.317 222.214 163.35C224.137 165.993 226.117 168.618 228.021 171.261C230.539 174.756 232.616 178.481 234.597 182.259C234.789 182.667 235.154 183.093 234.904 183.66Z" fill="white"/>
        <path d="M156.994 147.563C156.628 148.876 156.244 150.1 155.936 151.324C155.609 152.636 155.34 153.949 155.09 155.279C154.84 156.539 154.783 157.816 154.417 159.093C153.994 159.022 153.629 159.004 153.302 158.898C151.091 158.171 148.841 157.443 146.649 156.681C144.477 155.918 142.535 154.783 140.669 153.523C138.054 151.75 136.843 149.248 136.42 146.393C135.882 142.685 135.516 138.96 134.92 135.253C134.247 131.031 134.17 126.792 133.805 122.57C133.69 121.293 133.555 120.016 133.401 118.739C133.075 116.22 132.709 113.701 132.363 111.182L139.324 109.639C141.669 118.934 144.034 128.229 146.38 137.524C146.957 139.759 147.514 141.976 148.091 144.211C148.514 145.914 148.976 146.286 150.879 146.57C152.61 146.818 154.34 147.067 156.071 147.315C156.34 147.333 156.609 147.457 156.994 147.563Z" fill="#FFBD5C"/>
        <path d="M142.035 98.7303C141.073 101.657 140.016 104.584 138.901 107.741C138.939 107.99 139.016 108.486 139.131 108.965C139.189 109.178 139.247 109.409 139.304 109.622L132.344 111.165C132.325 111.023 132.305 110.881 132.286 110.739C132.152 109.799 132.055 108.859 131.94 107.812C131.613 107.457 131.248 107.014 130.863 106.588C129.96 105.542 129.191 104.407 128.575 103.183C127.595 101.231 127.46 99.2093 127.652 97.1162C127.768 95.9277 128.364 95.0053 129.441 94.349C130.998 93.4089 132.652 92.7881 134.555 92.859C134.92 92.8767 135.305 92.93 135.632 92.859C135.882 92.8058 136.093 92.5575 136.382 92.3623C136.228 92.0076 136.17 91.6706 135.997 91.4045C134.978 89.8081 133.921 88.2471 132.921 86.6507C132.075 85.3026 131.229 83.9545 130.46 82.5532C130.113 81.9146 129.998 81.1696 129.825 80.4778C129.767 80.2827 129.864 80.0344 129.921 79.8215C129.94 79.7328 130.075 79.6796 130.267 79.52C130.498 79.6264 130.883 79.6796 131.113 79.8747C131.767 80.4423 132.421 81.0454 132.998 81.684C135.44 84.3979 137.747 87.2006 139.747 90.1983C140.708 91.6351 141.573 93.1073 142.015 94.7393C142.4 96.0873 142.477 97.4354 142.035 98.7303Z" fill="#EAD6C1"/>
        <path d="M216.369 120.832C215.85 120.158 215.196 119.555 214.581 118.952C214.254 118.632 213.869 118.349 213.542 118.083C213.542 117.249 213.485 116.468 213.561 115.688C213.677 114.464 213.177 113.488 212.254 112.69C211.466 112.016 210.62 111.36 209.754 110.757C208.735 110.047 207.678 109.409 206.659 108.717C203.486 106.553 200.967 103.874 199.295 100.575C198.852 99.7237 198.468 98.8368 198.026 97.9853C197.679 97.329 197.314 96.6904 196.891 96.0873C196.564 95.6261 196.199 95.165 195.43 95.0231C195.238 95.2359 194.968 95.4665 194.834 95.7503C194.661 96.1051 194.622 96.5131 194.43 96.8501C194.276 97.1162 193.968 97.329 193.757 97.5419C192.334 97.3468 192.315 95.6439 190.815 95.5375C190.642 95.7681 190.354 96.0164 190.296 96.3002C190.2 96.7791 190.277 97.2935 190.238 97.7902C190.219 98.1627 190.123 98.5175 190.046 98.9964C189.642 98.89 189.315 98.89 189.123 98.7303C188.623 98.3223 188.2 97.8612 187.719 97.4354C187.277 97.0452 186.835 96.655 186.143 96.7791C185.528 97.0984 185.354 97.6483 185.451 98.2159C185.585 98.9787 185.758 99.7591 186.047 100.486C187.104 103.183 188.508 105.719 190.142 108.132C192.584 111.75 195.43 115.085 199.083 117.746C199.314 117.905 199.487 118.136 199.621 118.26C199.737 118.881 199.371 119.2 199.045 119.519C198.795 119.768 198.564 120.016 198.333 120.282C197.468 120.637 196.68 121.471 196.199 123.191C196.122 123.315 196.007 123.475 196.084 123.67C195.026 128.193 196.987 131.918 199.179 135.164C199.179 135.182 199.198 135.182 199.218 135.2C199.891 136.264 200.814 137.399 201.756 138.269C202.102 137.665 202.429 137.08 202.775 136.495C203.063 136.016 203.448 135.714 204.217 135.945C204.332 136.105 204.505 136.317 204.659 136.548C204.813 136.761 204.736 137.133 205.274 137.116C207.351 134.402 210.197 132.309 212.735 129.914C213.369 129.311 214.004 128.725 214.6 128.087C215.542 127.058 216.35 125.958 216.869 124.681C217.388 123.298 217.272 122.003 216.369 120.832Z" fill="#5DB3C1"/>
        <path d="M229.405 207.731C229.097 209.948 228.732 212.148 228.309 214.347C227.271 219.846 226.175 225.345 225.117 230.844C224.79 232.511 224.367 234.108 223.291 235.527C222.368 236.733 221.253 237.744 219.887 238.507C218.907 239.056 217.868 239.518 216.849 240.014C216.253 240.316 215.58 240.351 214.907 240.351C210.62 240.422 206.313 240.493 202.006 240.546C198.314 240.6 194.622 240.635 190.931 240.671C190.719 240.706 190.488 240.724 190.219 240.724C187.989 240.724 185.047 240.759 182.297 240.795C178.125 240.866 174.433 240.937 174.433 240.937C171.607 240.972 168.78 240.99 165.973 241.025C159.609 241.114 153.264 241.221 146.899 241.309C140.727 241.398 134.555 241.487 128.383 241.575C128.325 241.575 128.268 241.54 128.056 241.504C126.922 240.813 126.21 239.89 125.903 238.684C125.46 236.892 126.229 235.509 127.498 234.285C127.941 233.859 128.537 233.753 129.171 233.717C131.344 233.646 133.517 233.522 135.709 233.504C141.65 233.434 147.572 233.434 153.513 233.345C160.109 233.274 166.704 233.15 173.299 233.026C174.952 232.99 176.587 232.955 178.221 232.919L184.643 232.866L188.969 232.83C189.835 228.609 190.661 224.387 191.603 220.183C192.353 216.902 193.257 213.656 194.161 210.427C194.507 209.186 195.026 207.979 195.507 206.773C196.007 205.478 196.93 204.449 198.064 203.563C198.929 202.889 199.891 202.498 201.063 202.534C202.333 202.569 203.602 202.605 204.871 202.605C210.447 202.569 216.023 202.534 221.579 202.498C222.541 202.498 223.521 202.427 224.483 202.339C225.463 202.268 226.425 202.303 227.386 202.498C228.655 202.747 229.424 203.456 229.501 204.662C229.578 205.727 229.559 206.738 229.405 207.731Z" fill="#FFBD5C"/>
        <path d="M174.472 240.954C174.472 240.954 178.163 240.884 182.336 240.813C181.99 240.866 181.624 240.901 181.259 240.901C178.99 240.919 176.721 240.937 174.472 240.954Z" fill="#FFBD5C"/>
        <path d="M184.662 232.919L178.24 232.972C179.567 232.937 180.894 232.901 182.22 232.884C182.874 232.866 183.547 232.848 184.22 232.866C184.374 232.884 184.528 232.884 184.662 232.919Z" fill="#FFBD5C"/>
        <path d="M196.295 132.717C196.43 133.674 196.891 134.526 197.449 135.324C198.314 136.53 199.179 137.754 200.102 138.925C200.967 140.007 201.371 140.113 202.929 139.83C203.005 140.078 203.121 140.344 203.14 140.61C203.275 143.111 203.409 145.612 203.544 148.22C203.198 148.255 202.909 148.362 202.64 148.326C199.429 147.758 196.16 147.546 192.911 147.333C192.738 147.315 192.565 147.244 192.315 147.173C192.238 146.872 192.103 146.57 192.103 146.251C192.046 143.519 192.007 140.787 191.95 138.056C191.95 137.79 191.911 137.524 191.892 137.222C191.104 136.761 190.219 136.832 189.412 136.69C186.72 136.211 184.585 134.952 183.105 132.805C182.067 131.315 181.567 129.666 181.451 127.91C181.317 125.976 181.682 124.114 182.393 122.322C183.855 118.632 186.393 115.723 189.95 113.577C190.45 113.276 190.988 113.045 191.584 112.726C192.584 113.79 193.507 114.819 194.507 115.777C195.507 116.752 196.564 117.657 197.66 118.65C196.853 119.75 196.064 120.779 195.334 121.861C194.603 122.943 193.776 123.989 193.296 125.142C193.815 126.029 193.988 126.171 194.641 126.012C196.026 125.639 197.449 125.337 198.737 124.699C199.506 124.326 200.294 124.096 201.16 124.149C201.986 124.202 202.486 124.61 202.659 125.355C203.179 127.643 201.583 130.411 199.218 131.227C198.66 131.422 198.083 131.564 197.449 131.404C196.622 131.209 196.007 130.854 195.737 130.074C195.661 129.807 195.564 129.541 195.411 129.293C195.218 128.956 194.891 128.85 194.488 128.992C194.161 129.187 194.045 129.47 194.103 129.843C194.315 130.943 194.795 131.865 195.891 132.433C196.007 132.486 196.122 132.592 196.295 132.717Z" fill="#EAD6C1"/>
        <path d="M211.177 201.186C211.081 200.724 210.985 200.405 210.966 200.086C210.831 198.064 210.927 193.541 211.139 192.334C213.388 191.838 215.773 191.962 217.984 191.518C218.388 191.164 218.484 190.827 218.349 190.401C218.138 189.816 217.926 189.23 217.734 188.645C217.542 188.059 217.349 187.474 217.138 186.818C217.407 186.711 217.599 186.587 217.811 186.569C221.849 186.25 225.867 185.931 229.943 185.612C230.097 185.824 230.27 185.984 230.366 186.179C231.251 188.006 232.135 189.851 233.001 191.696C233.77 193.363 234.058 195.119 233.924 196.928C233.847 198.081 233.328 198.933 232.308 199.589C231.193 200.334 229.943 200.707 228.598 200.778C226.175 200.902 223.771 201.026 221.349 201.097C218.503 201.168 215.677 201.203 212.831 201.239C212.312 201.257 211.831 201.221 211.177 201.186Z" fill="#FFBD5C"/>
        <path d="M108.828 294.116C109.29 294.328 109.617 294.47 109.944 294.63C111.674 295.517 113.539 295.925 115.5 295.925C116.712 295.925 117.923 295.925 119.134 295.925C119.615 295.925 120.077 295.96 120.519 295.996C121.019 297.379 121.557 301.778 121.442 303.57C121.134 303.641 120.807 303.765 120.48 303.783C116.135 303.907 111.77 304.013 107.425 304.138C102.233 304.28 97.0419 304.439 91.8312 304.581C91.4274 304.599 91.0429 304.51 90.543 304.457C90.6583 303.659 91.0429 303.091 91.5236 302.612C92.3504 301.796 93.1964 300.98 94.1385 300.324C95.1961 299.579 96.3305 298.94 97.5034 298.373C101.099 296.581 104.887 295.251 108.828 294.116Z" fill="#4F9BA3"/>
        <path d="M120.423 294.435C117.442 294.648 114.635 294.754 111.79 293.85C111.636 293.388 111.424 292.927 111.328 292.448C109.905 286.453 108.502 280.475 107.098 274.48C107.021 274.107 107.002 273.717 106.963 273.344C107.213 273.256 107.367 273.149 107.54 273.149C111.04 273.114 114.52 272.741 118.077 272.759C118.673 274.55 118.577 276.342 118.846 278.098C119.115 279.925 119.211 281.752 119.423 283.597C119.615 285.371 119.884 287.145 120.038 288.918C120.134 290.674 120.596 292.43 120.423 294.435Z" fill="#EAD6C1"/>
        <path d="M149.072 294.24C151.802 296.067 154.994 296.244 158.243 296.226C158.878 297.344 158.59 298.55 158.782 299.685C158.974 300.821 159.09 301.991 158.955 303.091C158.82 303.198 158.782 303.233 158.724 303.268C158.667 303.304 158.609 303.322 158.57 303.322C156.282 303.428 153.994 303.552 151.687 303.623C145.707 303.783 139.727 303.925 133.747 304.067C133.651 304.067 133.536 303.978 133.421 303.925C133.171 303.517 133.44 303.18 133.613 302.843C134.324 301.512 135.363 300.43 136.516 299.455C139.67 296.759 143.4 295.162 147.591 294.47C148.091 294.399 148.572 294.328 149.072 294.24Z" fill="#4F9BA3"/>
        <path d="M146.668 273.06C147.457 272.954 148.053 272.812 148.63 272.777C151.149 272.688 153.648 272.174 156.167 272.386C156.263 272.599 156.378 272.741 156.398 272.901C157.013 279.943 157.647 287.003 158.244 294.045C158.263 294.204 158.147 294.364 158.07 294.612C155.898 295.002 153.802 294.577 151.648 293.974C150.879 291.721 150.552 289.397 149.976 287.127C149.36 284.803 148.88 282.444 148.322 280.102C147.803 277.85 147.265 275.562 146.668 273.06Z" fill="#EAD6C1"/>
        <path d="M128.71 217.611C127.941 216.653 127.479 216.831 126.345 216.671C126.056 216.636 125.806 216.689 125.576 216.76C124.345 216.706 123.134 216.653 121.903 216.6C120.48 216.547 118.865 216.299 117.462 216.529C115.847 216.795 115.039 218.409 116.25 219.598C117.75 221.07 121.365 220.467 123.307 220.52C125.134 220.556 127.787 220.822 128.71 218.959C128.902 218.569 129.018 218.019 128.71 217.611Z" fill="#F5F5F5"/>
        <path d="M136.362 216.228C136.093 216.228 135.863 216.281 135.67 216.369C134.901 216.511 134.267 217.061 134.094 217.824C133.844 218.906 134.747 219.882 135.901 220.006C136.997 220.13 138.054 219.491 138.343 218.498C138.651 217.31 137.631 216.263 136.362 216.228Z" fill="#F5F5F5"/>
        <path d="M139.862 118.171C139.689 117.142 139.554 114.996 138.343 114.393C138.131 113.808 136.978 113.896 136.901 114.659C136.785 115.706 136.555 124.433 139.516 122.553C140.785 121.737 140.054 119.289 139.862 118.171Z" fill="#F5F5F5"/>
        <path d="M141.362 126.863C141.266 126.561 140.977 126.384 140.65 126.366C140.477 126.349 140.304 126.349 140.131 126.331C139.843 126.313 139.65 126.437 139.535 126.615C139.4 126.757 139.343 126.952 139.439 127.182C139.554 127.448 139.67 127.732 139.785 127.998C140.016 128.548 140.746 128.672 141.131 128.158C141.458 127.768 141.516 127.324 141.362 126.863Z" fill="#F5F5F5"/>
        <path d="M153.956 150.064C153.667 149 152.687 148.308 151.533 148.255C151.398 148.255 151.283 148.273 151.187 148.326C150.226 148.078 149.187 148.095 149.207 149.124C149.226 149.834 150.033 150.118 150.649 150.348C151.495 150.668 152.341 150.827 153.244 150.916C153.744 150.969 154.052 150.455 153.956 150.064Z" fill="#F5F5F5"/>
        <path d="M203.505 109.196C203.352 108.451 202.794 107.724 202.371 107.085C201.852 106.287 201.313 105.435 200.66 104.744C200.352 104.424 199.814 104.052 199.295 103.91C198.545 103.395 197.199 103.005 196.776 104.016C196.18 105.4 197.641 107.174 198.429 108.202C199.198 109.214 200.41 110.721 201.794 111.023C202.948 111.253 203.717 110.189 203.505 109.196Z" fill="#F5F5F5"/>
        <path d="M204.755 112.158C204.678 112.282 204.659 112.389 204.659 112.495C204.64 112.584 204.621 112.69 204.64 112.797C204.755 113.453 205.044 114.109 205.774 114.34C206.466 114.553 207.255 114.233 207.428 113.559C207.793 112.264 205.659 110.739 204.755 112.158Z" fill="#F5F5F5"/>
        <path opacity="0.1" d="M216.484 185.629L230.828 184.991C230.828 184.991 240.538 200.192 228.694 202.356C228.694 202.356 230.962 202.818 229.559 209.061C228.155 215.305 226.828 225.877 226.828 225.877C226.828 225.877 227.694 238.489 216.484 240.954L188.777 241.593C188.777 241.593 191.565 240.848 193.565 235.686C195.564 230.524 199.544 210.143 200.756 207.323C201.66 205.194 214.715 205.301 221.099 205.478C222.983 205.531 224.54 204.112 224.502 202.374L223.637 201.239L206.332 202.339L210.062 165.834L210.331 191.944L217.657 190.667L216.484 185.629Z" fill="black"/>
        <path opacity="0.1" d="M166.011 232.139C166.011 232.139 176.798 232.99 179.586 225.026C179.586 225.026 169.684 221.443 164.723 214.33C164.723 214.33 176.26 219.527 185.451 220.804C185.451 220.804 186.585 201.381 193.699 201.274C200.833 201.168 207.043 201.274 207.043 201.274C207.043 201.274 196.506 199.873 193.968 207.855C191.43 215.837 188.123 232.192 188.123 232.192L166.011 232.139Z" fill="black"/>
        <path opacity="0.1" d="M200.467 148.308V138.251C200.467 138.251 218.157 124.06 214.715 117.958C214.715 117.958 223.233 123.581 213.715 129.754C204.198 135.927 203.717 139.812 203.544 142.402C203.371 144.991 203.371 144.991 203.371 144.991L204.313 149.036L200.467 148.308Z" fill="black"/>
        <path opacity="0.1" d="M115.5 232.547L112.366 232.777C110.905 232.884 109.828 234.072 109.982 235.402L113.712 272.049L106.002 272.333L106.963 275.899L120.461 281.983L113.981 234.179L115.5 232.547Z" fill="black"/>
        <path opacity="0.1" d="M139.323 245.158L150.302 246.01L152.456 271.766H156.225L154.052 241.611L138.458 242.675L139.323 245.158Z" fill="black"/>
        <path d="M154.379 220.751C154.206 220.538 154.11 220.396 153.937 220.183C154.148 219.953 154.321 219.598 154.59 219.509C155.321 219.279 156.109 219.137 156.878 218.977C158.993 218.534 161.108 218.072 163.243 217.629C163.531 217.576 163.839 217.487 164.127 217.522C164.435 217.54 164.723 217.735 164.723 218.055C164.723 218.25 164.666 218.534 164.512 218.64C164.3 218.817 163.993 218.924 163.704 218.995C161.051 219.562 158.417 220.13 155.763 220.68C155.302 220.786 154.821 220.733 154.379 220.751Z" fill="#3C3372"/>
        <path d="M236.154 182.028C234.116 178.02 231.905 174.117 229.27 170.428C227.578 168.051 225.771 165.727 224.079 163.333C221.887 160.211 219.214 157.461 216.196 155.031C213.004 152.459 209.697 149.993 205.544 148.787C205.428 148.752 205.351 148.663 205.14 148.521C205.005 145.754 204.659 142.934 204.717 140.042C205.447 139.652 205.928 139.12 206.274 138.446C206.563 137.896 206.947 137.364 207.37 136.92C208.37 135.874 209.428 134.863 210.485 133.87C211.927 132.521 213.427 131.209 214.888 129.878C216.1 128.761 217.061 127.484 217.849 126.082C219.061 123.936 219.041 121.187 216.869 119.094C216.253 118.491 215.619 117.887 214.965 117.267C215.004 116.93 215.061 116.593 215.1 116.273C215.273 114.446 214.734 112.832 213.215 111.59C212.312 110.845 211.37 110.154 210.408 109.462C209.504 108.823 208.524 108.238 207.601 107.617C204.39 105.471 201.967 102.739 200.352 99.3866C199.987 98.6239 199.679 97.8257 199.256 97.0807C198.814 96.2825 198.314 95.5197 197.756 94.7925C197.449 94.4022 197.006 94.0652 196.545 93.7991C195.718 93.3379 194.93 93.4266 194.199 94.012C193.853 94.2958 193.565 94.6506 193.219 94.9876C192.873 94.7747 192.584 94.5619 192.276 94.4022C190.969 93.675 189.873 93.9233 189.046 95.1472C188.873 95.4133 188.719 95.6971 188.546 95.9809C188.123 95.7858 187.816 95.5907 187.47 95.4842C185.701 94.8812 184.316 95.6261 183.989 97.329C183.816 98.2337 183.951 99.1206 184.259 99.972C184.566 100.877 184.912 101.781 185.335 102.633C186.7 105.382 188.162 108.078 190.027 110.562C190.219 110.828 190.546 111.058 190.354 111.537C190.008 111.732 189.604 111.981 189.2 112.211C185.739 114.269 183.182 117.036 181.471 120.477C180.125 123.191 179.663 126.029 180.048 128.974C180.586 133.231 183.778 136.938 188.623 137.914C189.104 138.002 189.565 138.127 190.277 138.286C190.392 141.195 190.642 144.016 190.527 146.925C189.835 146.925 189.238 146.96 188.642 146.925C184.97 146.623 181.278 146.322 177.606 146.002C176.337 145.896 175.087 145.736 173.818 145.665C169.338 145.399 164.858 145.24 160.416 144.672C159.82 144.601 159.205 144.53 158.551 144.814C158.263 145.151 157.955 145.559 157.571 146.02C154.994 145.683 152.437 145.382 149.841 144.867C146.707 132.504 143.592 120.229 140.496 107.972C141.4 105.347 142.265 102.792 143.188 100.256C143.534 99.2979 143.746 98.3223 143.804 97.3113C143.919 95.1827 143.381 93.196 142.265 91.3513C141.4 89.9322 140.496 88.5486 139.516 87.2183C137.535 84.5398 135.42 81.9501 133.017 79.5732C132.575 79.1297 132.075 78.6863 131.536 78.3492C129.883 77.3204 128.421 78.5089 128.364 79.7683C128.306 80.9213 128.46 82.0033 129.017 83.0321C129.767 84.3802 130.536 85.6928 131.363 87.0054C132.132 88.2116 132.959 89.3823 133.767 90.5708C133.921 90.8014 134.132 91.032 133.844 91.369C133.478 91.44 133.075 91.5464 132.652 91.5996C130.844 91.8479 129.344 92.6461 127.941 93.6572C127.056 94.2958 126.518 95.165 126.287 96.1938C125.826 98.3756 125.922 100.522 126.71 102.633C127.402 104.442 128.402 106.109 129.748 107.546C130.344 108.185 130.613 108.859 130.633 109.675C130.652 110.278 130.767 110.899 130.844 111.502C131.248 114.499 131.729 117.479 132.036 120.477C132.363 123.706 132.536 126.934 132.786 130.18C132.863 131.067 132.921 131.954 133.036 132.841C133.44 135.945 133.863 139.049 134.286 142.153C134.517 143.821 134.69 145.488 134.978 147.138C135.497 150.171 136.939 152.761 139.67 154.623C141.958 156.202 144.419 157.497 147.149 158.366C149.033 158.969 150.918 159.608 152.783 160.246C153.283 160.423 153.763 160.619 154.225 160.796C154.225 162.233 154.206 163.563 154.225 164.893C154.244 166.224 154.033 167.572 154.36 168.831C155.475 169.452 155.475 169.434 160.07 169.771C162.07 169.913 164.05 170.162 166.031 170.339C167.953 170.499 169.857 170.641 171.761 170.907C171.607 172.468 170.761 175.341 168.838 181.159C167.723 184.53 166.608 187.882 165.55 191.27C164.454 194.693 163.416 198.135 162.377 201.594C161.358 204.982 160.359 208.37 159.359 211.74C159.628 212.166 159.878 212.538 160.128 212.911C159.955 212.964 159.839 213.035 159.724 213.035C156.032 213.159 152.341 213.283 148.649 213.389C142.842 213.549 137.016 213.656 131.209 213.797C126.422 213.922 121.634 214.046 116.866 214.188C114.616 214.259 112.386 214.365 110.155 214.383C107.367 214.418 104.714 214.968 102.31 216.21C98.6186 218.126 96.2151 220.964 95.7921 224.955C95.4652 228.023 95.4268 231.11 95.8498 234.161C96.3113 237.549 96.4843 240.954 96.715 244.342C96.9073 247.181 96.9842 250.036 97.0804 252.892C97.215 257.362 97.5611 261.814 97.9648 266.267C98.1379 268.112 98.4071 269.939 98.6186 271.766C98.6955 272.315 98.7724 272.883 99.4261 273.38C100.234 273.38 101.195 273.38 102.156 273.38C103.156 273.397 104.195 273.114 105.194 273.486C105.31 273.788 105.425 274.054 105.483 274.32C106.81 279.943 108.155 285.566 109.463 291.189C109.559 291.597 109.771 292.04 109.501 292.484C109.136 292.537 108.752 292.555 108.425 292.661C104.983 293.725 101.56 294.878 98.2917 296.333C96.6574 297.06 95.0999 297.947 93.6002 298.887C92.5619 299.543 91.6197 300.359 90.7352 301.211C89.6777 302.222 88.9663 303.481 88.5433 304.829C88.4087 305.237 88.4856 305.61 89.0624 305.947C90.0046 305.947 91.0813 305.965 92.1581 305.947C95.3114 305.858 98.4455 305.734 101.599 305.663C107.233 305.521 112.866 305.397 118.5 305.273C119.596 305.255 120.673 305.237 121.769 305.184C122.884 305.131 123.268 304.688 123.172 303.659C123.057 302.435 122.903 301.211 122.749 299.987C122.422 297.096 122.096 294.204 121.788 291.313C121.499 288.705 121.23 286.08 120.942 283.473C120.519 279.588 120.057 275.686 119.634 271.801C119.211 268.023 118.846 264.245 118.423 260.466C118 256.582 117.539 252.697 117.096 248.795C116.635 244.626 116.173 240.458 115.731 236.289C115.654 235.58 115.443 234.853 115.731 234.125C115.904 234.054 116.058 233.93 116.231 233.93C119.25 233.824 122.288 233.735 125.307 233.646C125.403 233.646 125.499 233.753 125.73 233.895C125.057 234.977 124.287 236.059 124.307 237.407C124.307 238.666 124.48 239.872 125.23 240.937C125.999 242.036 127.114 242.799 128.46 243.296C128.479 243.686 128.518 244.023 128.518 244.342C128.383 253.46 128.229 262.559 128.114 271.677C128.037 277.992 127.998 284.306 127.941 290.621C127.941 291.579 127.864 292.519 127.864 293.477C127.806 297.06 127.768 300.625 127.748 304.209C127.748 304.528 127.883 304.847 127.979 305.202C128.345 305.202 128.614 305.202 128.998 305.202C129.075 304.812 129.191 304.439 129.21 304.067C129.287 301.991 129.344 299.934 129.364 297.858C129.402 294.612 129.421 291.366 129.46 288.138C129.575 279.801 129.69 271.482 129.806 263.163C129.864 259.03 129.883 254.897 129.96 250.746C129.998 248.511 130.094 246.276 130.171 244.041C130.171 243.722 130.094 243.367 130.46 243.119C132.344 242.835 136.324 242.835 137.728 243.172C137.785 243.456 137.881 243.775 137.939 244.094C138.247 245.974 138.554 247.855 138.862 249.735C139.516 253.886 140.189 258.019 140.842 262.169C141.362 265.433 141.862 268.697 142.381 271.961C142.458 272.386 142.688 272.777 142.861 273.256C143.631 273.291 144.342 273.309 145.073 273.344C145.226 273.823 145.399 274.231 145.496 274.675C146.822 280.298 148.149 285.921 149.476 291.544C149.553 291.845 149.514 292.182 149.553 292.572C148.649 292.785 147.841 293.016 147.015 293.158C144.784 293.53 142.688 294.257 140.669 295.162C137.728 296.492 135.286 298.355 133.286 300.75C132.459 301.743 131.94 302.878 131.536 304.049C131.306 304.688 131.575 305.113 132.229 305.415C132.805 305.681 133.401 305.645 134.017 305.628C137.343 305.539 140.669 305.432 143.996 305.326C148.841 305.184 153.687 305.042 158.532 304.9C159.243 304.883 159.955 304.776 160.762 304.705C160.762 304.262 160.782 303.872 160.762 303.499C160.628 301.885 160.474 300.271 160.32 298.657C159.993 295.038 159.647 291.419 159.32 287.801C159.032 284.626 158.801 281.451 158.513 278.275C158.205 274.763 157.859 271.269 157.532 267.757C157.244 264.475 156.994 261.176 156.705 257.894C156.302 253.336 155.859 248.759 155.436 244.201C155.398 243.775 155.436 243.331 155.436 242.906C156.821 242.551 159.974 242.533 161.455 242.87C161.647 243.438 161.57 244.041 161.57 244.662C161.551 249.362 161.512 254.045 161.493 258.746C161.435 272.777 161.378 286.807 161.301 300.838C161.301 301.672 161.243 302.523 161.262 303.357C161.281 304.049 161.666 304.439 162.166 304.386C162.608 304.333 162.839 304.031 162.858 303.339C162.897 302.169 162.916 300.998 162.916 299.81C162.974 281.362 163.012 262.914 163.05 244.467C163.05 244.183 163.031 243.899 163.07 243.633C163.108 243.314 163.204 242.994 163.281 242.604C164.916 242.569 166.492 242.551 168.05 242.533C170.165 242.515 172.299 242.515 174.414 242.48C176.894 242.444 179.375 242.356 181.855 242.303C182.201 242.303 182.566 242.391 182.951 242.427C183.066 242.906 183.201 243.331 183.239 243.775C183.528 246.276 183.797 248.777 184.066 251.278C184.355 253.886 184.605 256.511 184.893 259.118C185.335 263.056 185.797 267.012 186.239 270.95C186.643 274.621 187.027 278.293 187.431 281.947C187.873 285.832 188.316 289.717 188.758 293.619C189.142 296.954 189.508 300.288 189.892 303.623C189.931 303.942 190.085 304.244 190.181 304.617C190.527 304.617 190.796 304.617 191.046 304.617C191.488 304.084 191.354 303.517 191.296 302.967C191.046 300.625 190.777 298.302 190.527 295.96C190.238 293.353 189.969 290.728 189.681 288.12C189.354 285.176 189.008 282.231 188.681 279.287C188.412 276.785 188.143 274.284 187.854 271.783C187.527 268.839 187.181 265.894 186.854 262.95C186.585 260.449 186.316 257.948 186.027 255.446C185.604 251.668 185.162 247.89 184.739 244.112C184.682 243.58 184.547 243.012 184.855 242.409C185.739 242.214 186.643 242.267 187.546 242.249C191.546 242.178 195.545 242.09 199.545 242.036C204.448 241.966 209.37 241.912 214.273 241.859C214.677 241.859 215.08 241.948 215.542 241.983C215.715 242.586 215.869 243.119 216.003 243.651C217.292 248.937 218.561 254.223 219.83 259.509C223.31 273.841 226.79 288.173 230.27 302.506C230.386 303.002 230.482 303.499 230.693 303.96C230.809 304.226 231.155 304.404 231.347 304.581C231.905 304.457 232.078 304.155 232.058 303.801C232.02 303.304 231.943 302.807 231.828 302.311C230.924 298.603 230.02 294.896 229.117 291.189C225.386 275.828 221.656 260.449 217.926 245.087C217.657 244.005 217.445 242.923 217.195 241.824C218.368 241.167 219.484 240.617 220.522 239.961C223.771 237.939 225.925 235.261 226.579 231.589C227.54 226.196 228.694 220.822 229.693 215.429C230.232 212.52 230.636 209.576 231.078 206.649C231.289 205.301 231.136 203.971 230.405 202.747C230.328 202.622 230.328 202.445 230.29 202.232C230.751 202.037 231.193 201.86 231.597 201.629C232.366 201.186 233.154 200.76 233.866 200.246C234.77 199.607 235.212 198.702 235.327 197.656C235.577 195.332 235.327 193.079 234.289 190.933C233.616 189.549 232.981 188.166 232.328 186.782C232.174 186.445 232.058 186.073 231.924 185.647C232.232 185.558 232.462 185.487 232.693 185.452C233.654 185.346 234.616 185.275 235.577 185.186C236.135 185.133 236.673 185.097 236.981 184.476C237.096 183.589 236.538 182.809 236.154 182.028ZM190.123 108.096C188.489 105.666 187.085 103.129 186.027 100.451C185.739 99.7237 185.566 98.9432 185.431 98.1804C185.335 97.6128 185.508 97.0629 186.124 96.7437C186.816 96.6195 187.258 97.0097 187.7 97.4C188.181 97.8257 188.604 98.3046 189.104 98.6948C189.296 98.8545 189.623 98.8545 190.027 98.9609C190.104 98.482 190.2 98.1095 190.219 97.7547C190.258 97.2581 190.181 96.7437 190.277 96.2647C190.334 95.9809 190.623 95.7326 190.796 95.502C192.296 95.6084 192.334 97.3113 193.738 97.5064C193.949 97.2935 194.238 97.0984 194.411 96.8146C194.603 96.4776 194.641 96.0519 194.814 95.7148C194.968 95.431 195.218 95.2182 195.411 94.9876C196.18 95.1295 196.545 95.5729 196.872 96.0519C197.295 96.6727 197.66 97.3113 198.006 97.9498C198.449 98.8013 198.833 99.6882 199.275 100.54C200.948 103.857 203.448 106.535 206.64 108.681C207.659 109.373 208.735 110.012 209.735 110.721C210.6 111.324 211.446 111.963 212.235 112.655C213.158 113.453 213.658 114.429 213.542 115.652C213.465 116.433 213.523 117.213 213.523 118.047C213.85 118.313 214.234 118.597 214.561 118.916C215.177 119.519 215.83 120.122 216.349 120.797C217.253 121.967 217.369 123.28 216.811 124.628C216.292 125.905 215.484 127.005 214.542 128.034C213.965 128.672 213.312 129.275 212.677 129.861C210.139 132.255 207.293 134.348 205.217 137.062C204.678 137.08 204.736 136.708 204.601 136.495C204.448 136.264 204.275 136.051 204.159 135.892C203.409 135.661 203.005 135.963 202.717 136.442C202.371 137.009 202.044 137.595 201.698 138.215C200.025 136.69 198.41 134.331 198.122 132.965C198.506 132.858 198.91 132.734 199.314 132.61C202.409 131.635 204.082 129.08 204.255 126.207C204.294 125.621 204.121 124.983 203.909 124.397C203.563 123.51 202.852 122.925 201.813 122.712C200.698 122.482 199.66 122.695 198.622 123.032C198.006 123.244 197.391 123.51 196.776 123.723C196.564 123.794 196.333 123.794 196.18 123.812C195.872 123.51 196.026 123.315 196.141 123.138C196.987 121.843 197.852 120.566 198.987 119.466C199.314 119.147 199.679 118.828 199.564 118.207C199.429 118.083 199.256 117.852 199.025 117.692C195.411 115.049 192.565 111.732 190.123 108.096ZM189.392 136.637C186.7 136.158 184.566 134.898 183.086 132.752C182.047 131.262 181.547 129.612 181.432 127.856C181.297 125.923 181.663 124.06 182.374 122.269C183.836 118.579 186.374 115.67 189.931 113.524C190.431 113.222 190.969 112.992 191.565 112.672C192.565 113.737 193.488 114.766 194.488 115.723C195.487 116.699 196.545 117.604 197.641 118.597C196.833 119.697 196.045 120.726 195.314 121.808C194.584 122.89 193.757 123.936 193.276 125.089C193.795 125.976 193.968 126.118 194.622 125.958C196.007 125.586 197.429 125.284 198.718 124.646C199.487 124.273 200.275 124.043 201.14 124.096C201.967 124.149 202.467 124.557 202.64 125.302C203.159 127.59 201.563 130.357 199.198 131.173C198.641 131.368 198.064 131.51 197.429 131.351C196.603 131.156 195.987 130.801 195.718 130.02C195.641 129.754 195.545 129.488 195.391 129.24C195.199 128.903 194.872 128.796 194.468 128.938C194.142 129.133 194.026 129.417 194.084 129.79C194.295 130.89 194.776 131.812 195.872 132.38C196.026 132.45 196.16 132.575 196.314 132.699C196.449 133.657 196.91 134.508 197.468 135.306C198.333 136.512 199.198 137.736 200.121 138.907C200.987 139.989 201.39 140.096 202.948 139.812C203.025 140.06 203.14 140.326 203.159 140.592C203.294 143.093 203.428 145.594 203.563 148.202C203.217 148.237 202.929 148.344 202.659 148.308C199.448 147.741 196.18 147.528 192.93 147.315C192.757 147.297 192.584 147.226 192.334 147.155C192.257 146.854 192.123 146.552 192.123 146.233C192.065 143.501 192.026 140.77 191.969 138.038C191.969 137.772 191.93 137.506 191.911 137.204C191.084 136.708 190.219 136.779 189.392 136.637ZM128.575 103.183C127.595 101.231 127.46 99.2092 127.633 97.1162C127.748 95.9277 128.345 95.0053 129.441 94.349C130.998 93.4089 132.652 92.788 134.555 92.859C134.92 92.8767 135.305 92.93 135.632 92.859C135.882 92.8058 136.093 92.5575 136.382 92.3623C136.247 92.0076 136.17 91.6705 135.997 91.4045C134.978 89.808 133.921 88.2471 132.921 86.6507C132.075 85.3026 131.209 83.9545 130.46 82.5532C130.113 81.9146 129.998 81.1873 129.825 80.4778C129.767 80.2827 129.864 80.0344 129.921 79.8215C129.94 79.7328 130.094 79.6796 130.287 79.5199C130.517 79.6264 130.902 79.6796 131.133 79.8924C131.786 80.4601 132.44 81.0632 133.017 81.7017C135.459 84.4157 137.766 87.2183 139.785 90.216C140.746 91.6528 141.592 93.1251 142.054 94.757C142.419 96.0873 142.496 97.4354 142.073 98.7303C141.112 101.675 140.054 104.584 138.939 107.741C138.977 107.954 139.035 108.38 139.131 108.823L132.267 110.26C132.171 109.48 132.075 108.681 131.979 107.83C131.652 107.457 131.267 107.032 130.902 106.606C129.96 105.542 129.21 104.407 128.575 103.183ZM154.398 159.093C153.975 159.022 153.629 158.987 153.283 158.88C151.052 158.153 148.822 157.443 146.63 156.663C144.457 155.9 142.515 154.765 140.65 153.523C138.035 151.75 136.805 149.248 136.401 146.393C135.863 142.685 135.497 138.96 134.901 135.253C134.228 131.049 134.151 126.792 133.786 122.57C133.671 121.293 133.555 120.016 133.382 118.739C133.075 116.38 132.728 114.021 132.421 111.661L139.458 110.189C141.765 119.307 144.073 128.406 146.38 137.524C146.938 139.759 147.514 141.976 148.091 144.211C148.534 145.914 148.976 146.286 150.879 146.57C152.61 146.818 154.34 147.067 156.09 147.315C156.378 147.35 156.648 147.457 157.032 147.563C156.667 148.876 156.282 150.1 155.975 151.342C155.648 152.654 155.379 153.967 155.129 155.279C154.84 156.521 154.783 157.798 154.398 159.093ZM121.442 303.552C121.134 303.623 120.807 303.747 120.48 303.765C116.135 303.889 111.77 303.996 107.425 304.12C102.233 304.262 97.0419 304.421 91.8312 304.563C91.4274 304.581 91.0429 304.492 90.543 304.439C90.6583 303.641 91.0429 303.073 91.5236 302.594C92.3504 301.778 93.1964 300.962 94.1385 300.306C95.1961 299.561 96.3305 298.923 97.5034 298.355C101.08 296.599 104.868 295.269 108.809 294.133C109.271 294.346 109.598 294.488 109.924 294.648C111.655 295.535 113.52 295.943 115.481 295.943C116.693 295.943 117.904 295.943 119.115 295.943C119.596 295.943 120.057 295.978 120.5 296.014C121.019 297.362 121.538 301.761 121.442 303.552ZM118.827 278.098C119.096 279.925 119.192 281.752 119.404 283.597C119.596 285.371 119.865 287.145 120.019 288.918C120.154 290.692 120.615 292.448 120.442 294.453C117.462 294.665 114.654 294.772 111.809 293.867C111.655 293.406 111.443 292.945 111.347 292.466C109.924 286.47 108.521 280.493 107.117 274.497C107.04 274.125 107.021 273.734 106.983 273.362C107.233 273.273 107.386 273.167 107.559 273.167C111.059 273.131 114.539 272.759 118.096 272.777C118.654 274.55 118.558 276.342 118.827 278.098ZM115.866 232.529C115.75 232.529 115.616 232.529 115.5 232.547C114.308 232.653 113.866 233.096 113.981 234.161C114.097 235.278 114.231 236.378 114.347 237.496C114.808 241.77 115.289 246.045 115.75 250.32C116.173 254.045 116.596 257.752 117.019 261.477C117.308 264.085 117.596 266.692 117.865 269.318C117.923 269.868 117.865 270.417 117.865 270.95C117.5 271.375 116.981 271.34 116.52 271.358C115.058 271.429 113.616 271.446 112.155 271.499C108.463 271.659 104.771 271.854 101.099 272.014C100.868 272.032 100.618 271.978 100.33 271.961C100.234 271.695 100.08 271.446 100.041 271.18C99.7915 269.176 99.5223 267.189 99.3492 265.185C99.0416 261.407 98.7724 257.611 98.5609 253.815C98.3686 250.125 98.3109 246.436 98.1187 242.764C97.9456 239.642 97.638 236.52 97.2534 233.416C96.8689 230.294 96.8496 227.172 97.4457 224.068C97.6187 223.128 98.0225 222.258 98.5417 221.425C100.541 218.321 103.618 216.742 107.348 216.05C108.713 215.802 110.097 215.731 111.501 215.695C114.885 215.642 118.269 215.518 121.673 215.429C123.845 215.376 126.037 215.358 128.21 215.305C133.651 215.181 139.112 215.057 144.553 214.915C148.918 214.809 153.264 214.702 157.628 214.578C159.493 214.525 161.378 214.401 163.185 214.294C167.338 216.316 171.511 218.072 175.895 219.367C180.278 220.662 184.701 221.744 189.373 222.241C189.373 222.613 189.412 222.879 189.373 223.128C189.027 224.884 188.7 226.64 188.335 228.396C188.239 228.893 188.104 229.389 187.912 229.85C187.47 230.879 186.681 231.465 185.431 231.465C182.836 231.465 180.221 231.482 177.625 231.518C166.415 231.66 155.225 231.819 144.015 231.979C140.073 232.032 136.132 232.227 132.209 232.121C126.729 232.014 121.307 232.547 115.866 232.529ZM158.801 299.685C158.993 300.821 159.109 301.991 158.974 303.091C158.84 303.197 158.801 303.233 158.743 303.268C158.686 303.304 158.628 303.322 158.59 303.322C156.302 303.428 154.013 303.552 151.706 303.623C145.726 303.783 139.747 303.925 133.767 304.067C133.671 304.067 133.555 303.978 133.44 303.925C133.19 303.517 133.459 303.18 133.632 302.843C134.344 301.512 135.382 300.43 136.536 299.455C139.689 296.759 143.419 295.162 147.611 294.47C148.091 294.399 148.553 294.311 149.072 294.222C151.802 296.049 154.994 296.226 158.244 296.209C158.897 297.344 158.59 298.55 158.801 299.685ZM156.417 272.901C157.032 279.943 157.667 287.003 158.263 294.045C158.282 294.204 158.167 294.364 158.09 294.612C155.917 295.002 153.821 294.577 151.668 293.974C150.899 291.721 150.572 289.397 149.995 287.127C149.38 284.803 148.899 282.444 148.341 280.102C147.803 277.814 147.265 275.544 146.668 273.025C147.457 272.919 148.053 272.777 148.63 272.741C151.149 272.652 153.648 272.138 156.167 272.351C156.282 272.599 156.398 272.759 156.417 272.901ZM155.648 264.049C155.782 265.504 155.936 266.941 156.032 268.395C156.09 269.105 156.032 269.832 156.032 270.719C152.168 271.074 148.437 271.429 144.707 271.748C144.477 271.766 144.246 271.695 143.977 271.659C143.88 271.429 143.765 271.216 143.727 271.003C142.246 261.726 140.785 252.449 139.285 243.083C139.689 242.994 140.035 242.87 140.362 242.87C142.842 242.835 145.323 242.817 147.822 242.781C149.149 242.764 150.476 242.693 151.821 242.675C152.36 242.657 152.898 242.675 153.321 242.675C153.937 243.225 153.821 243.81 153.879 244.36C154.148 247.482 154.398 250.604 154.667 253.708C154.994 257.149 155.34 260.608 155.648 264.049ZM185.739 239.198C185.412 239.748 184.931 240.156 184.259 240.351C183.278 240.653 182.297 240.901 181.259 240.919C176.164 240.954 171.088 240.99 165.992 241.061C159.628 241.15 153.283 241.256 146.918 241.345C140.746 241.433 134.574 241.522 128.402 241.611C128.345 241.611 128.287 241.593 128.095 241.54C126.941 240.848 126.229 239.926 125.941 238.719C125.499 236.946 126.268 235.544 127.537 234.32C127.979 233.895 128.575 233.788 129.21 233.753C131.382 233.682 133.555 233.558 135.747 233.54C141.689 233.469 147.611 233.469 153.552 233.398C160.147 233.309 166.742 233.203 173.356 233.079C176.318 233.026 179.279 232.955 182.259 232.884C182.932 232.866 183.586 232.848 184.259 232.866C185.528 232.919 186.316 233.522 186.547 234.64C186.816 236.236 186.604 237.762 185.739 239.198ZM229.424 207.731C229.117 209.948 228.751 212.148 228.328 214.347C227.29 219.846 226.194 225.345 225.136 230.844C224.81 232.511 224.387 234.108 223.31 235.527C222.387 236.733 221.272 237.744 219.907 238.507C218.926 239.057 217.888 239.518 216.869 240.014C216.253 240.316 215.6 240.351 214.927 240.351C210.62 240.422 206.332 240.493 202.025 240.564C197.66 240.617 193.296 240.671 188.95 240.706C188.296 240.706 187.623 240.866 187.008 240.511C186.989 240.387 186.95 240.245 186.989 240.174C188.027 238.294 188.296 236.236 188.719 234.214C189.7 229.549 190.584 224.884 191.623 220.236C192.353 216.955 193.276 213.709 194.18 210.463C194.526 209.221 195.045 208.033 195.526 206.809C196.026 205.514 196.949 204.485 198.083 203.598C198.948 202.924 199.929 202.534 201.083 202.569C202.352 202.605 203.621 202.64 204.89 202.64C210.466 202.622 216.042 202.587 221.599 202.534C222.56 202.534 223.541 202.445 224.502 202.374C225.483 202.303 226.444 202.339 227.386 202.534C228.655 202.782 229.443 203.492 229.501 204.698C229.578 205.727 229.559 206.738 229.424 207.731ZM232.962 191.713C233.731 193.381 234.02 195.137 233.885 196.946C233.808 198.099 233.289 198.951 232.27 199.607C231.155 200.352 229.905 200.724 228.559 200.795C226.136 200.92 223.733 201.044 221.31 201.115C218.465 201.186 215.638 201.221 212.792 201.257C212.312 201.257 211.831 201.221 211.158 201.186C211.062 200.724 210.966 200.405 210.946 200.086C210.812 198.064 210.908 193.541 211.12 192.334C213.369 191.838 215.753 191.962 217.965 191.518C218.368 191.164 218.465 190.827 218.33 190.401C218.118 189.815 217.907 189.23 217.715 188.645C217.522 188.059 217.33 187.474 217.119 186.818C217.388 186.711 217.58 186.587 217.792 186.569C221.829 186.25 225.848 185.931 229.924 185.612C230.078 185.824 230.251 185.984 230.347 186.179C231.232 188.024 232.116 189.851 232.962 191.713ZM210.946 188.645C210.946 188.201 211.004 187.776 211.023 187.297C212.465 186.836 213.888 186.836 215.35 186.871C215.926 187.864 216.215 188.929 216.484 190.046C215.657 190.507 214.734 190.454 213.869 190.543C212.985 190.631 212.1 190.827 211.004 190.543C210.966 189.833 210.927 189.248 210.946 188.645ZM234.904 183.66C234.77 183.714 234.596 183.82 234.423 183.838C226.694 184.423 218.984 185.097 211.37 185.629C210.773 185.15 210.927 184.601 210.927 184.122C210.908 178.747 210.889 173.39 210.87 168.015C210.87 166.951 210.87 165.887 210.87 164.823C210.87 164.432 210.812 164.06 210.773 163.581C210.427 163.492 210.12 163.421 209.812 163.333C209.658 163.563 209.524 163.687 209.504 163.847C209.447 164.397 209.408 164.964 209.408 165.514C209.428 177.08 209.447 188.663 209.466 200.228C209.466 200.494 209.408 200.76 209.351 201.097C208.947 201.15 208.601 201.257 208.255 201.257C206.678 201.239 205.101 201.203 203.544 201.168C202.64 201.15 201.717 201.097 200.814 201.132C199.371 201.168 198.122 201.665 197.026 202.551C195.622 203.687 194.584 205.017 193.93 206.631C193.007 208.884 192.334 211.208 191.738 213.549C191.2 215.66 190.681 217.788 190.123 219.917C190.065 220.183 189.931 220.431 189.835 220.662C189.181 220.91 188.585 220.786 187.989 220.698C178.817 219.314 170.203 216.476 162.166 212.13C161.897 211.988 161.647 211.846 161.397 211.687C161.301 211.633 161.262 211.509 161.128 211.332C164.896 197.94 169.376 184.671 173.568 171.332C174.356 170.96 175.145 171.19 175.914 171.244C176.76 171.315 177.606 171.421 178.452 171.474C178.856 171.492 179.279 171.421 179.663 171.386C179.778 171.173 179.913 171.013 179.894 170.871C179.875 170.658 179.74 170.463 179.625 170.215C175.645 169.736 171.645 169.488 167.684 169.08C163.781 168.689 159.878 168.441 156.032 167.962C155.494 166.1 155.763 159.98 156.513 156.042C157.647 150.153 158.378 147.776 159.647 146.127C160.762 146.215 161.897 146.304 163.05 146.393C165.339 146.57 167.627 146.747 169.915 146.925C172.453 147.12 174.972 147.315 177.51 147.528C179.144 147.652 180.759 147.794 182.393 147.918C186.316 148.237 190.219 148.628 194.142 148.858C197.41 149.053 200.64 149.408 203.871 149.976C205.313 150.224 206.678 150.667 207.947 151.324C210.177 152.477 212.254 153.825 214.196 155.35C217.195 157.727 219.964 160.299 222.175 163.333C224.098 165.975 226.059 168.601 227.982 171.244C230.501 174.738 232.578 178.463 234.558 182.241C234.789 182.667 235.154 183.093 234.904 183.66Z" fill="#3C3372"/>
        <path d="M224.944 50.4117C224.848 60.3273 217.022 68.4336 207.236 70.1897C196.257 72.1764 186.297 65.9503 183.989 56.3717C181.97 47.9993 186.143 39.6269 193.584 35.1569C198.083 32.4607 203.063 31.361 208.312 32.1769C216.157 33.4009 221.387 37.658 224.002 44.5936C224.694 46.4384 224.906 48.3896 224.944 50.4117Z" fill="#BAEDB2"/>
        <path d="M203.678 46.9883C204.39 46.4739 204.89 46.0836 205.428 45.7289C206.563 44.9661 207.774 44.363 209.178 44.1502C211.543 43.7777 213.485 44.5936 214.715 46.5093C215.33 47.4849 215.677 48.5669 215.58 49.7022C215.484 50.9261 215.234 52.1323 214.619 53.2498C212.273 57.4892 208.716 60.5756 204.082 62.5623C201.66 63.5911 201.256 63.4847 199.371 61.8883C196.026 59.0502 193.411 55.7331 192.276 51.5824C191.815 49.915 191.853 48.2654 192.142 46.598C192.373 45.3031 193.007 44.1679 194.161 43.3342C197.353 41.0105 201.39 42.5715 202.698 45.0371C203.025 45.6047 203.294 46.2078 203.678 46.9883ZM201.506 61.6045C202.352 61.7464 202.909 61.5158 203.448 61.2674C207.659 59.3872 210.947 56.62 213.158 52.7886C213.735 51.7775 214.004 50.6778 214.042 49.578C214.138 47.2721 212.1 44.4872 208.466 45.8175C206.909 46.3852 205.62 47.2721 204.544 48.4428C204.313 48.6911 204.101 48.9394 203.948 49.1346C203.179 49.2942 202.813 48.9217 202.371 48.5137C202.217 48.0171 202.083 47.4849 201.871 46.9528C201.698 46.4738 201.506 45.9949 201.237 45.5692C200.314 44.1147 198.852 43.4938 197.103 43.689C195.391 43.8841 194.257 44.8419 193.776 46.4029C193.334 47.8219 193.296 49.2587 193.622 50.7133C194.295 53.6755 195.891 56.2298 197.987 58.518C199.045 59.6355 200.121 60.7708 201.506 61.6045Z" fill="#3C3372"/>
        <path d="M201.506 61.6045C200.121 60.7885 199.045 59.6533 197.987 58.5003C195.891 56.2121 194.315 53.6578 193.622 50.6955C193.296 49.241 193.334 47.8042 193.776 46.3852C194.257 44.8242 195.372 43.8664 197.103 43.6712C198.872 43.4761 200.314 44.097 201.237 45.5515C201.506 45.9772 201.698 46.4561 201.871 46.935C202.063 47.4672 202.217 47.9993 202.371 48.496C202.794 48.8862 203.179 49.2587 203.948 49.1168C204.101 48.9395 204.332 48.6734 204.544 48.4251C205.601 47.2366 206.909 46.3674 208.466 45.7998C212.081 44.4872 214.119 47.2721 214.042 49.5603C214.004 50.6778 213.735 51.7598 213.158 52.7709C210.947 56.6023 207.659 59.3695 203.448 61.2497C202.909 61.498 202.352 61.7464 201.506 61.6045Z" fill="#D1A76B"/>
        <path d="M212.235 48.0348C211.889 47.0769 210.947 46.935 210.024 47.0947C209.889 47.0237 209.716 46.9705 209.505 47.006C208.312 47.2011 206.217 47.6446 206.255 49.0991C206.274 49.6667 206.736 50.1102 207.351 50.1456C208.178 50.1989 208.524 49.5603 209.197 49.2942C210.004 48.9927 212.85 49.7909 212.235 48.0348Z" fill="#F5F5F5"/>
        <path d="M204.947 50.4294C204.832 50.394 204.755 50.3408 204.698 50.2521C204.082 49.578 203.044 50.5536 203.659 51.2099C203.698 51.2631 203.755 51.2986 203.813 51.3341L203.832 51.4583C203.89 52.0436 204.871 52.4871 205.197 51.7953C205.255 51.6711 205.313 51.5469 205.37 51.4228C205.582 51.0148 205.428 50.5891 204.947 50.4294Z" fill="#F5F5F5"/>
        <path d="M199.814 45.445C199.006 44.5936 197.929 43.6712 196.93 44.3985C196.449 44.7533 196.334 45.3918 196.718 45.8353C197.141 46.3319 197.737 46.261 198.314 46.4384C199.179 46.7044 198.987 47.4494 199.429 48.0348C199.775 48.4783 200.487 48.7266 201.025 48.425C202.409 47.6623 200.717 46.0481 199.814 45.445Z" fill="#F5F5F5"/>
    </g>
    <defs>
        <clipPath id="clip0">
            <rect width="237" height="314" fill="white"/>
        </clipPath>
    </defs>
</svg>
