<svg width="237" height="314" viewBox="0 0 237 314" fill="none" xmlns="http://www.w3.org/2000/svg">
    <path opacity="0.1" d="M232.145 303.105C232.145 309.124 206.605 314 175.113 314C143.621 314 118.081 309.124 118.081 303.105C118.081 297.086 143.621 292.21 175.113 292.21C206.624 292.189 232.145 297.086 232.145 303.105Z" fill="black"/>
    <path d="M224.853 26.6461H117.84C111.124 26.6461 105.693 20.6885 105.693 13.3231C105.693 5.95764 111.124 0 117.84 0H224.853C231.568 0 237 5.95764 237 13.3231C237 20.6681 231.568 26.6461 224.853 26.6461Z" fill="#5DB3C1"/>
    <path d="M127.345 13.323C127.345 18.995 123.141 23.6061 117.97 23.6061C112.799 23.6061 108.595 18.995 108.595 13.323C108.595 7.65105 112.799 3.04001 117.97 3.04001C123.141 3.04001 127.345 7.63065 127.345 13.323Z" fill="#FFBD5C"/>
    <path d="M119.57 14.0984C119.849 14.0167 120.035 13.9759 120.239 13.8943C120.593 13.7719 120.927 13.8127 121.225 14.0167C122.509 14.8737 123.792 15.7306 125.057 16.6079C125.113 16.6487 125.131 16.7711 125.224 16.9343C124.927 17.8933 124.443 18.791 123.736 19.5255C122.881 19.1583 120.035 17.1588 119.123 16.3019C119.086 16.0366 119.049 15.751 118.974 15.3225C118.602 15.751 118.342 16.1182 118.026 16.4243C116.724 17.7505 115.235 18.2401 113.524 17.5464C112.185 16.9956 111.329 15.8938 110.939 14.4248C110.455 12.5681 110.697 10.7727 111.776 9.20167C112.892 7.52863 114.77 6.77373 116.426 7.3042C118.137 7.85508 119.384 9.50771 119.551 11.5276C119.625 12.3029 119.57 13.0986 119.57 14.0984ZM111.813 12.6702C111.813 13.7311 112.11 14.69 112.65 15.4041C113.506 16.5263 114.919 16.8935 116.147 16.3427C118.602 15.2409 119.328 11.242 117.412 9.24247C116.575 8.36515 115.607 8.05911 114.454 8.42636C112.817 8.99764 111.72 11.0379 111.813 12.6702ZM123.439 18.0361C123.587 17.6893 123.68 17.4648 123.773 17.2404C122.304 16.0162 120.927 15.1389 120.574 15.2817C120.518 15.4041 120.444 15.5878 120.314 15.8326C121.318 16.5875 122.285 17.2812 123.439 18.0361Z" fill="#3C3372"/>
    <path d="M111.813 12.6701C111.72 11.0379 112.817 8.97722 114.473 8.44675C115.626 8.0795 116.593 8.38554 117.43 9.26286C119.346 11.2827 118.621 15.2613 116.166 16.3631C114.938 16.9139 113.524 16.5263 112.669 15.4245C112.11 14.69 111.813 13.7515 111.813 12.6701Z" fill="white"/>
    <path d="M123.439 18.0361C122.285 17.2812 121.318 16.6079 120.314 15.853C120.425 15.6082 120.518 15.4245 120.574 15.3021C120.927 15.1593 122.323 16.0366 123.773 17.2608C123.68 17.4444 123.587 17.6689 123.439 18.0361Z" fill="white"/>
    <path d="M150.634 101.157H121.355C112.706 101.157 105.693 93.4655 105.693 83.9782V51.8641C105.693 42.3767 112.706 34.6849 121.355 34.6849H150.634C159.283 34.6849 166.296 42.3767 166.296 51.8641V83.9782C166.296 93.4655 159.283 101.157 150.634 101.157Z" fill="#FFBD5C"/>
    <path d="M221.338 101.157H192.059C183.409 101.157 176.397 93.4655 176.397 83.9782V51.8641C176.397 42.3767 183.409 34.6849 192.059 34.6849H221.338C229.987 34.6849 237 42.3767 237 51.8641V83.9782C237 93.4655 229.987 101.157 221.338 101.157Z" fill="#5DB3C1"/>
    <path d="M150.634 175.546H121.355C112.706 175.546 105.693 167.854 105.693 158.367V126.232C105.693 116.745 112.706 109.053 121.355 109.053H150.652C159.302 109.053 166.315 116.745 166.315 126.232V158.367C166.296 167.854 159.283 175.546 150.634 175.546Z" fill="#5DB3C1"/>
    <path d="M221.338 175.546H192.04C183.391 175.546 176.378 167.854 176.378 158.367V126.232C176.378 116.745 183.391 109.053 192.04 109.053H221.319C229.969 109.053 236.981 116.745 236.981 126.232V158.367C237 167.854 229.987 175.546 221.338 175.546Z" fill="#5DB3C1"/>
    <path d="M119.997 74.6337C119.439 74.6337 118.881 74.5724 118.323 74.4704C115.198 73.8583 113.04 71.8589 111.962 68.5128C110.883 65.2075 111.441 61.9431 113.598 59.1275C115.328 56.8424 117.616 55.6794 120.369 55.659H120.481C123.439 55.659 126.154 57.3116 127.717 60.066C129.298 62.8612 129.428 66.2481 128.033 69.3493C126.545 72.6138 123.476 74.6337 119.997 74.6337Z" fill="white"/>
    <path d="M118.584 77.8369C118.584 77.8369 119.942 81.3258 122.527 83.1008C122.527 83.1212 122.527 83.1416 122.527 83.1621C122.602 83.2029 122.695 83.2233 122.769 83.2641C124.629 84.427 127.066 84.6923 130.079 82.2847C137.52 76.3475 131.437 67.4519 131.437 67.4519L118.584 77.8369Z" fill="white"/>
    <path d="M150.373 51.1296C145.63 53.3535 137.52 61.5146 137.52 61.5146C138.878 64.473 143.603 70.4103 149.704 65.2279C155.786 60.0252 150.373 51.1296 150.373 51.1296Z" fill="white"/>
    <path d="M133.353 67.0642C134.897 65.0035 134.897 65.0035 136.869 64.1262C136.925 63.2081 136.032 62.4531 136.366 61.433C137.78 59.5763 148.699 50.6603 151.396 49.1505C152.345 49.4769 152.345 49.4769 153.331 50.4155C153.796 50.3134 154.298 50.191 154.763 50.089C155.582 51.0683 154.559 51.5172 154.391 52.2721C154.466 52.517 154.559 52.8638 154.652 53.1902C155.34 55.5978 155.265 58.0053 154.373 60.3312C152.791 64.5342 149.927 67.1662 145.89 68.0843C143.528 68.6148 141.259 68.1455 139.231 66.6153C138.878 66.3501 138.524 66.0645 138.134 65.7584C137.836 65.7584 137.52 65.7176 137.204 65.7584C135.399 66.0441 134.265 67.7987 134.637 69.7574C134.73 70.2266 134.878 70.6755 134.953 71.1448C135.455 74.0216 134.878 76.6943 133.465 79.1427C131.809 82.0399 129.447 83.9374 126.415 84.7127C123.55 85.4472 120.946 84.8963 118.639 82.8152C118.435 82.6316 118.23 82.4276 118.007 82.2439C117.97 82.2031 117.914 82.2031 117.821 82.1623C117.505 82.3255 117.17 82.5092 116.761 82.7132C116.5 82.5908 116.221 82.448 115.942 82.3051C115.942 82.0399 115.886 81.8359 115.961 81.7134C116.221 81.285 116.537 80.8769 116.816 80.4893C116.612 79.7752 116.426 79.1019 116.258 78.4898C116.798 77.1228 118.044 76.6739 118.77 75.6742C118.788 75.2865 118.509 75.3478 118.342 75.2865C118.137 75.2049 117.933 75.1233 117.709 75.1233C114.621 74.9601 111.124 70.4715 110.901 67.2274C109.897 62.5552 112.836 55.6182 119.495 54.9041C124.648 54.3532 128.591 58.2298 129.447 62.8408C129.651 63.9017 129.782 64.9423 129.651 66.0236C129.614 66.2481 129.651 66.4725 129.651 66.8806C130.284 66.5133 130.786 66.2277 131.326 65.9216C132.2 65.738 132.628 66.5949 133.353 67.0642ZM120.369 56.3935C117.84 56.4139 115.738 57.4748 114.119 59.5967C112.166 62.1675 111.571 65.1463 112.594 68.268C113.561 71.2264 115.44 73.1646 118.435 73.7359C122.062 74.4296 125.764 72.6342 127.401 68.9821C130.191 62.8 126.08 56.3119 120.369 56.3935ZM146.988 54.4348C146.132 54.7001 145.686 55.2305 145.165 55.6386C144.607 56.0875 144.067 56.5771 143.602 56.9852C143.472 58.2298 143.416 64.6567 143.509 65.9828C143.528 66.2073 143.621 66.4317 143.677 66.7173C144.886 66.8806 146.021 66.6969 147.099 66.0645C147.081 62.1879 147.044 58.4338 146.988 54.4348ZM125.95 73.4911C124.852 73.9604 123.885 74.6541 122.843 75.1029C122.583 76.3679 122.397 81.5094 122.546 83.162C123.625 83.6925 124.703 83.6721 125.801 83.1825C125.857 82.958 125.931 82.7948 125.931 82.6316C126.006 79.7344 126.061 76.8372 126.117 73.94C126.099 73.8175 126.024 73.7155 125.95 73.4911ZM150.262 64.1058C150.262 63.4937 150.28 63.0244 150.262 62.5552C150.15 60.2496 150.038 57.9441 149.89 55.6386C149.834 54.6389 149.722 53.6391 149.629 52.6394C149.629 52.5578 149.48 52.4966 149.35 52.3945C149.015 52.6394 148.681 52.9046 148.364 53.1494C148.29 57.2096 148.457 61.1678 148.606 65.1871C149.369 65.0647 149.759 64.5954 150.262 64.1058ZM129.038 81.7951C129.168 80.1424 129 72.4097 128.796 70.4307C128.796 70.3491 128.703 70.2674 128.591 70.1246C128.07 70.6551 127.754 71.2672 127.512 71.7773C127.419 75.2661 127.345 78.6326 127.27 81.9991C127.27 82.2031 127.382 82.4071 127.456 82.6724C128.163 82.55 128.628 82.2031 129.038 81.7951Z" fill="#3C3372"/>
    <path d="M116.203 64.2282C117.393 64.5138 117.988 65.6768 119.086 66.1461C119.272 65.9624 119.551 65.7788 119.755 65.534C120.946 64.0854 122.118 62.6164 123.29 61.1678C123.569 60.8209 123.866 60.4741 124.108 60.2088C124.629 60.0252 124.945 60.168 125.094 60.5965C125.094 60.7393 125.131 60.8821 125.094 60.9637C125.001 61.1678 124.908 61.3922 124.778 61.5758C123.215 63.5141 121.653 65.4728 120.072 67.3906C119.867 67.6355 119.569 67.7987 119.346 67.9823C119.123 67.9415 118.918 67.9619 118.807 67.8599C117.858 67.0846 116.928 66.3093 115.998 65.4932C115.663 65.2075 115.738 64.9219 116.203 64.2282Z" fill="#4F9BA3"/>
    <path d="M213.19 87.059C211.144 86.855 209.247 86.5081 207.368 86.1817C207.089 85.0187 207.015 83.6109 207.219 82.4479C207.852 78.6122 208.633 74.7765 209.116 70.8999C209.526 67.6151 210.307 64.3914 210.66 61.1066C210.753 60.2904 210.995 59.4947 211.181 58.6786C211.33 57.9849 211.423 57.2912 211.256 56.6179C210.698 56.2099 210.307 56.3935 209.954 56.8628C209.079 58.0665 208.186 59.2703 207.331 60.4741C205.675 62.8 204.038 65.1463 202.364 67.4722C200.169 70.5327 197.974 73.6135 195.724 76.6535C195.091 77.5105 194.626 78.551 193.752 79.1835C192.45 78.6734 190.627 77.4696 189.008 76.0618C189.101 75.7558 189.157 75.3886 189.306 75.1029C190.98 72.0629 192.673 69.0433 194.328 66.0032C196.021 62.902 197.658 59.7804 199.332 56.6791C200.597 54.3328 201.918 52.0273 203.201 49.7014C204.262 47.7835 205.303 45.8656 206.308 44.009C206.977 43.7641 207.442 44.111 207.926 44.3558C210.233 45.478 212.558 46.6205 214.864 47.7427C217.227 48.9056 219.589 50.0686 221.951 51.2316C222.1 51.2928 222.193 51.4356 222.416 51.6192C222.175 52.6802 221.97 53.7615 221.691 54.8429C221.021 57.4544 220.333 60.066 219.645 62.698C219.217 64.3506 218.789 66.0032 218.343 67.6355C217.747 69.839 217.115 72.0425 216.538 74.2664C215.646 77.7349 214.79 81.2238 213.897 84.6923C213.748 85.4064 213.488 86.1409 213.19 87.059Z" fill="#BAEDB2"/>
    <path d="M193.603 81.1422C193.398 82.0399 192.803 82.4888 192.264 83.0804C190.069 81.7339 188.004 80.1628 185.79 78.6122C185.902 78.3266 185.939 78.0409 186.088 77.8369C186.367 77.4084 186.702 77.0412 187.018 76.6331C188.283 77.184 192.617 80.1424 193.603 81.1422Z" fill="white"/>
    <path d="M205.88 89.5073C205.768 88.8136 205.805 88.2015 206.047 87.5691C206.233 87.5079 206.382 87.4262 206.531 87.4466C207.48 87.4875 213.079 88.4872 213.897 88.732C214.12 89.3849 213.916 89.9562 213.544 90.5683C212.558 90.7111 211.628 90.3031 210.679 90.2418C209.656 90.1806 208.633 90.0378 207.61 89.9358C207.238 89.895 206.847 89.8542 206.494 89.7726C206.27 89.7318 206.103 89.6094 205.88 89.5073Z" fill="white"/>
    <path d="M192.208 149.798C192.133 149.594 192.022 149.369 191.985 149.165C191.352 142.8 190.72 136.434 190.069 130.007C190.459 129.885 190.757 129.742 191.055 129.701C192.673 129.497 194.273 129.293 195.891 129.109C199.704 128.701 203.536 128.314 207.349 127.906C211.051 127.497 214.771 127.049 218.473 126.641C219.05 126.579 219.645 126.477 220.315 126.641C220.742 128.803 220.891 130.986 221.152 133.149C221.412 135.332 221.617 137.515 221.877 139.678C222.137 141.841 222.416 144.003 222.565 146.084C222.435 146.248 222.398 146.288 222.361 146.329C222.268 146.391 222.175 146.472 222.082 146.493C212.297 147.635 202.513 148.778 192.729 149.9C192.561 149.9 192.412 149.839 192.208 149.798Z" fill="white"/>
    <path d="M192.524 84.8759C189.808 83.06 187.297 81.2442 184.749 79.4895C184.581 79.3671 184.507 79.1223 184.358 78.8979C184.637 77.3676 185.753 76.4087 186.404 75.1233C186.925 75.1233 187.39 75.1233 187.967 75.1233C189.064 73.1035 190.199 71.0224 191.334 68.9413C192.691 66.4521 194.049 63.963 195.407 61.4738C197.063 58.4338 198.737 55.3938 200.392 52.3333C201.304 50.6603 202.215 48.9873 203.127 47.3142C203.796 46.0901 204.448 44.8659 205.099 43.6621C205.731 42.4992 206.233 42.2543 207.368 42.744C208.67 43.2949 209.935 43.9682 211.218 44.5803C212.595 45.2535 213.99 45.886 215.367 46.5593C216.501 47.1102 217.636 47.6815 218.752 48.2324C220.314 49.0077 221.896 49.783 223.44 50.5379C223.867 51.0276 223.756 51.558 223.626 52.0681C223.216 53.6595 222.77 55.2509 222.361 56.8424C221.784 59.0663 221.245 61.2902 220.686 63.5141C220.296 65.0443 219.887 66.5949 219.477 68.1252C218.882 70.3491 218.268 72.5526 217.692 74.7765C217.152 76.8168 216.669 78.8775 216.148 80.9381C215.627 82.9376 215.069 84.9167 214.511 86.9774C214.753 87.2834 214.994 87.5691 215.236 87.8547C215.218 89.895 215.032 90.7111 214.325 91.9965C214.009 92.0169 213.637 92.0781 213.265 92.0373C210.642 91.7109 208 91.3436 205.378 90.9968C205.229 90.9764 205.08 90.8947 204.931 90.8335C204.41 89.7522 204.41 89.2421 204.875 86.6101C205.136 86.4265 205.452 86.2021 205.75 85.9981C205.787 85.8552 205.843 85.7532 205.861 85.6308C206.01 83.0192 206.27 80.4485 206.735 77.8777C207.294 74.7969 207.889 71.7161 208.279 68.6148C208.558 66.4317 208.968 64.3098 209.358 62.1471C209.488 61.4738 209.488 60.7597 209.563 60.0252C209.358 60.0864 209.228 60.0864 209.172 60.1476C204.41 66.7378 199.667 73.3279 194.905 79.9384C195.017 80.3057 195.128 80.6117 195.24 80.9994C194.626 82.3868 193.659 83.5701 192.524 84.8759ZM213.19 87.059C213.488 86.1409 213.748 85.4268 213.934 84.6719C214.827 81.2034 215.664 77.7145 216.576 74.246C217.152 72.0221 217.785 69.8186 218.38 67.6151C218.826 65.9624 219.254 64.3098 219.682 62.6776C220.37 60.066 221.059 57.4545 221.728 54.8225C222.007 53.7615 222.212 52.6598 222.454 51.5988C222.249 51.4152 222.137 51.2928 221.989 51.2112C219.626 50.0482 217.264 48.8853 214.901 47.7223C212.595 46.5797 210.27 45.4576 207.963 44.3354C207.48 44.0906 207.014 43.7437 206.345 43.9886C205.34 45.8452 204.299 47.7631 203.238 49.681C201.955 52.0069 200.634 54.3124 199.369 56.6587C197.695 59.76 196.04 62.8816 194.366 65.9829C192.71 69.0229 191.017 72.0425 189.343 75.0825C189.176 75.3682 189.139 75.7354 189.046 76.0415C190.664 77.4493 192.468 78.653 193.789 79.1631C194.663 78.551 195.128 77.4901 195.761 76.6331C198.011 73.5931 200.206 70.5327 202.401 67.4519C204.057 65.1259 205.712 62.7796 207.368 60.4537C208.224 59.2499 209.116 58.0461 209.991 56.8424C210.344 56.3731 210.716 56.1895 211.293 56.5975C211.46 57.2708 211.367 57.9849 211.218 58.6582C211.051 59.4743 210.791 60.2701 210.698 61.0862C210.344 64.3914 209.563 67.5947 209.154 70.8795C208.67 74.7561 207.907 78.5714 207.256 82.4276C207.07 83.5905 207.126 85.0187 207.405 86.1613C209.265 86.5081 211.163 86.855 213.19 87.059ZM193.603 81.1422C192.617 80.1424 188.283 77.184 187.018 76.6331C186.72 77.0208 186.386 77.4085 186.088 77.8369C185.939 78.0409 185.902 78.3266 185.79 78.6122C187.985 80.1628 190.05 81.7543 192.264 83.0805C192.803 82.4888 193.398 82.0603 193.603 81.1422ZM205.88 89.5073C206.084 89.6094 206.27 89.7318 206.475 89.7726C206.847 89.8542 207.219 89.895 207.591 89.9358C208.614 90.0378 209.637 90.201 210.66 90.2419C211.628 90.2827 212.558 90.7111 213.525 90.5683C213.916 89.9562 214.12 89.3849 213.878 88.732C213.06 88.4872 207.461 87.4875 206.512 87.4467C206.363 87.4467 206.215 87.5283 206.029 87.5691C205.805 88.1812 205.768 88.8137 205.88 89.5073Z" fill="#3C3372"/>
    <path d="M207.628 149.737C207.74 151.022 207.647 152.083 207.982 153.205C208.317 153.205 208.633 153.246 208.93 153.205C210.977 152.919 213.004 152.613 215.032 152.348C215.404 152.307 215.776 152.348 216.222 152.348C216.315 152.695 216.39 153.001 216.464 153.287C215.925 153.838 215.311 153.858 214.734 153.94C210.437 154.531 206.159 155.123 201.862 155.694C201.062 155.796 200.262 155.98 199.5 155.755C199.128 155.347 199.183 154.98 199.555 154.552C201.732 154.082 204.057 153.94 206.363 153.511C206.568 152.267 206.345 151.185 206.103 150.002C203.629 150.043 201.229 150.471 198.83 150.736C196.412 151.002 193.994 151.287 191.724 151.532C190.924 151.083 190.701 150.451 190.627 149.696C190.403 147.329 190.18 144.983 189.938 142.616C189.659 139.78 189.362 136.964 189.083 134.128C188.953 132.823 188.804 131.537 188.692 130.252C188.581 128.885 188.897 128.416 190.18 128.252C191.836 128.028 193.51 127.885 195.184 127.701C197.825 127.416 200.448 127.13 203.09 126.845C205.991 126.539 208.893 126.212 211.795 125.906C214.325 125.641 216.855 125.355 219.384 125.07C219.608 125.049 219.812 124.988 220.035 124.988C221.077 124.906 221.579 125.294 221.728 126.396C221.933 127.804 222.082 129.211 222.249 130.619C222.621 133.904 222.974 137.209 223.346 140.514C223.514 141.983 223.7 143.452 223.849 144.921C223.923 145.574 223.96 146.227 223.998 146.86C223.998 147.023 223.942 147.207 223.905 147.329C223.588 147.798 223.179 147.9 222.733 147.941C219.403 148.308 216.073 148.676 212.744 149.063C211.107 149.247 209.451 149.492 207.628 149.737ZM192.208 149.798C192.412 149.839 192.58 149.9 192.729 149.879C202.513 148.757 212.297 147.615 222.082 146.472C222.175 146.452 222.268 146.37 222.361 146.309C222.398 146.288 222.435 146.227 222.565 146.064C222.398 143.983 222.137 141.82 221.877 139.658C221.617 137.474 221.412 135.291 221.152 133.129C220.891 130.966 220.761 128.783 220.314 126.62C219.663 126.457 219.068 126.559 218.473 126.62C214.771 127.028 211.051 127.477 207.349 127.885C203.536 128.293 199.704 128.681 195.891 129.089C194.273 129.273 192.673 129.456 191.055 129.681C190.757 129.721 190.459 129.864 190.069 129.987C190.701 136.434 191.334 142.779 191.985 149.145C192.003 149.39 192.133 149.594 192.208 149.798Z" fill="#3C3372"/>
    <path d="M213.618 50.5787C213.469 51.3744 213.134 51.5172 212.818 51.3744C212.13 51.0888 211.46 50.7011 210.735 50.3339C210.753 49.9462 210.791 49.6198 210.809 49.2729C212.037 49.2729 212.706 50.1706 213.618 50.5787Z" fill="#3C3372"/>
    <path d="M206.717 46.5797C207.759 46.8654 208.354 47.4366 209.042 48.0895C208.856 48.3752 208.707 48.6404 208.558 48.8853C207.666 48.7832 207.182 48.0895 206.494 47.5795C206.549 47.2938 206.624 47.0082 206.717 46.5797Z" fill="#3C3372"/>
    <path d="M217.022 52.6394C216.948 52.8434 216.91 53.0066 216.836 53.1495C216.78 53.2311 216.669 53.2719 216.538 53.3535C215.72 53.2923 215.162 52.6802 214.436 52.2925C214.529 51.9661 214.604 51.7621 214.66 51.5376C215.72 51.252 216.352 51.9253 217.022 52.6394Z" fill="#3C3372"/>
    <path d="M218.231 53.9452C218.659 53.2107 218.864 53.1291 219.384 53.4555C219.794 53.7207 219.831 53.9248 219.533 54.6185C218.975 54.7817 218.585 54.5777 218.231 53.9452Z" fill="#3C3372"/>
    <path d="M151.713 140.861C151.638 139.678 151.527 138.495 151.415 137.332C151.266 135.74 150.69 134.353 149.741 133.169C148.16 131.17 146.3 129.538 143.993 128.681C140.161 127.253 136.348 127.293 132.646 129.273C131.772 129.742 130.935 130.272 130.116 130.864C127.177 133.067 124.685 135.72 123.122 139.311C121.932 142.065 121.206 144.962 120.834 147.982C120.816 148.145 120.909 148.308 120.946 148.553C121.169 148.533 121.392 148.533 121.578 148.492C125.503 147.615 129.465 147.105 133.483 147.247C135.529 147.309 137.594 147.431 139.64 147.533C141.035 147.594 142.449 147.676 143.844 147.737C144.03 147.737 144.291 147.798 144.291 147.329C144.272 147.329 144.253 147.329 144.235 147.309C144.514 146.901 144.551 146.227 144.57 145.778C146.058 145.901 147.546 145.819 149.034 145.534C150.169 145.309 150.876 144.636 151.285 143.493C151.601 142.636 151.768 141.759 151.713 140.861Z" fill="#FFBD5C"/>
    <path d="M118.993 156C118.174 154.613 118.211 153.164 118.546 151.695C118.732 150.9 119.309 150.573 119.979 150.41C121.616 150.043 123.252 149.635 124.908 149.39C126.991 149.084 129.093 148.88 131.195 148.696C132.218 148.614 133.241 148.676 134.264 148.716C136.255 148.798 138.264 148.88 140.254 149.023C142.616 149.186 144.997 149.431 147.36 149.655C148.178 149.737 148.96 149.9 149.611 150.594C149.89 151.716 149.704 152.817 149.406 153.899C149.164 154.756 148.569 155.245 147.862 155.613C146.523 156.306 145.09 156.674 143.658 156.857C140.868 157.204 138.078 157.469 135.269 157.735C133.93 157.857 132.572 157.877 131.232 157.959C128.963 158.081 126.694 157.796 124.443 157.551C122.564 157.286 120.685 156.939 118.993 156Z" fill="#DB9A4B"/>
    <path d="M146.002 147.819C146.727 147.962 147.267 148.043 147.788 148.186C148.476 148.37 149.164 148.553 149.797 148.839C150.559 149.165 151.024 149.859 151.024 150.757C151.024 151.818 151.006 152.899 150.838 153.94C150.634 155.225 149.89 156.225 148.811 156.776C147.937 157.224 147.006 157.612 146.076 157.857C144.495 158.285 142.896 158.591 141.277 158.673C140.143 158.734 139.026 158.897 137.892 159.04C133.241 159.55 128.61 159.612 123.959 158.979C122.415 158.775 120.89 158.306 119.365 157.898C118.137 157.571 117.467 156.674 117.17 155.327C116.854 153.899 116.909 152.511 117.263 151.104C117.43 150.451 117.784 149.941 118.305 149.573C118.621 149.349 118.937 149.145 119.29 148.9C119.458 147.798 119.644 146.676 119.811 145.574C120.09 143.82 120.555 142.106 121.169 140.453C123.494 134.067 127.773 129.864 133.465 127.273C136.534 125.886 139.696 125.967 142.877 126.743C146.132 127.538 148.681 129.558 150.838 132.251C151.806 133.476 152.401 134.945 152.68 136.556C152.996 138.372 153.07 140.208 152.996 142.045C152.959 143.085 152.661 144.024 152.215 144.922C151.713 145.921 150.987 146.595 149.983 146.839C149.201 147.043 148.383 147.105 147.583 147.247C147.137 147.309 146.616 147.145 146.002 147.819ZM120.965 148.553C121.188 148.533 121.411 148.533 121.597 148.492C125.522 147.615 129.484 147.105 133.502 147.247C135.548 147.309 137.613 147.431 139.659 147.533C141.054 147.594 142.468 147.676 143.863 147.737C144.049 147.737 144.309 147.798 144.309 147.329C144.067 147.288 143.807 147.268 143.565 147.207C142.877 147.084 142.17 146.962 141.482 146.819C141.277 146.778 141.073 146.676 140.887 146.554C140.626 146.391 140.515 146.146 140.57 145.799C140.626 145.452 140.887 145.248 141.147 145.268C141.835 145.33 142.524 145.493 143.23 145.615C145.165 145.901 147.099 145.901 149.034 145.513C150.169 145.289 150.876 144.615 151.285 143.473C151.582 142.636 151.75 141.759 151.675 140.861C151.601 139.678 151.489 138.495 151.378 137.332C151.229 135.74 150.652 134.353 149.704 133.169C148.123 131.17 146.262 129.538 143.956 128.681C140.124 127.253 136.311 127.293 132.609 129.273C131.735 129.742 130.898 130.272 130.079 130.864C127.14 133.067 124.648 135.72 123.085 139.311C121.895 142.065 121.169 144.962 120.797 147.982C120.834 148.145 120.909 148.329 120.965 148.553ZM118.993 156C120.704 156.939 122.583 157.286 124.443 157.51C126.694 157.775 128.963 158.061 131.232 157.918C132.572 157.837 133.93 157.816 135.269 157.694C138.059 157.428 140.868 157.163 143.658 156.816C145.109 156.633 146.523 156.266 147.862 155.572C148.569 155.205 149.183 154.715 149.406 153.858C149.704 152.777 149.89 151.675 149.611 150.553C148.96 149.859 148.178 149.696 147.36 149.614C144.998 149.39 142.617 149.165 140.254 148.982C138.264 148.839 136.255 148.757 134.265 148.676C133.241 148.635 132.2 148.574 131.195 148.655C129.093 148.839 126.991 149.043 124.908 149.349C123.253 149.594 121.616 150.002 119.979 150.369C119.309 150.512 118.732 150.859 118.546 151.654C118.193 153.164 118.174 154.613 118.993 156Z" fill="#3C3372"/>
    <path d="M124.499 140.576C124.257 140.412 124.145 140.086 124.22 139.8C124.424 139.025 124.815 138.393 125.299 137.842C125.429 137.678 125.801 137.658 126.024 137.74C126.303 137.842 126.378 138.189 126.303 138.474C126.099 139.148 125.801 139.76 125.317 140.412C125.131 140.678 124.778 140.739 124.499 140.576Z" fill="#3C3372"/>
    <path d="M123.978 142.575C124.071 142.698 124.313 142.881 124.369 143.106C124.462 143.534 124.108 143.942 123.755 143.901C123.457 143.881 123.178 143.514 123.197 143.187C123.234 142.84 123.513 142.575 123.978 142.575Z" fill="#3C3372"/>
    <path opacity="0.1" d="M115.886 303.105C115.886 309.124 90.3468 314 58.8547 314C27.3626 314 1.82288 309.124 1.82288 303.105C1.82288 297.086 27.3626 292.21 58.8547 292.21C90.3468 292.189 115.886 297.086 115.886 303.105Z" fill="black"/>
    <path d="M34.2265 299.84C32.1804 299.922 30.2272 299.881 28.2927 299.82C22.5821 299.657 16.8715 299.779 11.2539 299.371C11.1236 299.249 11.0678 299.208 11.0492 299.147C11.0306 299.086 11.0306 299.024 11.0306 298.963C11.5701 295.393 12.1095 291.842 12.649 288.272C12.6676 288.17 12.7606 288.068 12.8908 287.864C13.393 287.803 13.9697 287.68 14.5649 287.68C17.5969 287.599 20.6103 287.497 23.6424 287.476C24.3306 287.476 25.0375 287.64 25.7071 287.844C27.6417 288.456 29.4274 289.415 31.0271 290.782C32.0502 291.679 32.943 292.72 33.5755 293.985C34.4498 295.78 34.8032 297.637 34.2265 299.84Z" fill="#4F9BA3"/>
    <path d="M77.7164 299.432C77.456 296.25 77.549 293.291 77.3444 290.272C77.5676 290.19 77.7536 290.067 77.9396 290.067C81.6599 290.19 85.2685 289.496 88.8028 287.986C92.7649 288.721 96.448 290.251 99.666 293.067C100.782 294.046 101.675 295.229 102.456 296.515C102.94 297.29 103.349 298.147 103.312 299.269C102.884 299.31 102.475 299.392 102.047 299.392C98.6987 299.412 95.3319 299.392 91.9836 299.392C87.8169 299.392 83.6502 299.412 79.4835 299.432C78.9627 299.432 78.4232 299.432 77.7164 299.432Z" fill="#4F9BA3"/>
    <path d="M108.446 73.0422C108.26 73.4299 108.353 73.7767 108.632 74.0012C108.892 74.2052 109.209 74.3276 109.488 74.5113C110.585 75.2662 111.683 76.0211 112.743 76.8372C113.282 77.2452 113.766 77.7145 113.915 78.5918C113.747 79.4079 113.32 80.1628 112.78 80.8157C111.869 81.9175 110.92 82.958 109.971 83.9986C109.599 84.4066 109.171 84.7943 108.725 85.1411C107.627 85.9981 107.125 87.0998 107.107 88.6096C107.107 89.7114 107.144 90.854 106.79 91.9353C105.712 92.1393 101.117 92.1393 99.7777 91.8945C99.8521 91.2824 99.9079 90.6499 99.9823 90.0174C100.28 87.6099 100.578 85.2024 100.875 82.7948C101.117 80.979 101.377 79.1631 101.619 77.3472C101.768 76.1231 102.307 75.1029 103.089 74.246C103.517 73.7767 103.963 73.3483 104.409 72.9402C107.311 70.3491 110.566 68.3292 113.859 66.4317C114.38 66.1257 114.956 65.942 115.533 65.7584C115.7 65.6972 115.924 65.7992 116.147 65.8196C116.017 66.5337 115.552 66.901 115.161 67.2682C113.468 68.9209 111.757 70.5531 110.008 72.1445C109.543 72.5526 108.948 72.7566 108.446 73.0422Z" fill="#FFC9B5"/>
    <path d="M109.134 95.567C109.134 95.1997 109.097 94.8325 109.078 94.4652L109.041 93.9348C109.023 93.6491 108.855 93.4043 108.613 93.3023C107.813 92.9554 107.032 92.935 106.344 92.935C106.065 92.935 105.767 92.935 105.488 92.8942C104.614 92.8126 103.758 92.7922 102.903 92.7922H102.345C102.345 92.7922 101.694 92.7718 101.508 92.7718C100.801 92.7718 99.9823 92.833 99.1824 93.2207C98.9964 93.3227 98.8476 93.5063 98.8104 93.7307L98.7546 94.0164C98.6988 94.2408 98.6616 94.4652 98.6244 94.6693C98.5128 95.6078 98.4012 96.5259 98.2895 97.4645L98.0105 99.7904C97.9175 100.545 97.8245 101.3 97.7315 102.055C97.5827 103.177 97.4525 104.299 97.3223 105.442C97.0247 107.911 96.7456 110.379 96.4666 112.848C96.4294 113.215 96.3736 113.603 96.3364 113.97C96.1318 115.541 95.9272 117.174 96.076 118.887C96.076 118.969 96.0946 119.051 96.1318 119.132C94.5321 116.398 92.951 113.644 91.3698 110.89C90.9234 110.114 90.477 109.319 90.0119 108.482L89.3423 107.299C89.2121 107.074 88.9889 106.952 88.7657 106.952C88.654 106.952 88.5238 106.993 88.4122 107.054C88.3192 107.115 88.2262 107.176 88.1704 107.217C88.003 107.319 87.8542 107.401 87.724 107.564C85.529 110.155 82.9434 112.705 79.8556 115.337C79.6696 115.501 79.5208 115.705 79.3906 115.868C79.3348 115.929 79.2976 116.011 79.2417 116.072C79.0557 116.296 79.0185 116.643 79.1487 116.908L79.3162 117.255C79.4278 117.5 79.5394 117.745 79.651 117.949L80.5252 119.5C81.939 122.009 83.3341 124.539 84.7664 127.049C86.1057 129.415 87.7984 131.68 89.8073 133.761C91.5372 135.577 93.3974 136.76 95.4807 137.413C96.0946 137.597 96.7084 137.699 97.2851 137.699C98.0477 137.699 98.7732 137.536 99.4428 137.189C101.619 136.107 103.089 134.496 103.814 132.374C104.13 131.435 104.391 130.497 104.633 129.619C105.507 126.314 106.214 122.744 106.865 118.418C107.572 113.726 108.185 109.053 108.688 104.483C109.023 101.117 109.19 98.2602 109.134 95.567Z" fill="#5DB3C1"/>
    <path d="M23.3074 122.784C20.4056 117.194 17.3922 111.4 14.1183 105.748L14.9926 105.136C16.0157 104.422 16.9644 103.749 17.9316 103.055C18.3781 102.728 18.8431 102.402 19.3081 102.076C20.2568 101.423 21.2241 100.729 22.1913 99.974C22.489 99.7496 22.5634 99.3007 22.3588 98.9743C22.0053 98.3826 21.6705 97.8317 21.3357 97.2604C20.573 95.9955 19.8476 94.7917 19.1593 93.5471C18.4525 92.2617 17.82 90.956 17.1504 89.589C16.8527 88.9769 16.5551 88.3852 16.2575 87.7731C16.1273 87.5283 15.9041 87.3855 15.6623 87.3855C15.5693 87.3855 15.4576 87.4059 15.3646 87.4671C15.2716 87.5079 15.1972 87.5487 15.1228 87.5895C14.9368 87.6915 14.7508 87.7731 14.5462 87.9159L12.4442 89.4053C10.1377 91.0376 7.75668 92.7106 5.45011 94.404C4.48284 95.0569 3.57137 95.8935 2.5669 96.9544C0.706762 98.9335 0.260329 101.3 1.2834 103.789L1.43222 104.136C1.91585 105.32 2.39949 106.523 2.99473 107.686L3.9248 109.502C5.39431 112.379 6.90102 115.337 8.51934 118.194C10.7143 122.03 13.0209 125.886 15.2344 129.619C16.0529 130.986 16.8714 132.353 17.6898 133.72C17.8572 134.006 18.0618 134.23 18.2292 134.455C18.3037 134.536 18.3595 134.618 18.4153 134.7C18.5455 134.863 18.7315 134.965 18.9361 134.965C18.9919 134.965 19.0663 134.965 19.1221 134.945C21.1497 134.312 24.8327 131.7 26.4139 129.762C26.5999 129.517 26.6371 129.171 26.4883 128.905C25.4094 126.845 24.3491 124.804 23.3074 122.784Z" fill="#5DB3C1"/>
    <path d="M28.4973 274.827C23.2889 274.888 18.2107 274.459 13.1325 274.418C12.9837 274.418 12.8349 274.296 12.7047 274.235C12.6675 274.092 12.6117 273.97 12.6117 273.868C18.6757 233.552 24.7398 193.236 30.7852 153.042C31.2317 152.491 31.6781 152.634 32.1059 152.675C35.7146 152.981 39.3233 153.287 42.9505 153.572C46.0197 153.817 49.1076 154.082 52.1768 154.266C56.0087 154.49 59.8592 154.633 63.691 154.817C64.1189 154.837 64.5467 154.899 65.0489 154.96C65.235 155.47 65.4396 155.959 65.5884 156.449C67.4857 162.142 68.9738 167.956 70.3131 173.832C72.4709 183.259 74.61 192.705 76.6934 202.172C78.7023 211.292 80.4323 220.453 81.8274 229.716C82.8132 236.204 83.7805 242.712 84.599 249.241C85.3058 254.873 85.7895 260.545 86.3661 266.217C86.5335 267.869 86.7195 269.522 86.8497 271.174C86.9055 271.807 87.0544 272.46 86.8683 273.092C86.4963 273.521 86.0499 273.378 85.622 273.378C83.0737 273.439 80.5439 273.46 77.9955 273.541C76.2656 273.602 74.5356 273.725 72.8057 273.827C72.4337 273.847 72.0617 273.827 71.6152 273.827C71.5408 273.46 71.4106 273.133 71.4106 272.807C71.2432 268.236 70.6107 263.707 70.1271 259.178C69.104 249.874 67.5973 240.652 65.886 231.45C64.4909 224.003 62.9842 216.597 60.9566 209.333C59.8406 205.314 58.6315 201.315 57.2922 197.357C54.8926 190.298 52.3814 183.299 49.8888 176.281C49.368 174.791 48.7541 173.322 48.1589 171.874C47.9543 171.384 47.7125 170.935 47.4148 170.507C47.1358 170.078 46.7266 169.976 46.1313 170.241C46.0383 170.527 45.8337 170.874 45.7779 171.262C45.1083 175.22 44.4572 179.198 43.8062 183.156C42.6715 189.991 41.5554 196.806 40.4207 203.641C39.3977 209.823 38.356 216.005 37.3329 222.187C36.161 229.185 35.0077 236.184 33.8545 243.202C32.7198 250.037 31.6037 256.852 30.4876 263.687C29.9296 267.073 29.3715 270.46 28.8135 273.847C28.7391 274.112 28.6275 274.398 28.4973 274.827Z" fill="#5DB3C1"/>
    <path d="M89.0818 102.586C88.0588 100.709 87.0543 98.8111 85.994 96.934C82.683 91.0988 79.4463 85.1819 75.5773 79.7548C73.1033 76.2863 70.3875 73.0626 67.4113 70.1246C65.3279 68.0639 62.8539 67.0234 60.1939 66.3093C59.022 66.0033 57.8316 65.9625 56.6411 66.1257C54.4275 66.4317 52.2884 67.0234 50.205 67.8803C45.2942 69.9002 40.5695 72.4098 35.9005 75.0417C32.8685 76.7556 29.9481 78.653 26.9905 80.5301C23.9399 82.448 20.9265 84.427 17.913 86.3857C17.5224 86.651 17.0016 86.8142 16.8156 87.5079C19.4197 93.6083 22.7494 99.2191 27.3253 103.973C29.6877 102.259 31.9943 100.607 34.3194 98.9131C34.338 98.8723 34.338 98.8315 34.3566 98.7906C34.524 98.8315 34.6915 98.8519 34.8589 98.8927C34.9705 99.3211 35.1379 99.7292 35.3797 100.096C35.3611 100.178 35.3425 100.28 35.3239 100.362C34.3008 105.524 33.3522 110.686 32.4407 115.868C31.6594 120.295 30.9712 124.743 30.2457 129.171C30.0225 130.517 29.8923 131.864 29.7249 133.129C30.0597 133.822 30.3201 134.394 30.6364 134.965C32.3477 138.087 31.306 141.698 29.1669 143.412C28.9064 143.616 28.6646 143.861 28.3484 144.126C28.1066 145.962 27.8462 147.839 27.7532 149.737C27.7346 150.063 27.7718 150.41 27.7904 150.777C28.367 150.838 28.8506 150.92 29.3157 150.961C33.7986 151.308 38.2629 151.675 42.7459 152.022C45.7035 152.246 48.6797 152.491 51.6373 152.695C53.9625 152.858 56.2876 153.021 58.5942 153.123C61.775 153.266 64.9559 153.348 68.1367 153.43C68.4343 153.43 68.732 153.307 69.011 153.225C69.0668 152.94 69.104 152.777 69.1226 152.613C69.2156 148.043 69.3272 143.473 69.4202 138.923C69.5132 134.536 69.569 130.15 69.662 125.763C69.6992 123.682 69.7364 121.621 69.7922 119.54C69.7922 119.459 69.7922 119.377 69.7922 119.296C69.941 118.989 70.0527 118.663 70.1271 118.316C70.1271 118.296 70.1271 118.296 70.1271 118.275C70.2387 117.704 70.2573 117.112 70.1457 116.521C70.1271 116.276 70.1085 116.031 70.0899 115.786C70.5735 116.97 71.0571 118.133 71.5222 119.336C71.6338 119.642 71.8756 119.887 72.043 120.152C72.3406 120.01 72.5452 119.948 72.7312 119.826C78.2373 116.317 83.241 112.093 87.5379 106.911C88.3006 105.993 89.026 105.034 89.6399 103.789C89.4353 103.32 89.2679 102.932 89.0818 102.586Z" fill="#FFBD5C"/>
    <path d="M62.2773 51.5172C61.4402 53.782 60.5288 55.9243 59.2639 57.8217C58.6314 57.5565 58.6686 56.924 58.464 56.4547C58.2408 55.9855 58.1292 55.455 57.7014 55.1285C57.2735 54.9245 56.9387 55.1081 56.6969 55.4754C56.2318 56.2099 55.8226 56.9852 55.3762 57.7197C55.0786 58.2094 54.9484 58.8215 54.4647 59.1275C54.1299 59.1275 54.1485 58.8419 54.0927 58.6378C53.4044 56.3731 52.3256 54.3124 51.0235 52.3946C49.3307 49.885 48.1217 47.1102 47.4148 44.0906C46.4475 39.9488 48.2333 35.5214 51.7861 33.6647C52.9208 33.0731 53.4416 32.4814 53.3672 31.0124C53.2742 28.9313 54.4275 27.2786 56.2877 26.6054C57.3665 26.2177 58.4826 25.9525 59.5987 25.7892C62.6121 25.3404 65.5139 24.361 68.3413 23.1777C70.0155 22.484 71.5408 21.4842 72.9545 20.2397C73.6241 19.648 74.3124 19.0563 75.0564 18.587C75.6517 18.2198 76.3399 17.9749 77.0096 17.7709C77.3816 17.6689 77.7722 17.7913 78.014 18.179C78.2559 18.5666 78.1629 18.9747 77.9396 19.3419C77.735 19.6684 77.5304 19.9948 77.3444 20.2601C77.4932 20.8109 77.8094 20.8313 78.1443 20.8313C78.9627 20.7905 79.7626 20.6885 80.581 20.6885C81.1763 20.6885 81.7715 20.7701 82.3296 20.9538C83.8363 21.4434 84.2827 22.6472 83.4642 24.0958C83.0736 24.7895 82.5156 25.3812 82.0505 26.0341C81.8831 26.2993 81.8087 26.6258 81.6971 26.8706C82.1063 27.5031 82.6272 27.4011 83.0922 27.4215C83.7433 27.4419 84.3943 27.5031 84.9338 28.2172C84.8779 28.462 84.8966 28.8293 84.7477 29.1149C84.3013 30.0534 83.5573 30.6451 82.7574 31.1348C81.4739 31.9101 80.116 32.5018 78.7023 32.9302C75.4657 33.8892 72.229 34.8277 68.9924 35.7866C68.5273 35.9295 68.0437 36.0111 67.5787 36.1947C67.3369 36.2763 67.1508 36.5007 66.9648 36.6436C67.2625 39.4796 67.2997 41.0098 67.0392 42.0503C66.4812 46.743 65.5325 50.3339 62.2773 51.5172Z" fill="#4F9BA3"/>
    <path d="M65.2907 59.7396C64.3793 61.6575 64.5467 63.9426 63.8212 66.0441C62.5191 65.6564 61.31 65.2076 60.0451 64.9831C58.7803 64.7587 57.4782 64.7995 56.1947 64.7179C56.1575 64.6363 56.0459 64.5343 56.0645 64.4323C56.3435 62.3104 56.9573 60.3109 57.4596 58.1482C58.1664 58.5154 58.0362 59.6784 58.8733 59.7396C59.4871 59.76 59.8591 59.3111 60.1382 58.8011C60.9008 57.3729 61.6635 55.9447 62.3889 54.4961C62.7237 53.8228 63.0028 53.1087 63.319 52.3742C63.7654 52.3742 64.1747 52.3742 64.6769 52.3742C64.7699 52.1089 64.8443 51.8641 64.9187 51.6805C64.7885 51.4968 64.7513 51.3744 64.6583 51.3132C64.4723 51.1908 64.2863 51.0888 64.0816 51.0072C62.9284 50.5175 62.4447 49.5178 62.2959 48.2732C62.1099 46.641 62.4075 45.0903 63.04 43.6009C63.2074 43.2337 63.4492 42.9072 63.7096 42.6012C64.3421 41.9075 65.0303 41.9075 65.7186 42.5808C66.537 43.3969 66.7416 44.4987 66.7602 45.6616C66.7788 46.1309 66.6858 46.6001 66.6486 46.9674C66.9091 47.5387 67.2439 47.5795 67.7461 47.3142C67.8391 47.0286 68.0251 46.6614 68.0995 46.2737C68.4344 44.417 68.546 42.5196 68.5088 40.6221C68.4902 39.5612 68.3042 38.5206 68.5274 37.3576C70.3131 36.868 72.0802 36.3783 73.9218 35.8682C74.0334 36.0519 74.1264 36.1947 74.2008 36.3579C76.526 41.2954 77.2514 46.4369 75.9307 51.8641C75.5029 53.6595 74.7774 55.3122 73.6985 56.7608C72.4151 58.4746 70.7967 59.5968 68.7692 59.8416C68.2484 59.9028 67.6903 59.8416 67.1695 59.8008C66.5742 59.7396 65.9976 59.4948 65.2907 59.7396Z" fill="#FFC9B5"/>
    <path d="M87.7611 286.436C87.1845 287.129 86.645 287.231 86.1242 287.415C83.8362 288.211 81.4738 288.435 79.1115 288.619C78.5162 288.66 77.9396 288.517 77.3257 288.252C76.9351 283.967 76.5445 279.682 76.1353 275.296C77.9024 274.847 79.7439 275.133 81.5482 274.908C83.3154 274.684 85.1011 274.827 86.924 274.827C87.5193 276.806 87.2589 278.785 87.4635 280.682C87.6867 282.6 87.6867 284.559 87.7611 286.436Z" fill="#FFC9B5"/>
    <path d="M22.396 134.19C23.7167 133.129 24.9816 132.129 26.2465 131.129C26.3767 131.027 26.5441 131.007 26.7859 130.905C27.9764 132.884 29.1483 134.863 29.9481 137.066C30.562 138.76 29.9109 140.188 28.9995 141.514C28.7576 141.882 28.3856 142.188 28.0322 142.432C26.2092 143.697 24.3305 144.901 22.303 145.697C21.5961 145.982 20.8335 146.084 20.108 146.227C19.55 146.329 19.0291 146.105 18.5827 145.758C17.5038 144.922 16.983 143.718 16.8714 142.29C16.8342 141.841 17.0202 141.494 17.4108 141.269C17.8944 141.147 18.2107 141.453 18.5269 141.8C18.8617 142.167 19.1965 142.596 19.5872 142.881C19.9778 143.167 20.4056 143.126 20.7218 142.473C20.6288 142.208 20.5172 141.902 20.387 141.596C19.6616 139.943 20.3498 138.168 21.9495 137.638C22.3588 137.495 22.7866 137.434 23.233 137.311C23.3818 136.964 23.5121 136.658 23.6609 136.312C23.4748 135.944 23.3074 135.577 23.1214 135.23C22.8796 134.904 22.6564 134.577 22.396 134.19Z" fill="#FFC9B5"/>
    <path d="M23.8841 276.316C23.7911 277.989 23.6423 279.499 23.4563 281.009C23.2703 282.539 23.1215 284.069 22.954 285.66C22.6936 285.762 22.4704 285.926 22.21 285.946C19.3454 286.048 16.4808 286.13 13.6162 286.211C13.4673 286.211 13.3185 286.15 13.1697 286.109C13.1325 284.661 14.1184 277.989 14.6392 276.112C15.6251 275.806 16.6482 276.153 17.6527 276.112C18.6757 276.071 19.6988 276.132 20.7405 276.173C21.7636 276.234 22.7866 276.132 23.8841 276.316Z" fill="#FFC9B5"/>
    <path opacity="0.1" d="M47.4148 170.486C47.4148 170.486 62.5377 196.786 68.8994 232.246C75.2796 267.726 74.796 274.765 74.796 274.765H70.9455C70.9455 274.765 68.732 221.065 47.4148 170.486Z" fill="black"/>
    <path opacity="0.1" d="M74.796 274.765L87.7612 274.051V276.683L76.1539 281.702L74.796 274.765Z" fill="black"/>
    <path opacity="0.1" d="M65.2907 154.368L36.347 152.165L38.3001 85.1003L31.8269 94.3428C29.6691 97.4033 25.7442 98.1582 22.768 96.0771L19.1407 93.5267L15.9413 87.7527L17.5038 103.177L22.675 99.1579L27.5486 104.83L35.0635 99.1579L29.5389 131.394L28.7576 132.251C28.7576 132.251 31.2874 134.904 28.646 138.556C24.9258 144.595 18.0805 145.289 18.0805 145.289C20.4056 149.716 27.4555 143.453 27.4555 143.453V151.654L30.1341 152.185L24.4793 190.542L11.849 274.806H14.0998L13.2069 280.356L24.7397 277.683L24.8328 275.418L15.3647 274.806L33.3894 167.854C34.3567 162.142 38.7652 157.898 44.0666 157.633L65.3279 156.531L66.1464 156.327L65.2907 154.368Z" fill="black"/>
    <path opacity="0.1" d="M90.6816 109.747C90.6816 109.747 87.6867 117.52 81.8087 120.52L78.5535 116.602C78.5535 116.602 85.4918 111.563 88.84 106.523L90.6816 109.747Z" fill="black"/>
    <path d="M83.9107 26.0136C84.3385 26.2177 84.7292 26.3605 85.1012 26.5849C86.2917 27.299 86.5893 28.4212 85.9196 29.7474C85.4732 30.6451 84.8222 31.3796 84.0223 31.9101C83.241 32.4201 82.4226 32.9302 81.5669 33.2771C80.1532 33.8687 78.7023 34.3176 77.2514 34.8277C76.6376 35.0521 76.0237 35.2561 75.3913 35.4602C75.2983 36.0314 75.5773 36.3987 75.7633 36.8068C77.1212 40.0916 77.828 43.5601 77.7536 47.1714C77.6978 49.8034 77.27 52.3537 76.2283 54.7613C75.6145 56.1691 74.8518 57.4544 73.8288 58.5358C72.0988 60.3517 70.0527 61.2698 67.6531 61.1474C67.1695 61.127 66.6858 61.0862 66.1092 61.0658C65.6256 62.9224 65.3093 64.7587 65.1233 66.5541C65.2535 66.7377 65.2907 66.8602 65.3837 66.9214C68.2484 68.8188 70.5363 71.4304 72.7685 74.1032C76.4515 78.4694 79.5952 83.3049 82.4784 88.3444C85.1012 92.9146 87.6496 97.5461 90.2166 102.137C90.3282 102.341 90.4212 102.565 90.5328 102.749C90.9978 103.483 90.9048 104.197 90.4584 104.891C90.1794 105.32 89.9375 105.789 89.6399 106.278C90.4398 108.054 91.4443 109.665 92.3743 111.318C93.2672 112.909 94.067 114.582 95.2947 116.235C95.5552 114.195 95.8156 112.379 96.0202 110.583C96.3736 107.584 96.6712 104.585 97.0433 101.586C97.6199 96.9952 98.271 92.4249 98.8662 87.8547C99.1452 85.6716 99.3498 83.4885 99.6102 81.3258C99.7963 79.7344 100.038 78.1633 100.243 76.5719C100.354 75.7354 100.708 74.9601 101.191 74.348C101.898 73.4503 102.624 72.573 103.461 71.8181C106.028 69.5329 108.799 67.5743 111.776 65.9828C112.464 65.6156 113.078 65.1259 113.784 64.8199C114.436 64.5342 115.124 64.371 115.812 64.2282C116.426 64.1058 117.003 64.2078 117.412 64.8199C117.877 65.5136 117.635 66.1869 117.3 66.8194C116.835 67.6967 116.147 68.3904 115.403 68.9821C113.859 70.2062 112.575 71.7365 111.143 73.1034C111.069 73.1851 111.031 73.3075 110.92 73.4911C111.143 73.6951 111.348 73.9604 111.59 74.144C112.203 74.6337 112.836 75.0825 113.45 75.5722C113.84 75.8986 114.212 76.2455 114.529 76.6535C115.328 77.6533 115.496 78.7754 114.901 79.9384C114.529 80.6525 114.138 81.387 113.636 81.9991C112.613 83.2233 111.515 84.3658 110.436 85.5288C109.897 86.1001 109.302 86.6305 108.725 87.1814C108.334 88.8136 108.297 90.4663 108.353 92.2005C108.744 92.4045 109.134 92.6086 109.469 92.7718C109.86 93.2411 109.878 93.7715 109.86 94.3224C109.729 97.1584 109.618 100.015 109.45 102.851C109.19 107.054 108.576 111.216 107.981 115.378C107.237 120.54 106.344 125.661 105.042 130.701C104.688 132.068 104.186 133.373 103.479 134.598C102.028 137.087 99.9265 138.393 97.3037 138.597C96.5224 138.658 95.704 138.393 94.9227 138.168C92.6905 137.474 90.8118 136.087 89.1563 134.332C86.9985 132.068 85.157 129.517 83.5945 126.702C82.0878 123.968 80.5439 121.234 78.9999 118.52C78.8325 118.235 78.6279 117.969 78.4047 117.622C75.9679 118.969 73.9962 121.152 71.1874 121.887C70.8711 125.416 71.0386 129.028 70.9641 132.619C70.8897 136.291 70.7595 139.964 70.6851 143.657C70.6293 147.268 70.6107 150.9 70.5735 154.388C70.3317 154.939 69.9969 155.082 69.5876 155.082C69.0482 155.082 68.5088 155.041 67.9693 155.062C67.5973 155.082 67.2439 155.143 66.7788 155.184C66.8346 155.551 66.8346 155.837 66.909 156.102C70.1085 165.896 72.2104 176.036 74.4984 186.094C76.3957 194.378 78.1815 202.682 79.8742 211.027C81.1391 217.331 82.2366 223.697 83.2596 230.063C84.2269 236.081 85.0826 242.121 85.8266 248.18C86.5149 253.71 87.0357 259.259 87.5938 264.788C87.91 267.91 88.1704 271.052 88.4308 274.174C88.5982 276.296 88.6912 278.438 88.8215 280.56C88.9331 282.498 89.0633 284.457 89.1935 286.477C89.8259 286.66 90.384 286.823 90.9606 286.987C94.4763 287.925 97.7315 289.455 100.559 291.985C101.917 293.189 103.033 294.638 103.907 296.311C104.54 297.514 104.949 298.779 104.8 300.146C104.54 300.697 104.149 300.861 103.703 300.901C103.331 300.922 102.94 300.922 102.568 300.922C97.0991 300.942 91.6303 300.963 86.1615 301.003C83.5015 301.024 80.8601 301.085 78.2187 301.105C77.6234 301.105 77.0282 301.228 76.4144 300.738C76.3771 300.534 76.2655 300.269 76.2655 299.983C76.2469 295.291 76.0423 290.618 75.6889 285.946C75.4843 283.232 75.2425 280.519 74.982 277.805C74.9076 277.05 74.7402 276.296 74.5914 275.479C74.2194 275.439 73.9218 275.377 73.6055 275.398C72.9545 275.439 72.3034 275.5 71.671 275.561C70.8153 275.643 70.2015 275.296 69.8667 274.276C70.2201 273.215 70.0899 272.011 69.9783 270.848C69.7178 267.89 69.4202 264.952 69.104 262.014C68.7506 258.831 68.3786 255.648 67.9135 252.485C67.1695 247.385 66.4068 242.304 65.5512 237.224C64.4165 230.45 63.0214 223.738 61.4961 217.066C59.8033 209.619 57.5712 202.376 55.0972 195.235C53.1998 189.808 51.3025 184.381 49.368 178.974C48.8471 177.484 48.2705 176.015 47.6938 174.526C47.545 174.159 47.359 173.812 47.1916 173.465C46.7824 173.567 46.7452 173.873 46.708 174.159C45.9267 178.892 45.1641 183.605 44.3642 188.339C43.4527 193.888 42.5041 199.418 41.5926 204.967C40.5695 211.088 39.565 217.229 38.5606 223.35C37.4073 230.287 36.254 237.244 35.1007 244.181C34.0776 250.302 33.0732 256.444 32.0687 262.564C31.4735 266.114 30.8968 269.685 30.3202 273.255C30.1714 274.194 30.0411 275.112 29.8923 276.173C29.6691 276.275 29.3901 276.52 29.0925 276.54C28.3856 276.581 27.6788 276.54 26.9905 276.5C26.5069 276.479 26.0233 276.316 25.5582 276.602C25.149 277.744 24.684 281.539 24.4421 285.824C24.7956 285.987 25.1676 286.191 25.5582 286.313C27.2323 286.823 28.8321 287.537 30.3202 288.517C31.8083 289.517 33.1476 290.72 34.1707 292.291C35.3797 294.128 36.0122 296.168 35.9192 298.453C35.882 299.534 35.696 300.554 35.0263 301.473C34.7659 301.513 34.4869 301.575 34.2265 301.575C26.2651 301.411 18.3223 301.248 10.3609 301.085C10.2121 301.085 10.0633 300.963 9.93307 300.922C9.54244 300.555 9.48664 300.106 9.56104 299.616C9.76566 298.269 9.93307 296.923 10.1563 295.576C11.0678 289.659 11.9792 283.763 12.8907 277.846C12.9651 277.336 12.9837 276.785 13.0209 276.173C12.3885 276.051 11.8304 275.928 11.198 275.785C11.1608 275.398 11.0492 275.051 11.0864 274.745C11.6444 270.991 12.221 267.257 12.7791 263.503C13.4859 258.831 14.1928 254.138 14.8996 249.466C15.6065 244.793 16.3133 240.101 17.0202 235.429C17.727 230.797 18.4153 226.186 19.1035 221.555C19.9406 216.046 20.7777 210.558 21.5961 205.049C22.5076 199.03 23.4005 192.991 24.3119 186.951C25.242 180.81 26.1721 174.669 27.1021 168.528C27.8648 163.488 28.6088 158.469 29.3715 153.429C29.3901 153.266 29.3715 153.083 29.3715 152.797C28.4972 152.593 27.623 152.409 26.6557 152.185C26.5813 151.756 26.4511 151.369 26.4697 150.981C26.5441 149.737 26.6743 148.492 26.7859 147.268C26.8231 146.737 26.8603 146.207 26.8789 145.676C26.8789 145.574 26.8045 145.472 26.7115 145.248C26.2279 145.513 25.7628 145.758 25.2792 146.023C23.8283 146.799 22.3588 147.533 20.7219 147.839C19.6802 148.023 18.7687 147.86 17.9317 147.268C16.2389 146.084 15.4577 144.33 15.4763 142.167C15.4763 140.698 16.4249 139.76 17.634 139.862C17.8014 139.882 17.9503 139.882 18.1177 139.882C18.2293 139.882 18.3223 139.841 18.4339 139.841C18.8431 139.086 19.1407 138.229 19.6802 137.597C20.201 136.964 20.9451 136.556 21.6519 135.965C21.4473 135.699 21.2613 135.455 21.0753 135.23C20.2754 135.495 19.5686 135.74 18.8431 135.944C18.6571 136.005 18.4153 135.903 18.1177 135.883C17.8386 135.495 17.5224 135.087 17.262 134.638C14.9182 130.66 12.6303 126.62 10.2121 122.682C7.47769 118.255 5.07811 113.603 2.69714 108.951C1.93448 107.462 1.32064 105.87 0.632388 104.32C0.539381 104.116 0.483577 103.871 0.39057 103.647C-0.42789 101.463 -0.0558629 99.4435 1.17183 97.6073C1.67406 96.8524 2.32511 96.1995 2.99476 95.5874C3.70161 94.9549 4.48287 94.404 5.26413 93.8531C12.6861 88.63 20.0522 83.3049 27.7532 78.5714C32.2919 75.7762 36.8306 73.0626 41.5368 70.6143C45.2013 68.7168 48.9029 66.901 52.8278 65.6768C53.3487 65.5136 53.8695 65.3708 54.3531 65.2483C54.9298 63.9426 55.3762 62.0247 55.4878 60.3312C55.2274 60.7189 55.0414 61.0045 54.8368 61.2698C54.6321 61.5554 54.4461 61.8207 54.2043 62.1471C53.9439 62.1063 53.7021 62.0859 53.5161 62.0655C53.4231 61.8819 53.3301 61.7799 53.3115 61.6778C53.1812 58.7806 52.0094 56.3119 50.5399 54.0064C49.5726 52.4966 48.6239 50.9867 47.8799 49.3341C47.1172 47.6203 46.522 45.8452 46.1499 43.9886C45.0896 38.9695 47.8241 34.8277 50.7073 32.9098C51.1165 32.6242 51.5629 32.3997 52.0466 32.1141C52.0838 31.7468 52.1396 31.3388 52.1582 30.9307C52.2884 28.0743 53.7393 26.3197 56.1017 25.4424C57.3293 24.9935 58.6314 24.7691 59.8963 24.5446C63.0586 23.9938 66.1092 22.9736 69.0296 21.5454C70.2759 20.9333 71.3548 20.056 72.4523 19.1583C73.3079 18.4442 74.2194 17.7913 75.1495 17.1792C75.8005 16.7507 76.5446 16.5671 77.3258 16.5875C78.4977 16.6283 79.0185 17.0364 79.3534 18.2402C79.4464 18.587 79.4836 18.9339 79.558 19.3827C79.9672 19.4235 80.395 19.4439 80.8043 19.5051C81.5483 19.6276 82.3296 19.6684 83.0178 19.9336C84.9896 20.6681 85.529 22.5044 84.7478 24.5242C84.5431 24.9323 84.2269 25.422 83.9107 26.0136ZM28.4972 274.827C28.6274 274.398 28.739 274.133 28.7949 273.847C29.3529 270.46 29.9109 267.073 30.469 263.687C31.6037 256.852 32.7197 250.017 33.8358 243.202C34.9891 236.204 36.161 229.206 37.3143 222.187C38.3374 216.005 39.379 209.823 40.4021 203.641C41.5368 196.806 42.6529 189.991 43.7876 183.156C44.4386 179.178 45.0897 175.22 45.7593 171.262C45.8151 170.874 46.0197 170.507 46.1127 170.241C46.6894 169.976 47.0986 170.078 47.3962 170.507C47.6752 170.935 47.9357 171.404 48.1403 171.874C48.7355 173.343 49.3494 174.791 49.8702 176.281C52.3628 183.299 54.874 190.318 57.2735 197.357C58.6128 201.295 59.8219 205.294 60.938 209.333C62.947 216.597 64.4723 224.003 65.8674 231.45C67.5787 240.631 69.0854 249.853 70.1085 259.178C70.6107 263.707 71.2432 268.236 71.392 272.807C71.4106 273.133 71.5222 273.46 71.5966 273.827C72.043 273.827 72.4151 273.847 72.7871 273.827C74.517 273.745 76.2469 273.602 77.9769 273.541C80.5252 273.46 83.055 273.439 85.6034 273.378C86.0126 273.378 86.4777 273.5 86.8497 273.092C87.0357 272.46 86.8683 271.827 86.8311 271.174C86.7009 269.522 86.5149 267.869 86.3475 266.216C85.7708 260.565 85.2872 254.893 84.5803 249.241C83.7619 242.712 82.7946 236.224 81.8087 229.716C80.4136 220.473 78.6837 211.292 76.6748 202.172C74.5914 192.725 72.4709 183.279 70.2945 173.832C68.9552 167.956 67.4671 162.142 65.5697 156.449C65.4023 155.959 65.2163 155.47 65.0303 154.96C64.5281 154.898 64.1002 154.837 63.6724 154.817C59.8405 154.633 55.9901 154.49 52.1582 154.266C49.0889 154.082 46.0011 153.817 42.9319 153.572C39.3232 153.287 35.7146 152.96 32.0873 152.675C31.6595 152.634 31.213 152.491 30.7666 153.042C24.7212 193.215 18.6571 233.531 12.5931 273.868C12.5745 273.97 12.6489 274.092 12.6861 274.235C12.8163 274.296 12.9651 274.418 13.1139 274.418C18.2107 274.459 23.2889 274.888 28.4972 274.827ZM89.6399 103.769C89.4353 103.32 89.2679 102.953 89.0819 102.586C88.0588 100.709 87.0543 98.811 85.994 96.934C82.683 91.0988 79.4464 85.1819 75.5773 79.7548C73.1033 76.2863 70.3875 73.0626 67.4113 70.1246C65.3279 68.0639 62.854 67.0234 60.194 66.3093C59.0221 66.0032 57.8316 65.9624 56.6411 66.1257C54.4275 66.4317 52.2884 67.0234 50.205 67.8803C45.2943 69.9002 40.5695 72.4097 35.9006 75.0417C32.8686 76.7555 29.9481 78.653 26.9905 80.5301C23.9399 82.448 20.9265 84.427 17.9131 86.3857C17.5224 86.6509 17.0016 86.8142 16.8156 87.5079C19.4198 93.6083 22.7494 99.2191 27.3253 103.973C29.6877 102.259 31.9943 100.606 34.3195 98.9131C34.4497 98.403 34.5985 97.9133 34.7101 97.3828C35.2495 94.9753 35.7704 92.5474 36.347 90.1398C36.7376 88.4668 37.0539 86.7938 37.2027 85.0799C37.2213 84.8555 37.2399 84.6106 37.2957 84.3862C37.3701 83.9986 37.5747 83.9374 38.2257 84.0802C38.2443 84.3862 38.3002 84.7331 38.3002 85.0799C38.3002 86.5693 38.0211 88.0179 37.7049 89.4665C36.9051 93.0982 36.0308 96.7095 35.3053 100.362C34.2823 105.524 33.3336 110.686 32.4221 115.868C31.6409 120.295 30.9526 124.743 30.2272 129.17C30.0039 130.517 29.8737 131.864 29.7063 133.129C30.0411 133.822 30.3016 134.394 30.6178 134.965C32.3291 138.087 31.2874 141.698 29.1483 143.412C28.8879 143.616 28.646 143.861 28.3298 144.126C28.088 145.962 27.8276 147.839 27.7346 149.737C27.716 150.063 27.7532 150.41 27.7718 150.777C28.3484 150.838 28.8321 150.92 29.2971 150.961C33.78 151.308 38.2443 151.675 42.7273 152.022C45.6849 152.246 48.6611 152.491 51.6187 152.695C53.9439 152.858 56.2691 153.021 58.5756 153.123C61.7565 153.266 64.9373 153.348 68.1181 153.429C68.4158 153.429 68.7134 153.307 68.9924 153.225C69.0482 152.94 69.0854 152.777 69.104 152.613C69.197 148.043 69.3086 143.473 69.4016 138.923C69.4946 134.536 69.5504 130.15 69.6434 125.763C69.6806 123.682 69.7178 121.621 69.7737 119.54C69.7923 118.683 69.662 117.908 69.3272 117.133C68.825 116.011 68.3786 114.868 67.8949 113.746C65.9976 109.421 64.0816 105.095 62.2029 100.77C61.9797 100.239 61.7565 99.6884 61.6077 99.1171C61.5146 98.7498 61.6263 98.403 62.0169 98.2602C62.6307 98.3418 62.7237 98.9131 62.9284 99.3823C65.7186 106.074 68.918 112.542 71.5408 119.316C71.6524 119.622 71.8942 119.867 72.0616 120.132C72.3593 119.989 72.5639 119.928 72.7499 119.806C78.2559 116.296 83.2597 112.073 87.5566 106.891C88.3192 105.972 89.0447 105.014 89.6399 103.769ZM77.3816 20.2804C77.549 20.0152 77.7722 19.6888 77.9769 19.3623C78.2001 18.9951 78.2931 18.587 78.0513 18.1993C77.8094 17.8117 77.4188 17.6893 77.0468 17.7913C76.3771 17.9953 75.6889 18.2402 75.0936 18.6074C74.3496 19.0767 73.6613 19.6684 72.9917 20.26C71.5966 21.5046 70.0527 22.5044 68.3786 23.198C65.5511 24.3814 62.6493 25.3608 59.6359 25.8096C58.5198 25.9728 57.3852 26.2381 56.3249 26.6257C54.4647 27.299 53.2929 28.9517 53.4045 31.0327C53.4789 32.5018 52.9394 33.0934 51.8233 33.6851C48.2705 35.5418 46.4662 39.9692 47.452 44.111C48.1589 47.1306 49.368 49.9054 51.0607 52.4149C52.3628 54.3328 53.4231 56.3935 54.1299 58.6582C54.1857 58.8418 54.1671 59.1479 54.5019 59.1479C54.9856 58.8418 55.1158 58.2298 55.4134 57.7401C55.8598 57.0056 56.2691 56.2303 56.7341 55.4958C56.9573 55.1285 57.3107 54.9449 57.7386 55.1489C58.1664 55.455 58.278 55.9854 58.5012 56.4751C58.7059 56.924 58.65 57.5769 59.3011 57.8421C60.566 55.9242 61.4775 53.8023 62.3145 51.5376C61.6821 50.6399 61.2356 49.6402 61.124 48.4976C60.9194 46.5593 61.217 44.7027 62.0355 42.9684C62.3331 42.3563 62.7981 41.8055 63.2818 41.3566C64.0816 40.6017 65.0861 40.6017 65.9976 41.2138C66.3882 41.479 66.7602 41.8055 67.1695 42.1319C67.4113 41.0914 67.3927 39.5611 67.0951 36.7251C67.2811 36.5823 67.4671 36.3579 67.7089 36.2763C68.1739 36.0927 68.6576 36.011 69.1226 35.8682C72.3592 34.9093 75.5959 33.9708 78.8325 33.0118C80.2462 32.5834 81.6041 31.9917 82.8876 31.2164C83.7061 30.7267 84.4501 30.1146 84.878 29.1965C85.0082 28.9109 85.0082 28.5436 85.064 28.2988C84.5245 27.5847 83.8921 27.5235 83.2225 27.5031C82.7388 27.4826 82.2366 27.5847 81.8273 26.9522C81.9203 26.7073 81.9948 26.3605 82.1808 26.1157C82.6272 25.4424 83.2038 24.8711 83.5945 24.1774C84.3943 22.7084 83.9665 21.525 82.4598 21.0353C81.9017 20.8517 81.2879 20.7701 80.7113 20.7701C79.8928 20.7701 79.0929 20.8721 78.2745 20.9129C77.8653 20.8721 77.5304 20.8313 77.3816 20.2804ZM88.747 107.727C88.4494 107.931 88.3006 107.992 88.189 108.115C85.7522 110.992 83.0736 113.562 80.2462 115.97C80.0416 116.133 79.8928 116.378 79.7068 116.623C79.8928 117.01 80.023 117.337 80.1904 117.622C81.8831 120.663 83.5759 123.682 85.2872 126.702C86.6637 129.13 88.3378 131.313 90.2352 133.271C91.7791 134.883 93.5462 136.107 95.6296 136.76C96.82 137.128 98.0105 137.148 99.1266 136.577C100.95 135.679 102.419 134.292 103.145 132.17C103.442 131.292 103.703 130.374 103.944 129.456C104.912 125.804 105.6 122.091 106.158 118.357C106.846 113.746 107.46 109.094 107.981 104.463C108.316 101.525 108.52 98.5662 108.465 95.5874C108.446 95.0773 108.409 94.5468 108.371 93.996C107.367 93.5471 106.381 93.7511 105.432 93.6491C104.409 93.5471 103.386 93.5471 102.363 93.5471C101.396 93.5267 100.429 93.4655 99.48 93.9348C99.4242 94.2612 99.3498 94.5468 99.3126 94.8325C99.108 96.5259 98.9034 98.2398 98.6988 99.9536C98.4756 101.831 98.2151 103.708 97.9919 105.585C97.6943 108.054 97.4153 110.522 97.1363 112.991C96.9131 114.929 96.5782 116.847 96.727 118.887C97.0619 119.438 97.4339 120.03 97.7873 120.622C98.1221 121.152 98.457 121.703 98.7732 122.254C98.8476 122.397 98.829 122.601 98.8662 122.825C98.6802 123.009 98.4756 123.172 98.2523 123.396C97.9547 123.131 97.6571 122.948 97.4711 122.703C97.0991 122.193 96.7456 121.662 96.4294 121.132C94.5321 117.888 92.6533 114.623 90.7746 111.379C90.1236 110.175 89.4725 109.012 88.747 107.727ZM13.1697 105.524C14.7322 104.422 16.1459 103.442 17.541 102.422C18.9361 101.423 20.3684 100.484 21.7635 99.3619C20.6475 97.4849 19.55 95.7302 18.5455 93.9144C17.5224 92.0373 16.611 90.099 15.6251 88.1199C15.3461 88.2628 15.0856 88.3648 14.881 88.528C11.8304 90.6703 8.77979 92.8126 5.76636 95.0161C4.78049 95.7302 3.86903 96.6075 3.03196 97.5053C1.43225 99.1987 0.948611 101.219 1.89728 103.504C2.41812 104.769 2.93896 106.095 3.5714 107.319C5.37574 110.828 7.12426 114.378 9.07741 117.786C12.0536 123.009 15.1787 128.13 18.2479 133.312C18.4525 133.639 18.7129 133.924 18.9361 134.19C20.8335 133.598 24.4235 131.027 25.9116 129.211C21.7449 121.377 17.7642 113.379 13.1697 105.524ZM65.2907 59.7396C65.9976 59.5151 66.5742 59.7396 67.1695 59.7804C67.7089 59.8212 68.2484 59.8824 68.7692 59.8212C70.8153 59.5763 72.415 58.4542 73.6985 56.7403C74.7774 55.2917 75.5029 53.6391 75.9307 51.8437C77.2328 46.4369 76.526 41.275 74.2008 36.3375C74.1264 36.1743 74.0334 36.0314 73.9218 35.8478C72.0616 36.3579 70.2945 36.8476 68.5274 37.3372C68.3042 38.5002 68.4716 39.5611 68.5088 40.6017C68.5646 42.4992 68.453 44.3966 68.0995 46.2533C68.0251 46.6409 67.8391 47.0082 67.7461 47.2938C67.2439 47.5591 66.909 47.5183 66.6486 46.947C66.6858 46.5797 66.7602 46.1105 66.7602 45.6412C66.7416 44.4986 66.537 43.3969 65.7186 42.5604C65.0489 41.8871 64.3421 41.8871 63.7096 42.5808C63.4492 42.8664 63.1888 43.2133 63.04 43.5805C62.3889 45.0495 62.1099 46.6001 62.2959 48.2528C62.4447 49.5177 62.9284 50.5175 64.0816 50.9867C64.2863 51.0684 64.4723 51.1704 64.6583 51.2928C64.7513 51.354 64.7885 51.4764 64.9187 51.66C64.8629 51.8641 64.7699 52.1089 64.6769 52.3537C64.1933 52.3537 63.7654 52.3537 63.319 52.3537C63.0028 53.0882 62.7423 53.8023 62.3889 54.4756C61.6635 55.9242 60.9008 57.3728 60.1382 58.7806C59.8591 59.2907 59.5057 59.7396 58.8733 59.7192C58.0362 59.6376 58.1664 58.495 57.4596 58.1277C56.9759 60.2904 56.3435 62.3103 56.0645 64.4118C56.0459 64.4934 56.1575 64.6158 56.1947 64.6975C57.4968 64.7791 58.7803 64.7383 60.0451 64.9627C61.2914 65.1871 62.5191 65.636 63.8212 66.0236C64.5467 63.9426 64.3793 61.6574 65.2907 59.7396ZM15.1415 105.932C15.2531 106.156 15.3647 106.421 15.4949 106.666C17.5596 110.502 19.643 114.317 21.6891 118.153C23.7725 122.05 25.8 125.967 27.8648 129.864C28.0694 130.252 28.1624 130.782 28.7577 130.905C30.2272 121.071 31.9943 111.298 33.78 101.545C33.7986 101.443 33.7242 101.321 33.6684 101.096C33.3894 101.259 33.0918 101.361 32.85 101.565C31.2316 102.769 29.6319 103.953 28.0322 105.177C27.716 105.422 27.437 105.687 26.8417 105.503C25.7442 104.177 24.5351 102.749 23.3261 101.321C23.0842 101.035 22.7866 100.79 22.5448 100.545C20.2196 101.953 16.0715 104.973 15.1415 105.932ZM34.2265 299.84C34.8031 297.637 34.4497 295.76 33.5754 293.985C32.943 292.72 32.0687 291.679 31.027 290.782C29.4273 289.415 27.6416 288.435 25.707 287.844C25.0374 287.639 24.3305 287.476 23.6423 287.476C20.6103 287.497 17.5968 287.599 14.5648 287.68C13.9696 287.701 13.3929 287.803 12.8907 287.864C12.7605 288.088 12.6675 288.17 12.6489 288.272C12.1094 291.822 11.57 295.393 11.0306 298.963C11.0306 299.024 11.0306 299.085 11.0492 299.147C11.0678 299.188 11.1236 299.228 11.2538 299.371C16.8714 299.779 22.582 299.657 28.2926 299.82C30.2272 299.881 32.1617 299.942 34.2265 299.84ZM77.7164 299.432C78.4233 299.432 78.9627 299.432 79.5022 299.432C83.6689 299.412 87.8356 299.392 92.0023 299.392C95.3505 299.392 98.7174 299.392 102.066 299.392C102.475 299.392 102.903 299.31 103.331 299.269C103.368 298.147 102.958 297.31 102.475 296.515C101.694 295.229 100.801 294.046 99.6847 293.067C96.4852 290.251 92.7835 288.721 88.8215 287.986C85.2872 289.517 81.6971 290.19 77.9583 290.067C77.7722 290.067 77.5676 290.19 77.363 290.271C77.549 293.291 77.456 296.249 77.7164 299.432ZM108.446 73.0422C108.948 72.7566 109.525 72.5526 109.971 72.1649C111.72 70.5735 113.412 68.9209 115.124 67.2886C115.514 66.901 115.979 66.5541 116.11 65.84C115.886 65.8196 115.682 65.7176 115.496 65.7788C114.938 65.9624 114.343 66.1461 113.822 66.4521C110.511 68.3496 107.274 70.3695 104.372 72.9606C103.907 73.3687 103.461 73.8175 103.052 74.2664C102.27 75.1233 101.731 76.1231 101.582 77.3676C101.359 79.1835 101.08 80.9993 100.838 82.8152C100.522 85.2227 100.243 87.6303 99.9451 90.0378C99.8707 90.6703 99.8149 91.3028 99.7405 91.9149C101.08 92.1597 105.693 92.1801 106.753 91.9557C107.107 90.8743 107.069 89.7318 107.069 88.63C107.069 87.1202 107.572 86.0185 108.688 85.1615C109.134 84.8147 109.543 84.427 109.934 84.019C110.883 82.9784 111.85 81.9379 112.743 80.8361C113.282 80.1832 113.729 79.4283 113.877 78.6122C113.747 77.7553 113.245 77.2656 112.706 76.8576C111.645 76.0619 110.548 75.3069 109.45 74.5316C109.171 74.348 108.855 74.2256 108.595 74.0216C108.353 73.7563 108.278 73.4299 108.446 73.0422ZM87.7612 286.436C87.6868 284.579 87.6868 282.62 87.4822 280.682C87.2775 278.764 87.5194 276.806 86.9427 274.827C85.1198 274.806 83.3341 274.684 81.5669 274.908C79.7626 275.133 77.9211 274.847 76.1539 275.296C76.5632 279.682 76.9538 283.967 77.3444 288.252C77.9583 288.517 78.5163 288.66 79.1301 288.619C81.4925 288.435 83.8549 288.211 86.1429 287.415C86.6451 287.231 87.1845 287.129 87.7612 286.436ZM22.396 134.19C22.6564 134.577 22.8796 134.904 23.0656 135.23C23.2702 135.577 23.4191 135.944 23.6051 136.311C23.4563 136.679 23.3261 136.985 23.1772 137.311C22.7308 137.413 22.303 137.495 21.8937 137.638C20.294 138.168 19.6058 139.943 20.3312 141.596C20.4614 141.902 20.5731 142.228 20.6661 142.473C20.3498 143.106 19.922 143.167 19.5314 142.881C19.1407 142.596 18.8245 142.188 18.4711 141.8C18.1549 141.453 17.8386 141.147 17.355 141.269C16.9644 141.494 16.7784 141.841 16.8156 142.29C16.9272 143.718 17.4666 144.922 18.5269 145.758C18.9733 146.105 19.4942 146.329 20.0522 146.227C20.7963 146.084 21.5589 145.982 22.2472 145.697C24.2933 144.881 26.1535 143.697 27.9764 142.432C28.3298 142.188 28.7018 141.881 28.9437 141.514C29.8365 140.188 30.4876 138.76 29.8923 137.066C29.0925 134.842 27.9206 132.884 26.7301 130.905C26.4883 131.007 26.3209 131.027 26.1907 131.129C24.9816 132.129 23.7167 133.129 22.396 134.19ZM23.8841 276.316C22.7866 276.112 21.7635 276.214 20.7591 276.173C19.736 276.112 18.6943 276.051 17.6712 276.112C16.6668 276.153 15.6437 275.806 14.6578 276.112C14.1184 277.969 13.1511 284.661 13.1883 286.109C13.3371 286.15 13.4859 286.211 13.6347 286.211C16.4994 286.13 19.364 286.048 22.2286 285.946C22.4704 285.946 22.7122 285.762 22.9726 285.66C23.14 284.069 23.2889 282.539 23.4749 281.009C23.6423 279.499 23.7911 277.989 23.8841 276.316Z" fill="#3C3372"/>
    <path d="M29.2971 40.4997C27.5113 37.5617 25.1676 35.5622 22.21 34.134C22.9726 33.4403 23.6237 32.9098 24.1817 32.2773C24.7025 31.6857 25.1676 31.0124 25.5582 30.2983C25.9674 29.5434 26.2837 28.7272 26.6371 27.9111C27.8834 28.9109 29.0925 29.9106 30.3202 30.8491C31.5664 31.7673 33.036 32.1957 34.5613 32.869C33.9846 33.5423 33.5196 34.0728 33.0732 34.6441C32.5709 35.2766 32.0873 35.9091 31.6409 36.5823C31.213 37.1944 30.8596 37.8677 30.469 38.5002C30.0969 39.1327 29.8737 39.8876 29.2971 40.4997Z" fill="#FFBD5C"/>
    <path d="M37.463 17.4445C37.9652 16.6692 38.4675 15.9755 38.8767 15.2206C39.2859 14.4656 39.6208 13.6699 40.0114 12.8538C40.8857 13.4863 41.7041 14.18 42.597 14.7105C43.4527 15.2206 44.3641 15.547 45.35 15.9959C44.978 16.9344 44.2525 17.5873 43.8247 18.4646C43.3968 19.3419 42.969 20.1988 42.4854 21.1578C41.9645 20.5457 41.5553 19.9948 41.0717 19.546C40.5322 19.0563 39.937 18.6278 39.3231 18.2606C38.7651 17.9545 38.1327 17.7505 37.463 17.4445Z" fill="#FFBD5C"/>
    <path d="M37.0724 57.4545C36.5515 56.8832 36.1051 56.4139 35.6215 55.863C36.0307 55.3122 36.4585 54.7205 36.9422 54.0472C37.463 54.6185 37.928 55.1489 38.4117 55.6794C38.0396 56.4139 37.5188 56.9036 37.0724 57.4545Z" fill="#FFBD5C"/>
    <path d="M37.3886 32.4406C37.184 32.6854 36.998 32.9914 36.7562 33.1751C33.4452 35.705 31.2688 39.1327 30.0039 43.3153C29.9295 43.5397 29.8923 43.7845 29.7621 43.9682C29.6505 44.1518 29.4645 44.3762 29.2971 44.3966C29.0738 44.417 28.832 44.2334 28.553 44.1314C28.7018 41.7647 27.5299 40.1732 26.1348 38.7042C24.4607 36.97 22.5076 35.7662 20.2754 35.0929C19.9778 35.0113 19.6801 34.8685 19.3825 34.7257C19.2895 34.6849 19.2523 34.5421 19.1779 34.44C19.0849 33.9504 19.3453 33.6443 19.6615 33.4199C19.8848 33.2567 20.1452 33.1751 20.4056 33.073C23.4748 31.9713 24.9443 29.4821 25.4094 26.1157C25.4838 25.5852 25.5024 25.0547 25.5396 24.463C25.8744 24.4018 26.1534 24.3406 26.4138 24.2794C26.5441 24.4426 26.6371 24.5243 26.6743 24.6263C27.2509 26.3605 28.367 27.6255 29.7063 28.6864C31.678 30.2167 33.8172 31.2776 36.2354 31.5632C36.533 31.604 36.8492 31.7673 37.1096 31.9509C37.277 31.9713 37.2956 32.1957 37.3886 32.4406ZM29.2971 40.4997C29.8737 39.8672 30.0783 39.1123 30.4689 38.5002C30.8596 37.8677 31.2316 37.1944 31.6408 36.5823C32.0873 35.909 32.5709 35.2766 33.0731 34.6441C33.5196 34.0728 34.0032 33.5423 34.5612 32.869C33.0359 32.1957 31.5664 31.7673 30.3201 30.8491C29.0738 29.931 27.8834 28.9109 26.6371 27.9111C26.2836 28.7068 25.986 29.5434 25.5582 30.2983C25.1676 31.0124 24.7025 31.6857 24.1817 32.2773C23.6236 32.9098 22.9726 33.4199 22.2099 34.134C25.1676 35.5622 27.5299 37.5617 29.2971 40.4997Z" fill="#3C3372"/>
    <path d="M43.2109 24.5651C43.0248 24.6875 42.8388 24.8099 42.69 24.9119C42.2064 24.8507 41.9832 24.5447 41.8716 24.1162C41.76 23.6673 41.6669 23.1981 41.4995 22.7696C40.5509 20.5457 38.9139 19.3623 36.7376 18.9951C36.3098 18.9339 35.8633 18.9543 35.4541 18.8727C35.0635 18.791 34.7658 18.5462 34.7286 18.0565C34.7658 17.5057 35.1751 17.2812 35.5285 17.016C36.6818 16.1591 37.5002 14.9961 38.1141 13.6699C38.5791 12.6498 38.8953 11.6092 38.7279 10.4259C38.6907 10.1606 38.8209 9.875 38.8581 9.65056C39.3046 9.32412 39.6394 9.40573 39.9556 9.73218C40.03 9.81379 40.1044 9.9158 40.1416 10.0178C41.3321 12.7518 43.5457 13.8127 46.0383 14.486C46.5591 14.6289 47.0799 14.7717 47.6566 14.9145C47.731 15.2614 47.8054 15.5878 47.8984 15.955C45.1454 18.0565 43.7875 21.0558 43.2109 24.5651ZM37.463 17.4445C38.1327 17.7505 38.7465 17.9545 39.3232 18.3014C39.937 18.6686 40.5323 19.0971 41.0717 19.5868C41.5553 20.0356 41.9646 20.5865 42.4854 21.1986C42.969 20.2192 43.4155 19.3623 43.8247 18.5054C44.2525 17.6281 44.978 16.9752 45.35 16.0367C44.3827 15.5878 43.4527 15.2409 42.597 14.7513C41.7041 14.2208 40.8857 13.5475 40.0114 12.8946C39.6208 13.7107 39.3046 14.5064 38.8767 15.2614C38.4675 15.9755 37.9653 16.6691 37.463 17.4445Z" fill="#3C3372"/>
    <path d="M33.0545 55.3326C33.3893 55.2102 33.6311 55.0877 33.8729 55.0061C34.803 54.6593 35.3982 53.9452 35.7703 52.9658C35.9191 52.5782 36.0493 52.1905 36.2539 51.8641C36.3841 51.6397 36.6631 51.4968 36.9422 51.2724C37.2398 51.558 37.6304 51.7621 37.7606 52.0885C38.2442 53.3331 39.0069 54.2716 40.03 55.0061C40.0672 55.0469 40.1044 55.0877 40.1416 55.1285C40.4764 55.5162 40.4764 56.0467 40.1602 56.3935C40.0486 56.5159 39.9184 56.6179 39.7882 56.72C38.8767 57.3933 38.2256 58.3318 37.7048 59.3723C37.6118 59.5764 37.4816 59.76 37.3142 60.0252C37.0352 60.0456 36.7375 60.066 36.4957 60.066C36.3655 59.9028 36.2539 59.8212 36.2167 59.7192C35.8261 58.189 35.0076 57.1076 33.5567 56.6792C33.4079 56.6384 33.2777 56.5159 33.1475 56.4139C32.9801 56.3119 32.9615 56.1283 33.0545 55.3326ZM37.0724 57.4545C37.5188 56.9036 38.0396 56.4139 38.4303 55.6794C37.9466 55.1489 37.463 54.6185 36.9608 54.0472C36.4585 54.7205 36.0307 55.3122 35.6401 55.863C36.1237 56.4139 36.5701 56.8832 37.0724 57.4545Z" fill="#3C3372"/>
    <path d="M66.1092 176.485C65.8674 176.709 65.6442 176.934 65.4581 177.117C64.8071 176.893 64.6769 176.383 64.5095 175.873C63.9886 174.2 63.4492 172.506 62.9098 170.833C61.9239 167.691 60.938 164.569 59.9521 161.427C59.7847 160.877 59.6359 160.305 59.4685 159.714C59.7289 159.469 59.9149 159.285 60.1568 159.061C60.3986 159.285 60.6404 159.428 60.7892 159.652C60.9194 159.836 60.9566 160.081 61.031 160.305C62.6493 165.406 64.2491 170.486 65.8488 175.587C65.9604 175.852 66.0162 176.138 66.1092 176.485Z" fill="#3C3372"/>
    <path d="M208.875 305.859C206.847 305.859 205.322 304.839 204.373 302.921C203.127 300.412 203.238 297.882 204.708 295.515C205.861 293.658 207.498 292.74 209.581 292.985C211.59 293.23 212.948 294.474 213.785 296.454C214.92 299.126 214.325 302.35 212.409 304.309C211.404 305.349 210.232 305.859 208.875 305.859ZM212.874 299.412C212.967 298.086 212.576 296.943 211.832 295.964C211.051 294.923 209.544 293.964 207.74 294.76C206.029 295.515 205.136 297.004 204.987 299.004C204.819 301.126 205.471 302.86 207.219 303.921C208.335 304.594 209.507 304.533 210.623 303.839C212.167 302.84 212.837 301.33 212.874 299.412Z" fill="#3C3372"/>
    <path d="M155.135 306.573C153.033 306.594 151.564 305.614 150.541 303.819C149.146 301.371 149.388 298.045 151.043 295.821C153.461 292.618 157.758 293.026 159.618 296.658C160.995 299.371 160.53 302.901 158.484 305.002C157.516 306.043 156.344 306.573 155.135 306.573ZM159.004 299.392C159.042 298.657 158.632 297.413 157.702 296.413C156.605 295.229 155.284 294.842 153.852 295.474C152.141 296.229 151.248 297.719 151.099 299.718C150.931 301.84 151.582 303.574 153.35 304.635C154.466 305.308 155.638 305.247 156.754 304.533C158.26 303.554 158.93 302.024 159.004 299.392Z" fill="#3C3372"/>
    <path d="M151.396 208.558C151.285 206.355 151.88 194.99 152.178 193.542C153.108 193.48 154.056 193.358 155.024 193.338C158.707 193.235 162.371 193.195 166.054 193.093C170.277 192.991 174.481 192.848 178.703 192.725C182.051 192.623 185.4 192.481 188.748 192.379C192.915 192.256 197.063 192.134 201.229 192.011C202.197 191.971 203.164 191.868 204.15 191.828C204.466 191.807 204.764 191.889 205.098 191.909C205.117 192.175 205.173 192.358 205.136 192.521C204.708 195.031 204.615 197.581 204.057 200.07C203.555 202.315 203.331 204.62 203.127 206.926C203.09 207.334 202.997 207.722 202.941 208.109C202.345 208.517 201.732 208.374 201.155 208.395C197.044 208.415 192.933 208.415 188.822 208.436C176.973 208.476 165.143 208.538 153.294 208.599C152.68 208.578 152.085 208.558 151.396 208.558Z" fill="#D1A76B"/>
    <path d="M206.14 197.153C210.679 196.786 215.255 196.724 219.701 196.806C220.073 197.132 220.017 197.459 219.961 197.724C219.217 200.948 218.715 204.212 217.71 207.354C217.636 207.579 217.543 207.783 217.487 207.966C216.408 208.293 211.795 208.436 205.824 208.313C205.415 208.313 205.006 208.211 204.596 208.17C204.596 205.62 205.396 199.907 206.14 197.153Z" fill="#FFBD5C"/>
    <path d="M126.322 196.378C125.838 196.52 125.392 196.724 124.927 196.806C122.639 197.214 120.332 197.52 118.007 197.683C115.793 197.826 113.598 198.173 111.403 198.397C109.469 198.601 107.534 198.785 105.6 198.907C104.967 198.948 104.316 198.765 103.684 198.622C103.237 198.52 102.977 198.112 102.81 197.643C102.624 197.173 102.754 196.684 103.126 196.378C103.256 196.276 103.386 196.174 103.535 196.112C105.935 195.051 108.371 194.052 110.994 193.827C111.906 193.746 112.817 193.542 113.729 193.44C115.068 193.297 116.407 193.133 117.765 193.113C119.755 193.072 121.764 193.154 123.755 193.174C124.666 193.195 125.447 193.542 126.08 194.256C126.563 194.807 126.805 195.439 126.322 196.378Z" fill="#B57341"/>
    <path opacity="0.1" d="M212.316 195.99L211.051 208.558L204.596 208.191L206.14 197.153L212.316 195.99Z" fill="black"/>
    <path opacity="0.1" d="M151.564 202.009L205.117 200.193L203.834 209.843L149.629 208.538L151.564 202.009Z" fill="black"/>
    <path d="M212.874 299.412C212.837 301.309 212.148 302.84 210.623 303.819C209.526 304.533 208.335 304.574 207.219 303.901C205.47 302.84 204.819 301.105 204.987 298.983C205.154 297.004 206.047 295.515 207.74 294.74C209.526 293.944 211.032 294.903 211.832 295.943C212.595 296.964 212.967 298.106 212.874 299.412ZM210.232 299.228C210.232 298.514 209.935 298.065 209.451 298.004C208.837 297.923 208.261 298.31 208.056 298.922C207.833 299.616 208.186 300.391 208.837 300.616C209.377 300.799 210.028 300.351 210.177 299.677C210.214 299.514 210.214 299.33 210.232 299.228Z" fill="#5DB3C1"/>
    <path d="M159.004 299.392C158.93 302.024 158.26 303.554 156.716 304.533C155.619 305.247 154.428 305.308 153.312 304.635C151.564 303.574 150.894 301.84 151.062 299.718C151.21 297.739 152.103 296.229 153.815 295.474C155.266 294.842 156.586 295.229 157.665 296.413C158.614 297.433 159.042 298.677 159.004 299.392ZM156.27 300.065C156.326 299.432 155.749 298.657 155.135 298.535C154.447 298.412 153.815 299.065 153.759 299.922C153.722 300.636 154.168 301.269 154.726 301.33C155.414 301.411 156.196 300.759 156.27 300.065Z" fill="#5DB3C1"/>
    <path d="M152.159 291.761C151.713 291.271 151.62 290.598 151.489 289.986C150.187 284.171 148.904 278.336 147.583 272.541C145.704 264.258 143.974 255.913 141.835 247.711C141.166 245.14 140.663 242.529 140.012 239.958C138.952 235.673 137.836 231.389 136.739 227.104C135.455 222.085 134.19 217.046 132.925 212.006C131.977 208.232 131.028 204.457 130.061 200.683C129.856 199.887 129.614 199.091 129.317 198.336C129.075 197.683 128.852 197.01 128.219 196.684C128.126 196.704 128.052 196.704 128.033 196.745C127.047 198.03 125.652 198.295 124.257 198.499C121.839 198.846 119.439 199.173 117.002 199.295C115.552 199.356 114.101 199.642 112.65 199.805C110.064 200.111 107.479 200.438 104.874 200.356C104.298 200.336 103.702 200.213 103.126 200.03C102.531 199.846 102.103 199.377 101.768 198.805C100.894 197.255 101.303 195.521 102.828 194.786C104.056 194.194 105.339 193.684 106.623 193.256C107.758 192.889 108.929 192.603 110.101 192.44C112.52 192.093 114.938 191.746 117.356 191.583C119.346 191.46 121.355 191.562 123.364 191.603C124.573 191.644 125.764 191.868 126.675 192.848C127.177 193.378 127.568 194.011 128.182 194.807C129.596 195.317 130.377 196.786 130.86 198.479C131.549 200.968 132.181 203.498 132.832 206.008C132.962 206.518 133.055 207.048 133.204 207.558C133.465 208.476 133.688 208.68 134.618 208.68C135.753 208.701 136.887 208.66 138.022 208.66C141.11 208.64 144.198 208.619 147.285 208.599C148.03 208.599 148.792 208.558 149.611 208.538C149.704 208.13 149.834 207.803 149.852 207.477C150.094 203.58 150.299 199.662 150.541 195.745C150.597 194.745 150.745 193.746 150.838 192.909C151.229 192.256 151.713 192.215 152.215 192.195C154.484 192.073 156.754 191.93 159.023 191.848C163.301 191.685 167.561 191.583 171.839 191.44C176.713 191.256 181.568 191.052 186.441 190.869C191.259 190.685 196.077 190.542 200.876 190.379C202.29 190.338 203.685 190.257 205.099 190.195C205.582 190.175 206.084 190.155 206.438 190.726C206.308 192.277 206.196 193.848 206.066 195.521C206.419 195.582 206.717 195.725 207.014 195.684C209.879 195.296 212.744 195.419 215.608 195.296C216.855 195.255 218.101 195.194 219.347 195.174C220.054 195.153 220.761 195.194 221.393 195.48C221.747 195.786 221.858 196.153 221.765 196.602C221.058 199.826 220.352 203.049 219.626 206.273C219.496 206.844 219.329 207.395 219.161 208.068C219.552 208.13 219.868 208.211 220.166 208.211C221.728 208.211 223.309 208.211 224.872 208.191C225.318 208.191 225.746 208.232 226.006 208.844C225.876 209.639 225.634 210.476 225.3 211.272C219.57 224.962 213.841 238.673 208.131 252.363C207.87 252.995 207.554 253.628 207.256 254.281C206.81 254.322 206.438 254.403 206.066 254.403C203.573 254.444 201.081 254.485 198.607 254.526C194.012 254.607 189.418 254.709 184.804 254.811C178.592 254.954 172.36 255.097 166.147 255.24C160.957 255.362 155.768 255.464 150.559 255.587C149.146 255.627 147.751 255.689 146.337 255.75C146.076 255.77 145.816 255.831 145.444 255.893C145.388 256.525 145.574 257.076 145.686 257.627C146.653 262.014 147.639 266.38 148.606 270.766C149.89 276.52 151.155 282.294 152.419 288.048C152.587 288.802 152.81 289.517 152.977 290.21C153.554 290.578 154.112 290.455 154.652 290.435C159.079 290.333 163.524 290.21 167.952 290.129C170.221 290.088 172.49 290.088 174.778 290.027C180.191 289.925 185.604 289.782 190.999 289.68C196.412 289.557 201.825 289.435 207.238 289.333C207.666 289.313 208.112 289.292 208.54 289.374C208.763 289.415 208.949 289.68 209.116 289.823C209.098 290.414 208.856 290.68 208.428 290.741C208.112 290.782 207.777 290.782 207.461 290.802C202.383 290.924 197.286 291.026 192.208 291.149C190.106 291.19 187.985 291.21 185.883 291.251C180.526 291.373 175.169 291.496 169.812 291.598C164.455 291.72 159.097 291.842 153.74 291.944C153.201 291.985 152.661 292.047 152.159 291.761ZM151.396 208.558C152.085 208.558 152.68 208.558 153.275 208.558C165.124 208.497 176.955 208.456 188.804 208.395C192.915 208.374 197.026 208.374 201.136 208.354C201.713 208.354 202.327 208.497 202.922 208.068C202.978 207.701 203.071 207.293 203.108 206.885C203.313 204.579 203.536 202.274 204.038 200.03C204.596 197.54 204.689 194.99 205.117 192.481C205.136 192.317 205.099 192.134 205.08 191.868C204.764 191.828 204.447 191.766 204.131 191.787C203.164 191.828 202.197 191.95 201.211 191.97C197.044 192.113 192.896 192.215 188.729 192.338C185.381 192.44 182.033 192.583 178.685 192.685C174.462 192.807 170.258 192.95 166.036 193.052C162.353 193.154 158.688 193.195 155.005 193.297C154.038 193.317 153.089 193.44 152.159 193.501C151.88 194.99 151.285 206.355 151.396 208.558ZM215.701 230.634C218.492 223.962 221.3 217.229 224.091 210.496C224.146 210.353 224.128 210.17 224.146 210.007C223.718 209.558 223.198 209.721 222.751 209.721C219.887 209.741 217.022 209.803 214.157 209.843C212.539 209.864 210.902 209.843 209.284 209.864C208.986 209.864 208.67 209.945 208.298 210.007C208.019 216.74 207.926 223.371 207.852 230.001C207.852 230.226 207.926 230.45 207.982 230.654C209.284 230.92 214.213 230.92 215.701 230.634ZM186.609 230.654C187.799 230.858 193.454 230.96 195.463 230.818C195.668 230.797 195.872 230.695 196.17 230.593C196.226 228.267 196.281 225.962 196.3 223.677C196.319 221.432 196.356 219.168 196.337 216.923C196.3 214.638 196.486 212.333 196.337 209.905C195.128 209.884 193.994 209.905 192.877 209.905C191.799 209.905 190.72 209.884 189.641 209.925C188.525 209.966 187.39 209.762 186.311 210.088C186.032 212.149 186.293 228.798 186.609 230.654ZM154.614 232.531C154.41 232.45 154.317 232.389 154.205 232.389C151.452 232.389 148.699 232.368 145.928 232.389C145.742 232.389 145.537 232.531 145.277 232.633C145.277 233.266 145.277 233.858 145.277 234.449C145.295 238.061 145.314 241.692 145.332 245.304C145.332 247.793 145.332 250.282 145.332 252.771C145.332 253.24 145.258 253.73 145.667 254.22C147.081 254.322 148.588 254.179 150.094 254.158C151.582 254.138 153.089 254.322 154.633 253.975C154.67 253.506 154.726 253.097 154.726 252.689C154.893 243.814 154.819 234.286 154.614 232.531ZM195.928 252.934C195.947 251.914 195.965 250.955 195.984 250.017C196.021 246.405 196.04 242.774 196.077 239.162C196.095 237.326 196.17 235.49 196.188 233.654C196.188 233.266 196.095 232.858 196.021 232.348C194.384 232.348 192.822 232.307 191.259 232.348C189.715 232.389 188.153 232.205 186.553 232.491C186.516 232.858 186.46 233.143 186.479 233.429C186.572 239.774 186.665 246.12 186.758 252.465C186.758 252.73 186.869 252.995 186.925 253.24C188.32 253.404 194.589 253.199 195.928 252.934ZM185.195 253.281C185.232 252.791 185.288 252.383 185.288 251.975C185.251 246.058 185.195 240.121 185.139 234.204C185.139 233.633 185.176 233.021 184.842 232.429C184.6 232.409 184.339 232.348 184.079 232.348C181.549 232.348 179.001 232.368 176.471 232.389C176.378 232.389 176.285 232.491 176.192 232.552C176.155 232.654 176.062 232.756 176.062 232.858C175.969 239.142 175.876 245.406 175.783 251.69C175.783 252.159 175.801 252.628 175.82 253.118C175.82 253.159 175.857 253.22 175.894 253.261C175.932 253.301 175.969 253.363 175.987 253.403C177.029 253.587 183.391 253.526 185.195 253.281ZM154.726 230.573C154.745 230.022 154.763 229.43 154.763 228.838C154.782 226.635 154.8 224.452 154.8 222.248C154.819 218.576 154.819 214.883 154.819 211.21C154.819 210.884 154.726 210.537 154.652 210.129C153.573 209.966 152.55 210.047 151.527 210.047C150.504 210.047 149.462 209.986 148.439 210.088C147.434 210.19 146.393 210.027 145.425 210.292C145.351 210.558 145.258 210.721 145.258 210.884C145.258 217.29 145.277 223.697 145.295 230.124C145.295 230.287 145.388 230.45 145.444 230.654C145.649 230.716 145.853 230.818 146.058 230.818C148.755 230.818 151.471 230.818 154.168 230.797C154.317 230.797 154.466 230.675 154.726 230.573ZM174.369 253.342C174.388 252.853 174.443 252.343 174.443 251.812C174.462 250.261 174.462 248.731 174.481 247.181C174.518 242.61 174.555 238.04 174.574 233.47C174.574 233.143 174.481 232.797 174.425 232.389C172.955 232.307 171.542 232.327 170.147 232.348C168.714 232.389 167.263 232.164 165.775 232.511C165.738 232.939 165.701 233.286 165.701 233.633C165.645 237.02 165.571 240.386 165.533 243.773C165.496 246.63 165.515 249.466 165.515 252.322C165.515 252.791 165.422 253.281 165.775 253.669C168.026 253.975 172.9 253.791 174.369 253.342ZM165.719 230.634C167.542 230.94 173.29 230.899 174.555 230.593C174.611 228.92 174.685 227.206 174.722 225.513C174.76 223.799 174.76 222.085 174.76 220.371C174.76 218.657 174.778 216.944 174.778 215.209C174.797 213.516 174.964 211.822 174.704 210.047C173.662 209.925 172.695 209.986 171.746 209.966C170.779 209.966 169.793 209.945 168.826 209.966C167.877 209.986 166.91 209.843 165.887 210.109C165.664 212.659 165.794 215.148 165.757 217.617C165.701 221.942 165.626 226.247 165.719 230.634ZM197.565 230.654C198.718 230.96 199.686 230.818 200.653 230.838C201.564 230.858 202.494 230.879 203.406 230.838C204.354 230.797 205.34 231.042 206.326 230.593C206.81 223.901 206.568 217.209 206.884 210.537C206.884 210.374 206.791 210.211 206.717 209.966C205.787 209.68 204.801 209.864 203.852 209.823C202.829 209.803 201.806 209.782 200.783 209.823C199.834 209.864 198.867 209.619 197.9 210.047C197.639 216.923 197.584 223.717 197.565 230.654ZM176.378 210.007C176.08 211.863 175.95 228.777 176.211 230.654C176.397 230.716 176.601 230.818 176.806 230.818C179.354 230.818 181.884 230.818 184.432 230.797C184.581 230.797 184.73 230.675 184.86 230.634C184.916 230.491 184.972 230.389 184.972 230.267C184.935 223.86 184.879 217.454 184.823 211.047C184.823 210.7 184.693 210.374 184.618 210.007C181.847 210.007 179.15 210.007 176.378 210.007ZM197.546 232.552C197.528 233.225 197.509 233.817 197.491 234.408C197.416 238.55 197.36 242.692 197.305 246.854C197.286 248.568 197.286 250.282 197.286 252.016C197.286 252.343 197.416 252.689 197.491 253.097C200.076 253.097 202.606 253.159 205.154 252.955C205.396 252.934 205.638 252.791 205.917 252.689C205.954 252.037 205.991 251.445 205.991 250.853C206.047 248.14 206.084 245.406 206.14 242.692C206.196 239.611 206.289 236.53 206.345 233.45C206.345 233.123 206.233 232.797 206.177 232.491C204.392 232.266 198.96 232.307 197.546 232.552ZM164.213 230.736C164.269 230.144 164.343 229.757 164.362 229.349C164.38 228.451 164.38 227.573 164.38 226.676C164.417 221.697 164.455 216.719 164.473 211.741C164.473 211.17 164.659 210.558 164.12 209.966C161.72 209.966 159.228 209.925 156.754 210.068C156.623 210.068 156.493 210.231 156.363 210.313C156.158 212.292 156.14 229.185 156.344 230.573C156.437 230.634 156.53 230.756 156.605 230.756C158.651 230.797 160.716 230.818 162.762 230.838C163.208 230.838 163.636 230.777 164.213 230.736ZM164.008 253.791C164.064 253.342 164.101 253.118 164.101 252.893C164.138 246.365 164.194 239.856 164.213 233.327C164.213 233.062 164.138 232.776 164.083 232.409C162.706 232.307 161.423 232.348 160.139 232.368C158.856 232.389 157.572 232.185 156.307 232.531C156.27 232.776 156.214 232.96 156.214 233.123C156.196 239.815 156.177 246.528 156.158 253.22C156.158 253.485 156.289 253.75 156.382 254.036C158.949 253.914 161.423 254.036 164.008 253.791ZM206.14 197.153C205.396 199.907 204.596 205.62 204.596 208.191C205.006 208.252 205.415 208.334 205.824 208.334C211.795 208.456 216.408 208.313 217.487 207.987C217.561 207.803 217.636 207.579 217.71 207.375C218.715 204.233 219.217 200.948 219.961 197.745C220.017 197.479 220.073 197.153 219.701 196.826C215.255 196.704 210.679 196.786 206.14 197.153ZM134.079 210.374C134.172 210.904 134.209 211.374 134.32 211.802C135.79 217.637 137.278 223.452 138.766 229.267C138.896 229.757 139.101 230.246 139.25 230.675C141.37 230.981 142.821 230.92 143.863 230.491C143.881 230.103 143.937 229.695 143.937 229.287C143.956 228.104 143.937 226.921 143.937 225.737C143.937 221.167 143.937 216.597 143.919 212.027C143.919 211.455 144.067 210.843 143.658 210.333C142.598 210.149 136.683 210.068 134.73 210.19C134.525 210.211 134.339 210.292 134.079 210.374ZM126.322 196.378C126.805 195.439 126.545 194.827 126.061 194.276C125.429 193.562 124.648 193.195 123.736 193.195C121.746 193.174 119.737 193.093 117.747 193.133C116.407 193.154 115.049 193.317 113.71 193.46C112.799 193.562 111.887 193.766 110.976 193.848C108.353 194.072 105.935 195.072 103.516 196.133C103.368 196.194 103.237 196.296 103.107 196.398C102.735 196.684 102.605 197.194 102.791 197.663C102.958 198.112 103.219 198.52 103.665 198.642C104.298 198.785 104.949 198.969 105.581 198.928C107.516 198.805 109.45 198.622 111.385 198.418C113.58 198.193 115.775 197.847 117.988 197.704C120.313 197.54 122.601 197.255 124.908 196.826C125.392 196.724 125.857 196.52 126.322 196.378ZM207.424 249.507C207.517 249.527 207.628 249.527 207.721 249.547C207.945 249.078 208.168 248.629 208.354 248.16C210.344 243.427 212.316 238.693 214.288 233.96C214.474 233.511 214.808 233.062 214.66 232.511C213.097 232.266 209.061 232.287 207.889 232.552C207.833 232.654 207.74 232.756 207.74 232.858C207.61 238.061 207.479 243.263 207.349 248.486C207.368 248.813 207.405 249.16 207.424 249.507ZM139.696 232.491C139.789 233.041 139.826 233.388 139.901 233.715C140.57 236.469 141.24 239.203 141.91 241.937C142.393 243.937 142.84 245.956 143.342 247.956C143.435 248.344 143.416 248.833 144.012 249.017C143.974 243.651 143.937 238.326 143.881 233.001C143.881 232.837 143.77 232.674 143.695 232.45C142.431 232.287 141.166 232.287 139.696 232.491Z" fill="#3C3372"/>
    <path d="M210.232 299.228C210.214 299.33 210.214 299.514 210.177 299.677C210.009 300.351 209.377 300.799 208.837 300.616C208.186 300.391 207.833 299.636 208.056 298.922C208.261 298.31 208.837 297.923 209.451 298.004C209.916 298.065 210.232 298.514 210.232 299.228Z" fill="#3C3372"/>
    <path d="M156.27 300.065C156.214 300.759 155.414 301.411 154.726 301.35C154.149 301.289 153.703 300.657 153.759 299.942C153.815 299.086 154.447 298.433 155.135 298.555C155.73 298.637 156.326 299.432 156.27 300.065Z" fill="#3C3372"/>
</svg>
