<svg width="11" height="9" viewBox="0 0 11 9" fill="none" xmlns="http://www.w3.org/2000/svg">
    <path d="M9.44421 1.49243H7.87892L7.50602 0.44737C7.48025 0.37586 7.43304 0.314046 7.37083 0.270375C7.30862 0.226703 7.23444 0.203302 7.15843 0.203369H3.62732C3.47194 0.203369 3.33268 0.3012 3.28088 0.44737L2.90683 1.49243H1.34154C0.832816 1.49243 0.420776 1.90447 0.420776 2.41319V7.66152C0.420776 8.17024 0.832816 8.58228 1.34154 8.58228H9.44421C9.95293 8.58228 10.365 8.17024 10.365 7.66152V2.41319C10.365 1.90447 9.95293 1.49243 9.44421 1.49243ZM5.39287 6.74076C4.37544 6.74076 3.55136 5.91668 3.55136 4.89924C3.55136 3.8818 4.37544 3.05772 5.39287 3.05772C6.41031 3.05772 7.23439 3.8818 7.23439 4.89924C7.23439 5.91668 6.41031 6.74076 5.39287 6.74076ZM4.28796 4.89924C4.28796 5.19228 4.40437 5.47332 4.61158 5.68053C4.8188 5.88774 5.09983 6.00415 5.39287 6.00415C5.68591 6.00415 5.96695 5.88774 6.17416 5.68053C6.38137 5.47332 6.49778 5.19228 6.49778 4.89924C6.49778 4.6062 6.38137 4.32516 6.17416 4.11795C5.96695 3.91074 5.68591 3.79433 5.39287 3.79433C5.09983 3.79433 4.8188 3.91074 4.61158 4.11795C4.40437 4.32516 4.28796 4.6062 4.28796 4.89924Z" fill="black"/>
</svg>
