<svg width="36" height="36" viewBox="0 0 36 36" fill="none" xmlns="http://www.w3.org/2000/svg">
    <path d="M18.09 20.59C17.5516 20.594 17.0301 20.7783 16.6086 21.1133C16.1871 21.4483 15.89 21.9148 15.7646 22.4384C15.6391 22.962 15.6926 23.5126 15.9166 24.0022C16.1405 24.4918 16.5219 24.8924 17 25.14V28H19V25.23C19.5163 25.0184 19.9432 24.6341 20.2079 24.1429C20.4725 23.6516 20.5585 23.0837 20.4511 22.5361C20.3437 21.9886 20.0496 21.4952 19.619 21.1403C19.1884 20.7854 18.648 20.5909 18.09 20.59V20.59Z" fill="black"/>
    <path d="M26 15V10.72C26.0429 8.55187 25.2253 6.45502 23.726 4.88827C22.2268 3.32152 20.1679 2.41245 18 2.35999C15.8321 2.41245 13.7732 3.32152 12.274 4.88827C10.7747 6.45502 9.95705 8.55187 10 10.72V15H7V32C7 32.5304 7.21071 33.0391 7.58579 33.4142C7.96086 33.7893 8.46957 34 9 34H27C27.5304 34 28.0391 33.7893 28.4142 33.4142C28.7893 33.0391 29 32.5304 29 32V15H26ZM12 10.72C11.9569 9.08222 12.5638 7.49397 13.688 6.30226C14.8123 5.11055 16.3625 4.41227 18 4.35999C19.6375 4.41227 21.1877 5.11055 22.312 6.30226C23.4362 7.49397 24.0431 9.08222 24 10.72V15H12V10.72ZM9 32V17H27V32H9Z" fill="black"/>
</svg>
