<svg width="12" height="10" viewBox="0 0 12 10" fill="none" xmlns="http://www.w3.org/2000/svg">
    <path d="M5.17603 0.176011C5.12934 0.129357 5.06603 0.103149 5.00003 0.103149C4.93402 0.103149 4.87072 0.129357 4.82403 0.176011L0.424029 4.57601C0.390046 4.61106 0.367068 4.65529 0.357932 4.70325C0.348796 4.75121 0.353902 4.80079 0.372618 4.84588C0.391334 4.89097 0.422843 4.92959 0.463255 4.95698C0.503667 4.98437 0.551214 4.99933 0.600029 5.00001H2.00003V9.75101C2.00003 9.81705 2.02626 9.88038 2.07296 9.92708C2.11966 9.97378 2.18299 10 2.24903 10H5.74903C5.78173 10.0003 5.81416 9.99409 5.84447 9.98182C5.87478 9.96955 5.90238 9.95143 5.92569 9.9285C5.94899 9.90556 5.96756 9.87826 5.98031 9.84815C5.99307 9.81804 5.99977 9.78571 6.00003 9.75301V4.32301C6.00007 4.25699 6.02632 4.19368 6.07303 4.14701L7.50003 2.50001L5.17603 0.176011ZM5.00003 8.00001H4.00003V7.00001H5.00003V8.00001ZM5.00003 6.00001H4.00003V5.00001H5.00003V6.00001ZM11.75 2.00001H11.25C11.1837 2.00001 11.1201 2.02635 11.0733 2.07323C11.0264 2.12012 11 2.18371 11 2.25001V4.00001L9.67603 2.17601C9.62934 2.12936 9.56603 2.10315 9.50003 2.10315C9.43402 2.10315 9.37072 2.12936 9.32403 2.17601L7.05603 4.93201C7.01988 4.97597 7.00009 5.0311 7.00003 5.08801V9.74801C6.99963 9.78071 7.00568 9.81317 7.01783 9.84353C7.02998 9.87389 7.04799 9.90156 7.07083 9.92496C7.09368 9.94836 7.12091 9.96704 7.15097 9.97991C7.18103 9.99279 7.21333 9.99962 7.24603 10H8.74603C8.77925 10.0001 8.81218 9.99373 8.84292 9.98114C8.87367 9.96854 8.90163 9.95002 8.92522 9.92662C8.94881 9.90322 8.96755 9.8754 8.98039 9.84475C8.99322 9.81411 8.9999 9.78124 9.00003 9.74801V8.00001H10V9.74701C10 9.81411 10.0267 9.87846 10.0741 9.92591C10.1216 9.97335 10.1859 10 10.253 10H11.753C11.8186 9.99922 11.8813 9.97267 11.9275 9.92609C11.9737 9.87951 11.9998 9.81663 12 9.75101V2.25001C12 2.18371 11.9737 2.12012 11.9268 2.07323C11.8799 2.02635 11.8163 2.00001 11.75 2.00001ZM9.00003 7.00001H8.00003V6.00001H9.00003V7.00001ZM11 7.00001H10V6.00001H11V7.00001Z" fill="black"/>
</svg>
